{"glyphs":{"0":{"ha":552,"x_min":28,"x_max":525,"o":"m 277 -7 q 239 -7 251 -7 l 222 -7 q 119 22 154 0 q 43 137 57 64 q 36 172 39 154 q 31 201 33 190 q 29 250 30 213 l 28 352 l 28 370 q 30 397 29 380 q 32 428 31 413 q 35 460 33 444 q 38 488 36 477 q 41 512 39 498 q 43 537 43 526 q 58 630 47 580 q 70 675 63 648 q 84 726 77 703 q 92 754 90 749 q 94 767 93 758 q 97 785 96 775 q 123 885 102 852 q 159 932 137 906 q 194 969 181 959 q 220 984 205 977 q 247 996 235 992 q 292 1002 267 1002 q 327 1000 302 1002 q 385 986 353 998 q 425 958 403 978 q 461 918 448 938 q 493 836 481 884 q 503 795 498 809 l 521 730 q 525 704 524 722 q 524 646 525 663 q 522 620 523 629 q 519 533 519 600 q 516 450 519 467 q 507 349 511 420 q 492 227 503 272 q 469 151 484 193 q 444 92 454 110 q 351 11 415 47 q 316 -4 330 -1 q 277 -7 301 -7 m 355 836 q 352 843 355 838 q 347 847 349 847 q 350 842 347 846 q 353 837 353 837 q 355 836 354 836 m 267 130 q 281 131 276 130 q 298 136 287 131 q 333 163 321 151 q 345 183 338 168 q 376 296 366 236 q 382 380 380 330 q 391 467 384 414 q 393 505 393 488 q 393 555 393 532 l 392 590 q 393 616 392 606 q 397 674 397 665 q 395 699 397 690 q 391 708 393 704 q 389 713 390 712 q 385 694 387 713 l 381 673 q 368 578 368 608 q 359 499 368 556 q 352 464 356 474 q 351 457 351 460 l 351 455 q 347 413 351 439 q 340 369 342 373 q 334 363 338 364 q 325 366 329 363 q 321 378 321 368 q 328 432 321 393 q 332 461 330 448 q 333 468 333 464 q 339 538 333 481 q 342 633 342 606 q 345 705 344 699 q 346 715 346 711 q 345 722 346 720 q 336 768 339 730 q 333 795 334 788 q 328 803 331 803 q 318 810 325 803 q 312 816 314 814 q 306 815 309 816 q 287 814 302 814 q 266 815 271 814 l 265 815 q 256 795 262 815 q 248 772 253 787 q 223 712 231 734 q 214 663 216 690 q 210 629 213 636 q 209 619 210 625 q 209 607 209 612 q 207 580 209 596 q 204 477 204 567 q 203 402 204 412 q 199 380 202 382 q 191 377 195 377 q 184 381 189 377 q 180 397 180 386 q 179 454 180 433 q 177 492 178 475 q 175 515 176 509 q 173 521 174 521 q 171 510 171 521 q 167 475 171 496 q 159 297 159 425 q 161 217 159 233 q 169 170 165 184 q 180 148 172 155 q 267 130 194 132 z "},"1":{"ha":357,"x_min":27,"x_max":329,"o":"m 197 -36 q 176 -33 193 -36 q 151 -24 158 -27 q 140 -21 144 -22 q 131 -20 136 -20 l 116 -20 q 85 -18 94 -20 q 68 -7 76 -16 q 54 21 54 8 q 68 43 54 36 q 82 48 76 47 q 98 54 89 48 q 112 66 108 60 q 121 78 115 72 q 133 87 127 84 q 144 112 142 96 l 143 125 l 143 158 q 146 265 143 219 q 150 340 150 304 q 157 473 151 422 q 158 486 158 479 q 157 500 158 494 q 157 517 157 507 q 161 524 157 520 q 163 531 163 528 q 160 556 163 536 q 157 598 157 576 q 169 700 157 637 l 172 722 q 195 819 178 766 l 197 828 l 186 822 q 151 808 168 810 q 126 798 136 806 q 104 770 116 790 q 91 743 94 755 l 85 718 q 83 698 83 705 q 76 684 82 688 q 72 682 74 682 q 60 701 60 682 q 64 737 60 713 l 56 751 q 48 768 48 763 q 47 796 47 773 l 41 800 q 27 824 27 808 q 53 850 27 844 q 126 877 93 862 l 152 887 q 195 903 174 893 q 246 918 224 918 q 287 899 271 918 q 308 842 308 878 q 298 770 308 825 q 290 705 294 743 l 288 677 q 281 608 281 625 q 284 565 281 589 q 288 519 288 542 q 284 472 288 495 q 279 421 281 446 q 276 378 277 385 q 274 333 274 356 q 273 304 273 320 q 271 277 272 289 q 264 172 264 199 q 269 128 264 143 q 275 105 275 110 q 288 77 280 90 q 300 62 296 64 l 308 62 q 328 52 323 62 q 329 46 329 50 q 321 27 329 38 q 316 20 318 23 q 315 15 315 16 q 311 9 315 14 q 302 0 307 4 q 293 -8 298 -5 q 246 -27 275 -18 q 197 -36 217 -35 m 73 532 q 65 536 69 532 q 61 546 61 540 l 61 572 q 65 583 61 579 q 74 586 69 586 q 83 582 79 586 q 86 565 86 578 q 85 546 86 552 q 80 536 83 540 q 73 532 77 532 z "},"2":{"ha":471,"x_min":27,"x_max":443,"o":"m 136 -16 l 127 -16 q 92 -12 107 -16 q 63 -3 72 -7 q 45 10 54 1 q 27 54 27 28 q 34 80 27 68 q 58 106 40 91 q 79 127 73 120 l 100 153 q 140 208 117 173 q 167 253 159 236 q 180 277 176 269 q 196 305 185 284 q 216 347 206 326 q 229 374 226 367 q 239 404 232 385 q 266 464 258 448 l 300 521 l 306 559 q 313 617 313 600 l 318 665 q 322 711 322 690 q 321 736 322 720 q 309 787 319 753 q 296 818 302 810 q 278 825 290 825 q 274 824 275 825 q 269 814 272 823 l 259 791 q 249 770 254 777 q 239 750 244 763 q 234 729 235 736 q 232 712 234 726 q 221 654 228 686 q 212 587 213 618 q 211 568 212 578 q 209 551 210 557 q 208 534 208 545 q 209 532 209 534 q 208 528 209 531 q 206 522 208 526 q 202 518 204 519 q 200 517 200 517 q 203 513 200 516 q 205 505 205 510 q 196 492 203 492 q 184 509 184 492 q 190 516 184 512 q 191 517 191 517 q 189 521 191 519 q 187 532 187 523 q 188 537 187 535 q 189 549 189 539 l 189 560 l 189 573 l 188 601 q 189 622 188 614 q 191 678 189 630 q 195 732 191 719 q 197 745 197 740 q 189 764 197 755 q 178 787 184 770 l 169 781 q 152 766 160 776 q 140 746 143 755 q 135 715 136 736 q 126 653 130 660 q 119 650 123 650 q 112 652 115 650 q 109 671 109 654 l 109 707 l 99 707 q 85 710 90 707 q 71 741 71 720 q 77 783 71 757 q 89 825 82 805 q 103 853 94 838 q 121 878 113 869 q 208 923 151 910 q 225 927 217 925 q 236 929 233 928 q 280 932 240 930 q 302 932 294 932 q 319 928 311 931 q 332 923 323 926 q 336 922 334 922 q 401 862 376 907 q 440 749 428 814 q 443 709 443 733 q 441 668 443 682 q 437 628 438 642 q 423 505 429 534 q 412 471 420 486 q 387 434 404 456 q 362 399 365 407 q 335 328 351 379 q 281 212 325 296 q 218 110 260 173 l 215 105 q 235 108 223 107 q 261 111 246 109 q 293 112 279 112 q 347 105 328 112 q 387 86 360 100 q 409 55 409 73 q 407 43 409 49 q 397 28 404 37 q 342 3 377 9 q 281 1 325 1 l 260 2 q 246 1 252 2 q 234 -1 241 1 q 218 -5 228 -3 q 201 -8 209 -7 q 183 -11 193 -9 q 168 -14 174 -13 q 136 -16 155 -16 z "},"3":{"ha":549,"x_min":28,"x_max":520,"o":"m 201 -1 l 176 -1 q 146 0 155 -1 q 113 7 134 1 l 112 8 q 79 23 96 14 q 52 44 62 33 q 34 68 41 54 q 28 89 28 81 q 54 115 28 113 q 105 123 90 119 q 123 128 116 128 q 141 135 134 130 q 192 141 153 141 q 218 141 214 141 q 228 146 223 142 q 258 165 239 157 q 293 173 277 173 q 303 170 300 173 q 307 162 307 166 q 299 148 307 155 q 284 138 291 140 q 267 131 278 136 l 254 123 l 262 123 q 295 127 287 126 q 311 127 302 127 l 312 138 q 325 174 313 155 q 355 203 338 193 q 363 210 360 206 q 372 224 367 214 q 393 280 386 252 q 397 315 397 299 q 396 329 397 322 q 393 364 394 345 q 390 386 391 378 q 384 403 388 393 q 378 426 378 417 q 382 445 378 437 l 382 447 q 380 449 382 448 q 369 458 378 450 q 354 465 363 461 q 320 475 330 475 q 309 478 313 475 q 279 481 304 481 l 254 481 q 245 458 249 469 q 238 424 238 431 q 233 414 238 417 l 229 413 q 221 416 224 413 q 218 429 218 419 l 218 475 l 212 475 q 177 380 188 475 l 174 354 q 165 349 171 349 q 155 360 158 349 q 146 401 146 391 q 148 413 146 406 q 149 423 149 419 l 148 433 q 145 449 145 439 q 140 469 145 459 q 136 479 137 474 q 136 494 136 484 l 136 501 q 133 515 136 509 q 130 525 130 520 q 134 536 130 530 q 175 566 142 554 q 204 582 184 569 q 240 601 224 595 l 265 612 q 294 632 277 620 q 317 652 310 645 q 335 681 326 663 q 351 718 345 699 q 358 742 356 733 q 360 777 360 755 q 356 799 360 788 q 336 832 349 821 q 271 849 323 843 l 241 852 l 232 847 q 207 831 216 839 q 180 784 193 818 q 168 758 175 770 q 149 708 153 730 q 133 686 145 686 q 126 692 128 686 q 124 711 124 697 l 123 727 q 120 748 122 744 q 113 754 117 752 q 102 764 104 758 q 99 781 99 770 q 117 847 99 820 q 148 884 127 861 q 183 919 168 906 q 214 939 204 934 q 222 943 219 941 l 355 945 q 362 943 358 943 q 377 937 366 942 q 424 907 401 928 q 477 812 465 868 q 481 775 480 797 q 441 620 481 692 q 427 585 427 594 q 429 579 427 581 q 435 576 431 578 q 485 530 460 562 q 505 490 494 517 q 519 437 515 462 q 520 379 520 432 q 516 248 520 315 q 511 210 514 227 q 498 167 507 193 q 484 128 491 143 q 416 45 470 96 q 396 27 401 31 q 369 15 391 23 q 340 9 353 9 q 288 9 331 9 q 265 5 271 7 q 201 -1 247 -1 m 121 567 q 113 570 117 567 q 110 580 110 574 q 112 595 110 586 l 114 604 q 113 608 114 606 q 109 616 109 611 q 116 627 109 624 q 122 629 119 629 q 144 614 131 629 q 145 609 145 612 l 144 602 q 132 572 142 582 q 121 567 127 567 m 222 943 q 298 951 233 951 q 355 945 342 949 l 222 943 z "},"4":{"ha":566,"x_min":28,"x_max":538,"o":"m 456 18 q 421 40 438 18 q 400 77 407 57 q 396 113 396 91 q 397 160 396 128 q 396 171 397 166 q 393 182 395 176 q 380 246 384 206 q 379 265 379 255 l 380 271 q 379 272 380 272 q 370 236 373 269 q 364 205 366 209 q 362 189 362 195 q 351 172 362 172 q 340 184 340 172 l 341 200 q 344 245 344 216 q 344 271 344 257 q 345 293 345 284 l 347 314 q 325 309 343 314 q 273 304 306 304 q 215 302 244 304 q 174 298 185 300 q 134 296 162 296 l 117 300 q 94 309 111 300 q 86 312 89 311 q 78 318 83 315 q 69 323 74 321 q 28 380 29 351 q 32 404 28 395 q 44 426 35 413 q 73 469 54 438 l 80 479 q 84 488 84 487 q 85 490 85 489 l 88 498 q 112 557 96 522 l 124 580 l 131 598 l 142 619 l 149 631 q 165 664 159 647 q 189 705 175 687 q 233 755 203 724 q 282 807 267 789 q 333 890 302 834 q 357 928 347 917 q 390 943 371 943 q 415 935 401 943 q 434 909 428 927 q 437 885 436 900 q 435 858 437 870 q 432 833 432 842 q 424 795 431 819 q 408 758 416 772 q 372 653 383 715 q 364 620 368 633 q 351 589 359 607 q 332 563 342 572 q 320 548 323 554 q 317 534 317 543 q 314 517 317 526 q 310 486 312 508 q 307 465 309 471 q 298 459 304 459 q 290 462 293 459 q 283 473 288 465 q 274 514 274 496 q 275 532 274 519 q 277 556 275 551 q 277 561 277 558 q 274 570 277 564 q 269 581 271 576 q 239 533 253 557 q 203 480 220 501 q 184 454 189 462 q 164 429 176 442 l 155 418 l 153 412 l 154 412 q 174 414 161 412 q 228 419 196 417 q 276 420 249 420 q 334 430 304 420 q 358 436 347 435 q 396 488 384 438 q 407 547 401 506 l 412 572 q 416 603 415 580 q 425 651 419 622 q 468 766 439 728 q 500 784 483 784 q 517 780 505 784 q 538 724 536 773 q 537 673 538 701 q 534 627 536 646 q 532 602 533 614 q 532 582 532 589 q 531 567 532 575 q 530 552 530 558 q 528 528 529 547 q 527 486 527 509 q 525 372 526 413 q 523 309 524 330 q 519 271 522 287 q 514 240 517 256 q 520 169 520 186 q 498 68 520 124 q 491 54 494 61 q 487 42 488 46 q 456 18 477 18 z "},"5":{"ha":514,"x_min":33,"x_max":487,"o":"m 267 -30 q 222 -29 236 -30 q 186 -24 212 -28 q 159 -22 174 -23 l 130 -19 q 80 16 100 -15 q 61 39 70 30 q 33 108 33 72 q 40 144 33 130 q 56 163 44 151 q 77 180 71 178 q 93 175 86 180 q 99 163 99 170 q 113 148 99 161 q 131 128 125 138 l 145 112 q 173 100 153 104 q 205 95 193 95 q 241 101 220 95 q 285 109 278 109 q 290 109 288 109 q 293 108 292 108 q 295 111 295 108 q 301 119 295 114 q 313 125 307 123 q 326 124 323 125 q 330 123 328 123 q 336 132 332 123 q 345 171 345 151 q 347 195 345 181 l 348 216 l 349 285 q 338 289 340 286 q 334 314 336 291 q 334 376 334 326 q 333 391 333 386 q 332 399 332 397 q 323 412 331 401 q 313 426 318 418 q 292 448 296 448 l 291 448 q 251 444 290 447 q 210 442 226 442 q 178 448 195 442 q 161 455 166 452 q 158 457 159 456 q 156 457 157 457 l 156 456 q 155 448 155 456 q 153 429 154 439 q 152 407 153 414 q 148 397 151 399 q 141 395 146 395 q 129 404 134 395 q 124 427 124 413 q 123 443 124 434 q 115 467 117 464 q 87 494 96 481 q 73 540 73 513 q 77 567 73 550 q 82 610 81 592 q 98 711 87 667 q 105 754 101 726 q 115 806 108 787 q 117 822 117 814 q 117 828 117 825 q 123 856 117 839 q 141 886 130 873 q 180 910 159 903 q 203 918 201 918 q 231 924 219 922 q 286 928 256 925 q 332 931 311 931 q 347 930 338 930 l 355 929 q 376 926 366 926 q 396 928 386 926 q 423 929 410 929 q 448 924 437 929 q 452 921 450 922 q 465 911 458 918 q 481 890 474 902 q 487 870 487 880 q 481 845 487 855 q 462 826 476 835 l 453 821 q 447 807 448 816 q 430 775 442 785 q 414 740 419 768 l 411 728 q 401 717 407 717 q 393 720 395 717 q 391 726 391 723 l 391 737 q 394 757 394 749 q 393 766 394 760 q 387 779 393 771 q 377 809 377 793 q 376 825 377 825 q 370 823 374 825 q 360 821 366 822 q 333 812 347 815 q 313 805 319 810 q 290 793 307 800 q 273 783 278 787 q 254 745 259 771 q 250 719 250 730 q 245 698 250 708 q 236 661 236 677 q 234 642 236 656 q 227 578 229 610 l 226 561 q 235 559 227 559 l 241 559 q 340 570 302 564 q 373 573 357 573 q 463 524 437 573 q 474 498 469 513 q 480 473 479 482 q 481 449 480 463 q 479 394 481 412 q 477 346 477 363 l 477 332 q 473 292 477 321 q 469 264 469 274 l 469 241 l 469 222 q 466 192 469 210 l 464 172 q 433 59 459 112 q 418 35 428 46 l 401 19 q 362 -13 378 -5 q 337 -24 347 -21 q 267 -30 321 -30 z "},"6":{"ha":549,"x_min":27,"x_max":521,"o":"m 286 -24 q 254 -22 271 -24 l 216 -19 q 182 -14 201 -19 q 146 -1 162 -9 q 109 27 130 7 q 76 67 88 47 q 54 118 64 88 q 33 202 44 148 q 29 221 30 214 q 27 238 28 229 q 27 265 27 248 q 31 337 27 299 q 40 400 35 374 q 74 516 50 443 q 115 631 98 590 q 135 678 129 661 q 146 715 141 695 q 166 775 155 756 q 186 806 174 787 q 211 842 199 825 q 227 865 222 859 q 274 899 246 885 q 329 917 301 913 l 336 917 q 378 907 357 917 q 416 859 416 890 q 409 834 416 846 q 402 815 405 829 q 390 782 399 802 q 378 754 380 763 l 371 694 q 367 644 369 680 q 364 611 366 620 q 355 603 362 603 q 347 606 349 603 q 345 626 345 610 q 345 684 345 634 l 342 761 q 338 791 342 774 q 334 797 336 797 q 283 723 326 797 q 275 705 277 713 q 270 685 273 698 q 232 574 258 631 q 212 522 222 551 q 201 490 206 504 q 197 475 197 477 l 214 490 q 274 524 241 515 q 301 533 292 528 q 342 542 318 542 q 427 515 385 542 q 454 496 444 506 q 501 419 476 473 q 518 375 515 389 q 521 307 521 364 l 520 266 q 507 159 519 199 q 484 101 500 134 q 456 53 469 69 q 427 26 444 37 q 388 5 414 18 q 345 -12 361 -7 l 334 -15 q 286 -24 310 -24 m 278 105 q 305 111 286 105 q 342 123 322 115 l 363 130 l 371 146 q 391 201 386 177 q 393 230 392 208 q 397 323 397 284 l 397 349 q 387 370 391 360 q 378 389 382 380 q 371 400 374 397 q 364 407 369 403 q 355 413 359 410 q 347 416 350 416 q 341 409 345 416 q 334 395 337 403 q 330 382 330 387 q 325 373 330 378 q 316 368 321 368 q 308 371 312 368 q 302 379 304 374 q 305 393 302 384 q 309 404 309 401 q 307 405 309 405 q 295 402 303 405 q 272 389 290 400 q 264 369 268 379 q 254 347 260 359 l 235 304 q 223 255 227 288 q 219 214 220 233 q 214 186 218 190 q 207 184 212 184 q 190 202 195 184 q 182 271 185 220 l 180 289 q 176 306 180 294 l 169 301 q 160 296 163 296 q 157 273 157 296 q 161 223 157 243 q 178 155 171 176 q 205 116 188 126 q 243 109 213 111 q 270 106 266 107 q 278 105 274 105 z "},"7":{"ha":554,"x_min":33,"x_max":526,"o":"m 238 10 l 234 10 q 194 35 208 10 q 189 56 189 43 q 215 145 189 87 q 236 205 229 178 q 274 313 248 255 q 277 323 277 321 q 274 328 277 326 q 271 335 271 330 q 275 351 271 338 q 286 398 281 386 q 304 473 294 417 l 304 477 q 313 534 310 516 q 329 587 319 562 l 330 588 q 358 667 349 633 q 368 701 361 681 q 389 770 380 730 q 393 795 393 784 q 384 825 393 813 q 377 839 378 832 q 371 848 376 846 q 349 850 366 850 q 333 848 338 850 q 323 837 328 846 q 313 808 319 828 q 305 790 308 795 q 299 784 302 785 q 294 782 296 782 q 284 787 293 782 l 287 848 q 217 846 238 848 q 198 845 209 846 q 178 845 187 845 l 162 846 q 154 845 155 846 q 143 828 149 841 q 134 806 136 816 q 127 783 132 800 q 121 763 123 774 q 111 733 118 751 q 99 690 104 718 l 94 662 q 92 657 94 659 q 82 655 89 655 l 78 656 q 64 731 73 659 q 54 781 60 760 q 47 829 47 806 q 48 842 47 838 q 50 848 50 846 q 48 852 50 850 q 44 857 47 854 q 33 883 33 868 l 33 885 q 107 947 33 922 q 119 951 115 949 l 131 954 q 157 959 142 956 q 210 964 184 960 q 248 968 234 968 l 286 966 q 340 964 331 964 q 406 960 391 962 l 426 954 l 460 943 q 516 873 503 922 q 524 826 520 855 q 526 793 526 806 q 525 781 526 787 q 494 667 521 727 q 472 587 481 638 q 434 420 461 527 q 414 335 417 352 q 391 260 410 307 q 358 167 370 210 q 342 122 351 140 q 317 79 333 104 q 238 10 273 14 z "},"8":{"ha":526,"x_min":28,"x_max":498,"o":"m 232 1 q 211 4 221 1 q 193 7 201 7 q 116 33 156 8 q 58 91 75 58 q 43 132 52 106 q 28 214 28 179 q 34 269 28 239 q 41 322 40 298 q 54 415 45 380 q 79 478 62 450 l 87 492 l 79 500 q 68 518 70 511 q 66 551 66 525 q 67 594 66 582 q 68 615 68 602 q 60 650 67 621 q 36 781 37 720 q 56 865 36 836 q 61 875 58 870 q 70 892 64 880 q 88 920 76 906 q 120 940 104 936 q 133 941 125 941 q 146 942 141 941 q 161 950 152 943 q 186 966 174 960 q 204 975 203 974 q 207 977 206 977 l 208 977 q 207 978 208 978 l 214 981 l 216 981 q 248 991 237 989 q 292 994 266 994 q 312 992 301 994 q 349 981 322 991 l 362 974 l 373 968 q 409 948 396 957 q 437 925 422 939 q 457 902 451 911 q 473 869 464 892 q 494 801 489 831 q 498 765 498 783 q 494 730 498 747 q 481 659 486 690 l 479 642 q 465 600 475 627 q 453 567 460 589 l 449 557 q 437 531 439 538 q 432 509 432 517 q 433 503 432 505 q 437 496 434 500 q 450 462 446 484 q 458 399 455 441 q 460 355 460 375 q 450 277 460 324 q 425 177 441 237 q 423 168 423 172 q 426 158 423 165 q 429 143 429 151 q 378 75 429 104 q 349 54 357 62 q 324 33 333 39 l 313 26 q 232 1 267 1 m 242 126 q 248 128 244 126 q 278 152 264 135 q 297 180 290 165 q 325 282 309 201 q 335 347 334 326 l 334 376 q 333 394 334 387 q 332 406 333 401 q 328 413 331 410 q 298 455 323 418 q 286 470 290 468 q 279 472 282 472 q 275 469 276 472 q 261 408 263 442 q 256 381 260 391 q 253 351 253 371 q 251 331 253 336 q 243 326 248 326 l 239 326 q 233 329 235 326 q 228 385 228 335 q 225 448 228 435 q 220 490 222 460 q 204 465 210 477 q 178 410 186 430 q 167 323 171 385 q 159 241 165 273 q 156 212 156 226 q 157 193 156 202 q 189 156 160 180 q 207 144 196 151 q 229 132 218 137 q 242 126 239 127 m 345 582 q 352 608 349 601 q 357 621 355 615 q 362 633 361 628 q 363 647 363 638 q 368 680 363 661 q 371 696 370 687 q 374 710 373 705 l 374 711 q 380 749 378 737 q 382 768 382 762 l 380 781 q 380 782 380 781 q 376 800 379 789 q 362 838 368 827 q 353 848 359 843 q 325 863 338 863 q 309 854 319 863 q 294 836 298 844 q 281 786 284 821 q 270 723 275 731 q 260 718 266 718 q 252 730 252 718 q 254 766 252 744 q 256 816 256 802 q 262 869 256 831 l 263 878 l 262 878 q 250 875 259 878 q 225 869 231 870 q 181 849 205 865 q 149 820 157 834 q 144 802 144 813 q 145 790 144 799 q 153 753 145 781 q 172 704 161 722 q 199 675 182 686 l 220 660 q 289 618 250 635 q 313 607 302 613 q 345 582 323 600 z "},"9":{"ha":519,"x_min":28,"x_max":490,"o":"m 267 -16 q 218 3 241 -16 l 208 9 q 177 19 200 14 q 134 34 144 31 q 77 91 87 47 q 77 103 77 96 q 83 149 77 129 q 93 201 89 168 q 100 238 96 228 q 113 248 104 248 q 131 230 125 248 q 138 204 134 217 q 152 183 146 183 q 157 184 154 183 q 163 186 160 186 q 180 172 170 186 q 191 149 186 161 q 201 130 195 136 q 221 119 208 123 q 242 109 239 112 q 250 106 245 106 q 269 114 252 106 q 294 124 286 122 q 310 135 302 127 q 325 155 319 144 q 337 174 331 165 q 349 198 345 184 q 353 241 352 212 q 357 299 355 284 q 360 337 359 311 q 361 515 361 363 l 353 507 q 315 478 338 492 q 271 459 291 465 q 195 453 252 453 q 140 465 171 453 q 106 480 118 473 q 45 567 72 505 q 31 610 35 593 q 28 642 28 625 q 108 867 28 738 q 202 953 142 921 q 261 975 233 968 q 327 979 284 979 q 352 978 341 979 q 389 970 368 975 q 460 906 460 949 q 460 897 460 901 q 470 881 460 893 q 488 845 484 863 q 490 823 490 836 q 488 800 490 812 q 479 659 479 713 q 481 606 479 616 q 490 498 490 570 l 489 455 q 481 266 486 298 q 479 229 479 250 q 472 165 477 190 q 441 96 463 131 q 402 44 419 62 q 370 16 385 26 q 326 -3 354 6 q 267 -16 283 -16 m 226 583 q 245 584 239 584 q 256 586 252 585 q 265 591 260 588 q 276 596 271 593 q 284 600 281 599 q 292 604 288 601 q 301 609 296 606 q 312 616 305 612 q 326 623 319 620 q 338 631 332 627 q 347 638 344 635 q 350 644 349 642 q 351 648 351 646 q 345 672 351 653 q 336 719 336 699 q 332 734 336 733 l 326 737 q 325 732 325 737 q 321 721 325 726 q 315 715 318 715 q 304 734 304 715 q 307 758 304 743 q 308 774 308 768 q 307 782 308 779 q 307 788 307 785 l 307 789 q 308 801 307 793 q 308 817 308 809 q 306 825 307 824 q 303 827 305 826 q 297 829 300 828 q 292 829 293 829 q 290 826 290 829 q 286 819 290 823 q 269 730 279 810 q 256 711 265 711 q 250 714 254 711 q 247 722 247 717 q 246 764 246 728 q 247 812 246 810 l 248 814 q 241 816 248 816 q 233 817 234 816 q 231 818 232 818 q 210 791 225 818 q 171 708 185 747 q 155 648 156 669 q 160 628 155 642 q 170 602 164 614 q 186 586 176 589 q 217 583 196 583 l 226 583 z "}," ":{"ha":345,"x_min":0,"x_max":0,"o":""}," ":{"ha":345,"x_min":0,"x_max":0,"o":""},"!":{"ha":227,"x_min":31,"x_max":199,"o":"m 90 92 q 67 95 76 92 q 47 109 58 98 q 31 147 31 124 q 35 171 31 158 q 85 225 50 224 q 103 220 94 225 q 116 208 111 216 q 129 196 121 201 q 156 147 156 176 q 149 123 156 138 q 90 92 134 92 m 113 278 l 106 278 q 96 281 102 278 q 83 301 86 287 q 73 326 81 307 q 59 366 62 350 q 56 412 56 381 q 59 484 56 451 q 62 517 61 498 q 65 567 65 549 q 62 631 65 597 q 58 657 60 657 l 58 654 q 52 590 55 602 q 46 584 50 584 l 39 585 l 39 646 q 43 727 39 708 q 48 819 46 746 q 50 887 49 863 q 62 944 52 928 q 113 973 81 973 q 162 943 144 972 q 173 904 170 931 q 178 820 176 878 q 190 694 180 755 q 199 577 199 636 l 199 557 q 198 519 199 533 q 196 490 198 505 q 191 452 194 476 q 175 368 182 394 q 151 317 167 342 q 135 291 141 299 q 124 280 129 283 q 113 278 119 278 z "},"\"":{"ha":288,"x_min":31,"x_max":256,"o":"m 58 850 q 39 858 46 850 q 31 872 31 866 q 39 917 31 884 q 58 984 47 949 q 76 1029 69 1019 q 104 1042 87 1042 q 128 1033 117 1042 q 142 999 142 1022 q 113 907 142 968 q 91 869 100 881 q 58 850 75 850 m 172 850 q 153 858 160 850 q 145 872 145 866 q 153 917 145 884 q 172 984 161 949 q 190 1029 183 1019 q 218 1042 201 1042 q 242 1033 231 1042 q 256 999 256 1022 q 227 907 256 968 q 205 869 214 881 q 172 850 189 850 z "},"#":{"ha":993,"x_min":29,"x_max":954,"o":"m 352 38 q 333 41 342 38 q 295 96 295 56 l 295 100 q 326 163 296 115 q 363 234 363 229 q 330 256 363 237 q 231 329 274 291 q 227 331 229 331 q 222 325 225 331 q 218 307 219 319 q 209 248 215 283 q 201 198 201 205 q 198 185 201 191 q 194 178 195 179 q 189 176 192 176 q 186 178 187 177 q 186 180 186 179 l 187 224 q 189 264 187 258 l 191 268 l 190 268 q 172 236 189 268 q 141 189 154 204 q 115 168 129 174 q 87 161 100 161 q 62 167 78 161 q 35 195 46 172 q 29 221 29 206 q 35 255 29 237 q 89 366 51 298 q 119 425 106 397 l 113 431 q 79 478 89 460 q 72 488 73 488 q 67 480 71 488 q 62 461 64 472 q 58 443 59 450 q 56 433 58 435 q 52 431 54 431 q 47 433 50 431 q 45 456 45 435 q 46 476 45 469 q 60 513 47 482 l 56 522 q 46 566 46 547 q 57 599 46 586 q 69 609 62 606 q 89 614 75 612 q 104 616 98 616 q 110 616 106 616 q 119 610 114 615 q 124 595 124 604 l 123 587 q 176 528 123 583 l 185 545 q 235 625 218 604 q 263 665 247 644 q 277 688 277 685 l 277 689 q 270 695 277 690 q 253 710 263 701 q 231 729 243 718 q 210 748 219 740 q 194 762 200 756 q 187 767 188 767 q 182 734 185 764 l 177 696 q 170 686 175 686 q 165 690 168 686 q 163 722 163 694 q 166 761 163 748 q 169 781 169 773 q 164 788 169 785 q 144 797 159 791 q 112 834 112 808 q 117 850 112 842 q 172 871 130 871 q 197 869 185 871 q 290 819 222 863 l 334 790 q 339 795 335 790 q 383 855 358 824 q 427 909 408 886 q 485 945 458 945 q 522 928 505 945 q 536 891 536 913 q 528 860 536 878 q 497 806 521 842 q 446 725 458 745 l 441 717 q 491 673 469 694 q 605 585 544 625 q 661 662 623 606 q 739 769 702 723 l 786 830 q 826 879 812 863 q 845 908 840 895 q 875 934 854 934 q 892 927 883 934 q 911 869 911 915 q 910 846 911 856 q 889 788 908 831 q 878 754 878 763 l 878 751 q 862 657 878 734 q 856 627 859 644 q 851 600 853 611 q 838 541 845 559 q 831 536 836 536 q 828 537 829 536 q 827 541 827 539 q 830 556 827 544 q 834 631 833 568 l 836 688 l 835 693 q 781 608 833 692 q 756 569 768 588 q 739 541 745 550 q 724 519 724 519 q 743 505 724 516 q 846 458 795 475 q 895 431 878 447 q 924 386 913 414 q 933 365 929 372 q 943 353 937 359 q 954 329 954 341 q 951 317 954 323 q 920 300 943 300 q 887 310 905 300 q 854 333 873 317 q 841 343 844 343 q 826 345 838 343 l 784 352 q 682 391 736 364 l 644 410 q 622 382 642 410 q 591 337 598 349 q 564 296 580 319 q 553 279 553 281 q 614 242 553 277 q 657 211 640 228 q 690 167 674 194 q 713 133 699 150 q 720 122 718 126 q 723 108 723 117 q 720 93 723 98 q 710 82 717 87 q 694 77 703 77 q 674 81 688 77 q 623 106 660 85 q 590 122 611 113 q 534 145 538 142 q 498 164 524 149 q 486 169 488 169 q 473 149 484 169 q 374 41 422 55 q 352 38 363 38 m 430 347 l 443 362 q 473 408 461 389 q 523 477 495 442 l 523 478 q 504 495 523 481 q 431 555 469 522 q 419 567 424 562 q 413 571 414 571 l 403 526 q 394 489 397 503 q 389 468 391 475 q 385 459 387 461 q 380 458 382 458 q 377 459 377 458 q 377 461 377 460 l 380 504 q 383 533 381 522 q 395 589 385 545 q 381 602 383 602 q 380 601 380 602 q 371 587 380 600 q 351 556 363 574 q 326 517 338 538 q 306 481 313 496 q 292 456 298 466 q 287 445 287 446 q 313 423 287 444 q 352 395 339 403 q 397 366 361 388 q 430 347 427 347 z "},"$":{"ha":526,"x_min":28,"x_max":498,"o":"m 255 -78 l 250 -77 q 209 10 220 -73 q 204 39 206 38 q 199 42 203 41 q 190 47 195 44 q 122 94 160 60 q 59 166 85 128 l 50 179 l 48 119 q 49 105 48 109 q 50 98 50 101 q 45 92 50 92 q 38 99 41 92 q 32 129 34 106 q 28 201 30 151 l 28 240 q 28 271 28 256 q 33 296 29 286 q 62 320 41 320 q 81 313 71 320 q 89 303 86 309 q 93 283 91 296 q 104 244 95 261 q 136 206 114 228 q 156 188 144 198 q 176 172 168 178 q 187 166 185 166 l 188 166 l 186 178 q 180 279 180 215 q 183 375 180 326 q 186 442 186 416 l 163 456 q 97 512 119 485 q 77 544 87 525 q 64 577 67 563 q 59 618 59 597 q 79 719 59 659 q 146 831 98 780 q 182 863 164 850 q 238 891 200 875 q 244 917 243 912 q 245 920 245 918 q 247 926 245 922 q 248 932 248 929 q 291 1027 269 1015 q 299 1032 296 1031 q 310 1033 303 1033 q 340 1014 331 1033 q 345 996 345 1006 q 344 955 345 965 q 342 935 344 944 l 342 929 q 340 909 340 921 q 342 904 340 906 q 353 900 345 902 q 427 829 416 882 q 429 816 429 822 q 420 782 429 799 q 397 755 412 766 q 372 744 382 744 q 360 749 364 744 q 352 765 357 753 q 345 780 348 776 q 334 783 341 783 l 328 783 q 309 536 319 706 l 308 524 l 331 508 q 439 414 407 458 q 495 281 481 356 q 498 231 498 263 q 496 203 498 214 q 350 41 473 94 q 292 28 316 28 l 281 28 l 280 -14 q 280 -27 280 -22 q 282 -37 281 -32 q 283 -47 283 -43 q 274 -70 283 -61 q 255 -78 266 -78 m 199 598 l 199 598 q 201 612 199 599 q 204 644 202 625 q 207 676 206 663 q 208 689 208 688 q 200 668 206 689 q 191 620 191 633 q 195 602 191 608 q 199 598 197 598 m 290 153 q 302 157 293 153 q 338 179 321 165 q 366 214 361 199 q 368 239 368 220 q 362 277 368 262 q 331 338 349 317 l 319 350 q 303 363 307 363 q 298 290 302 359 q 288 159 293 193 l 287 155 q 290 153 287 153 z "},"%":{"ha":633,"x_min":27,"x_max":605,"o":"m 229 740 l 222 740 q 185 753 199 740 q 161 810 161 773 q 190 894 161 861 l 197 901 l 199 903 l 198 903 q 206 909 201 905 q 214 910 212 909 q 224 912 220 912 q 232 911 227 912 q 234 910 233 910 l 252 895 q 262 886 256 890 q 285 867 273 880 q 302 845 297 854 q 307 821 307 835 q 305 807 307 812 q 300 794 304 802 q 280 767 293 780 q 257 747 268 753 q 229 740 245 741 m 56 50 q 37 58 45 50 q 30 68 32 62 q 27 92 27 75 q 28 106 27 100 q 39 144 29 115 l 41 149 q 58 192 51 179 q 95 258 66 208 q 195 431 116 296 q 342 671 267 553 q 406 773 370 713 q 449 841 433 816 q 492 902 462 861 q 492 903 492 903 l 493 904 q 505 916 494 905 q 549 935 524 935 q 570 931 561 935 q 595 912 579 928 l 602 899 q 605 876 605 888 q 600 851 604 862 q 598 831 598 843 q 583 691 598 811 q 561 603 577 647 q 551 589 555 589 q 547 593 547 589 q 548 603 547 596 q 550 629 549 610 q 552 672 551 648 q 553 716 552 696 q 554 745 553 736 q 556 758 555 753 q 556 764 556 763 q 551 756 555 764 q 530 718 543 741 q 521 684 526 707 q 515 640 517 661 q 506 551 513 582 l 502 515 q 498 494 502 494 q 495 496 496 494 q 492 542 492 500 q 495 606 495 578 q 493 652 495 621 l 447 578 q 350 420 400 505 q 249 260 281 307 q 231 233 241 248 q 213 204 220 217 q 196 179 205 192 q 182 158 187 166 q 153 123 170 140 q 124 100 136 106 q 90 73 111 93 q 66 52 74 57 q 56 50 61 50 m 489 60 q 477 60 482 60 q 439 76 458 61 q 399 159 399 104 q 406 205 399 180 q 457 283 421 262 q 479 288 468 288 q 491 288 482 288 q 510 279 500 288 q 522 274 519 274 q 529 273 524 274 q 578 220 565 260 q 585 180 585 201 q 536 79 585 117 q 513 64 524 68 q 489 60 503 60 m 493 149 q 496 152 494 149 q 505 173 505 163 q 500 186 505 180 l 497 191 q 492 153 492 178 q 493 149 492 149 z "},"&":{"ha":682,"x_min":28,"x_max":655,"o":"m 162 88 q 94 104 117 88 q 53 155 71 119 q 31 219 36 186 q 28 267 28 236 q 31 296 28 284 q 59 376 36 329 q 108 459 81 423 q 188 547 142 502 q 172 571 180 559 q 157 591 163 582 q 149 604 151 600 q 145 608 146 608 q 139 599 144 608 q 134 577 134 590 q 127 561 132 561 q 124 563 126 561 q 119 583 119 570 q 125 623 119 599 q 129 650 129 636 q 125 682 129 663 q 120 726 120 714 q 121 746 120 737 q 171 866 125 788 q 202 910 186 894 q 245 940 219 926 l 254 945 q 252 948 252 947 q 260 952 252 950 q 281 957 269 954 q 287 958 283 957 q 294 960 291 960 q 360 969 325 969 q 406 959 384 969 q 420 954 414 956 l 427 950 l 422 950 q 430 944 426 947 q 435 939 434 940 l 437 939 q 439 941 438 939 l 443 938 q 449 926 443 933 q 481 872 472 899 l 484 846 q 487 778 487 819 q 478 692 486 737 q 475 679 477 685 q 471 669 473 673 q 454 630 465 649 l 446 618 l 428 591 l 400 553 l 366 513 l 397 479 l 436 431 l 448 417 l 452 414 q 468 427 455 414 q 484 441 481 439 q 493 448 489 446 l 493 449 l 508 460 q 605 516 551 496 l 617 521 q 633 526 629 526 q 642 523 636 526 q 651 515 647 521 q 655 503 655 509 q 651 487 655 497 q 641 467 647 476 q 635 457 637 463 q 626 422 631 446 q 619 382 619 387 q 617 371 619 376 q 608 361 613 361 q 605 366 605 361 q 606 371 605 368 q 607 385 607 375 l 605 427 q 593 414 595 417 q 590 399 591 412 q 583 380 589 380 q 578 394 578 380 l 578 403 q 565 392 571 397 q 549 377 558 386 q 530 360 539 369 q 512 342 522 352 q 565 273 547 302 q 583 231 583 244 q 572 212 583 218 q 560 210 567 210 q 541 213 553 210 q 498 235 528 216 q 490 242 494 239 q 477 251 485 245 q 458 262 460 262 q 452 225 456 262 q 446 185 450 185 l 443 186 q 441 179 441 186 l 439 175 q 438 176 439 175 q 436 215 437 204 q 433 262 433 235 q 418 249 425 256 q 399 233 410 242 q 379 216 389 224 q 357 198 369 208 q 335 179 345 187 q 317 162 326 170 q 301 149 307 153 q 274 131 292 142 q 239 110 256 119 q 215 97 222 100 q 162 88 191 88 m 283 631 q 288 636 283 631 q 300 650 293 642 q 336 704 324 681 q 356 796 356 745 l 355 814 q 353 830 355 830 q 350 816 352 830 l 345 791 q 334 758 338 760 q 327 755 330 755 q 325 767 325 757 q 326 785 325 773 q 327 809 326 798 q 328 825 328 820 q 329 834 329 829 l 320 831 q 309 826 311 828 q 306 816 308 824 q 299 781 300 793 q 292 743 296 758 q 287 707 287 712 q 281 693 287 693 q 274 700 277 693 q 271 743 271 707 l 270 779 l 260 759 q 250 724 250 739 q 252 698 250 714 q 266 655 256 671 q 283 631 280 631 m 174 201 q 182 203 176 201 q 207 216 187 205 q 239 235 227 227 q 268 258 251 243 q 289 275 275 264 q 316 296 302 286 q 342 316 330 307 q 360 330 355 326 l 372 340 q 314 401 330 385 q 276 436 298 417 l 276 429 q 265 340 271 371 q 259 303 261 322 q 256 284 258 288 q 251 279 254 279 q 244 285 247 279 q 241 330 241 290 q 243 390 241 386 l 243 396 q 242 401 243 401 q 230 389 240 401 q 227 385 229 387 q 182 313 203 357 q 166 274 170 288 q 163 254 163 264 q 166 223 163 234 q 174 201 170 201 m 436 431 l 435 435 l 436 437 l 436 431 z "},"'":{"ha":174,"x_min":31,"x_max":142,"o":"m 58 850 q 39 858 46 850 q 31 872 31 866 q 39 917 31 884 q 58 984 47 949 q 76 1029 69 1019 q 104 1042 87 1042 q 128 1033 117 1042 q 142 999 142 1022 q 113 907 142 968 q 91 869 100 881 q 58 850 75 850 z "},"(":{"ha":522,"x_min":27,"x_max":494,"o":"m 349 -65 q 298 -43 323 -65 l 290 -35 l 279 -24 q 254 6 269 -11 q 223 27 243 16 q 188 52 203 39 q 152 90 172 66 q 95 162 114 133 q 66 222 77 192 q 52 260 60 243 q 32 341 39 290 q 28 372 28 357 q 27 417 27 387 q 31 497 27 465 l 37 566 q 98 780 43 667 q 165 884 125 836 q 248 960 206 933 q 278 978 260 968 q 291 985 286 982 l 336 1006 q 378 1023 364 1019 q 408 1027 393 1027 q 479 1001 454 1027 l 484 997 l 486 994 q 490 985 488 989 l 491 982 q 494 964 494 975 q 486 935 493 947 l 465 910 q 443 878 450 892 q 434 847 438 869 q 430 800 431 824 q 424 732 429 744 q 418 729 422 729 q 411 737 412 729 l 410 743 q 404 784 410 755 q 399 825 399 822 q 404 855 399 830 q 409 874 408 867 q 410 884 410 880 q 408 889 409 887 q 405 892 406 892 q 376 878 401 892 q 326 848 342 859 q 294 821 309 836 l 275 801 q 267 755 271 772 q 252 685 255 713 q 248 604 248 657 l 248 546 l 229 472 q 226 448 226 457 q 223 437 226 437 q 218 448 218 437 q 222 479 218 464 q 231 541 231 517 q 229 572 231 556 q 219 665 219 635 q 221 696 219 678 q 227 724 224 714 l 227 726 q 220 714 226 726 l 213 696 q 175 554 180 627 q 170 488 174 534 q 167 421 167 453 q 181 315 167 346 q 195 277 186 305 q 215 233 203 252 q 254 180 227 214 q 295 139 279 150 q 344 88 328 115 q 367 18 360 60 l 371 -7 q 378 -8 374 -7 q 388 -14 382 -9 q 396 -26 394 -19 q 397 -30 397 -28 q 394 -39 397 -33 q 380 -56 389 -50 q 349 -65 367 -65 z "},")":{"ha":522,"x_min":28,"x_max":494,"o":"m 173 -65 q 142 -56 155 -65 q 127 -39 132 -50 q 125 -30 125 -33 q 125 -26 125 -28 q 133 -14 127 -20 q 144 -7 138 -9 l 151 -7 l 155 18 q 178 88 161 60 q 227 139 194 115 q 267 180 245 153 q 306 233 294 214 q 326 277 318 252 q 340 315 336 305 q 355 421 355 346 q 352 488 355 453 l 346 554 q 317 677 342 616 q 301 714 304 706 q 296 724 297 722 q 294 726 295 726 l 294 724 q 300 696 298 714 q 302 665 302 678 q 293 572 302 635 q 290 543 290 557 q 291 523 290 536 q 300 479 292 509 q 303 449 303 464 q 298 437 303 437 q 296 448 296 437 q 295 460 296 452 q 287 491 294 467 l 273 546 l 273 604 q 270 685 273 657 q 255 755 267 713 l 251 772 q 246 801 250 778 l 227 821 q 195 848 212 836 q 146 878 179 859 q 117 892 121 892 q 114 889 115 892 q 112 881 112 887 q 117 855 112 876 q 123 825 123 830 q 117 784 123 822 q 111 743 111 752 q 103 729 111 729 q 97 732 99 729 q 92 800 93 747 q 86 847 90 824 q 79 878 83 869 l 70 892 q 43 925 54 913 q 36 935 39 930 q 28 964 28 947 q 31 985 28 971 l 38 997 l 42 1001 q 113 1027 68 1027 q 143 1023 129 1027 q 185 1006 157 1019 l 231 985 q 243 978 235 982 q 356 884 303 947 q 423 780 396 836 q 485 566 479 667 q 488 530 486 549 q 491 497 489 511 q 494 417 494 465 q 490 341 494 370 q 469 260 482 290 q 454 222 460 243 q 426 162 445 192 q 369 90 407 133 q 334 52 349 66 q 298 27 318 39 q 268 6 278 16 q 254 -9 260 -1 q 238 -28 242 -24 q 232 -35 235 -33 q 229 -38 230 -38 l 224 -43 q 173 -65 198 -65 z "},"*":{"ha":400,"x_min":27,"x_max":372,"o":"m 222 521 q 191 541 207 521 q 171 578 178 555 q 161 611 161 605 l 161 612 q 157 618 161 618 q 148 613 154 618 q 85 589 114 589 q 38 616 54 589 q 35 632 35 624 q 46 667 35 656 l 102 730 q 111 741 111 741 q 99 758 111 743 q 62 828 81 783 q 46 857 52 853 q 39 869 43 861 q 27 893 30 884 q 42 923 28 911 q 77 935 56 935 q 132 907 104 935 l 145 895 q 153 937 147 924 q 177 953 159 953 q 197 942 189 953 q 210 880 205 928 q 213 857 212 858 l 219 863 q 283 936 270 924 q 321 951 302 951 q 338 950 324 951 q 365 926 351 948 q 372 898 372 915 q 369 882 372 890 q 342 836 363 867 q 275 745 321 804 l 286 730 q 321 679 309 703 q 332 662 328 665 q 343 657 336 660 q 366 629 366 648 q 339 595 366 608 q 302 588 322 588 q 239 608 266 588 q 232 613 233 613 q 231 612 231 613 q 234 588 231 606 q 241 559 238 571 q 244 550 243 553 q 245 543 245 546 l 243 537 q 222 521 238 521 z "},"+":{"ha":688,"x_min":27,"x_max":661,"o":"m 292 486 l 290 486 q 168 487 210 485 q 95 496 125 489 l 89 497 l 88 486 q 87 473 88 481 q 85 456 87 465 q 84 439 84 446 q 86 421 84 432 q 87 403 88 408 q 83 401 87 399 q 66 434 79 400 q 64 472 64 439 l 64 504 l 52 510 q 31 534 35 519 q 39 563 27 549 q 49 572 43 569 q 69 577 56 575 q 106 581 82 579 q 140 584 122 583 q 168 587 157 585 q 250 594 202 590 q 289 597 271 595 l 289 639 q 286 734 289 711 q 287 808 280 789 q 331 843 301 840 q 380 817 361 846 q 387 804 384 810 q 391 793 389 798 q 391 790 391 791 q 392 789 392 789 l 392 788 q 393 781 392 787 q 395 766 393 774 q 401 729 399 743 q 404 696 404 715 q 404 641 404 677 l 403 601 l 454 601 q 549 604 526 601 q 623 603 604 610 q 658 558 655 589 q 631 509 661 528 q 623 504 626 507 q 619 496 621 502 q 615 478 617 490 q 608 456 612 466 q 600 447 603 447 q 597 459 591 447 q 600 472 598 463 q 603 489 602 481 q 603 498 604 496 q 596 497 602 498 q 581 495 589 496 q 544 489 557 490 q 511 487 530 487 q 456 487 492 486 l 404 487 l 404 475 q 403 353 405 395 q 394 280 401 311 l 393 273 l 386 249 l 380 237 q 356 216 370 220 q 327 224 341 212 q 318 234 321 228 q 313 254 315 241 q 309 292 311 267 q 306 325 308 307 q 303 353 304 342 q 296 435 300 387 q 292 486 294 463 z "},",":{"ha":174,"x_min":31,"x_max":142,"o":"m 58 3 q 39 11 46 3 q 31 25 31 19 q 39 70 31 37 q 58 137 47 102 q 76 182 69 172 q 104 195 87 195 q 128 186 117 195 q 142 152 142 175 q 113 60 142 121 q 91 22 100 34 q 58 3 75 3 z "},"-":{"ha":701,"x_min":34,"x_max":662,"o":"m 89 391 q 86 392 88 391 q 71 425 83 392 q 68 463 68 431 l 68 495 l 56 501 q 34 533 34 513 q 43 554 34 544 q 53 563 47 560 q 73 568 60 566 q 144 575 90 571 l 172 578 q 339 591 254 586 l 382 593 l 387 592 l 458 592 q 554 595 530 592 q 597 597 579 597 q 627 594 617 597 q 662 545 662 578 q 635 500 662 518 q 627 496 630 498 q 619 469 623 491 q 612 448 616 457 q 604 438 607 438 q 599 442 599 438 q 601 450 599 446 q 604 463 602 454 q 607 480 606 472 l 608 486 q 607 489 608 488 l 585 486 q 548 480 562 481 q 492 478 532 478 l 383 478 l 383 479 l 237 477 q 163 479 197 477 q 93 488 126 481 q 93 477 93 483 q 92 464 92 472 q 90 448 91 456 q 88 430 88 437 q 90 413 88 423 q 92 397 92 402 q 89 391 92 391 z "},"­":{"ha":701,"x_min":34,"x_max":662,"o":"m 89 391 q 86 392 88 391 q 71 425 83 392 q 68 463 68 431 l 68 495 l 56 501 q 34 533 34 513 q 43 554 34 544 q 53 563 47 560 q 73 568 60 566 q 144 575 90 571 l 172 578 q 339 591 254 586 l 382 593 l 387 592 l 458 592 q 554 595 530 592 q 597 597 579 597 q 627 594 617 597 q 662 545 662 578 q 635 500 662 518 q 627 496 630 498 q 619 469 623 491 q 612 448 616 457 q 604 438 607 438 q 599 442 599 438 q 601 450 599 446 q 604 463 602 454 q 607 480 606 472 l 608 486 q 607 489 608 488 l 585 486 q 548 480 562 481 q 492 478 532 478 l 383 478 l 383 479 l 237 477 q 163 479 197 477 q 93 488 126 481 q 93 477 93 483 q 92 464 92 472 q 90 448 91 456 q 88 430 88 437 q 90 413 88 423 q 92 397 92 402 q 89 391 92 391 z "},".":{"ha":235,"x_min":34,"x_max":205,"o":"m 99 -13 q 79 -10 89 -13 q 42 19 54 -3 q 34 52 34 34 q 54 112 34 75 q 81 149 66 135 q 132 170 102 170 q 205 115 197 170 l 205 109 q 160 16 205 63 q 99 -13 130 -13 z "},"/":{"ha":600,"x_min":33,"x_max":567,"o":"m 99 1 q 87 2 94 1 q 75 5 81 3 l 72 7 q 58 14 66 8 l 54 18 q 45 28 51 21 q 34 52 35 42 q 33 74 33 58 l 33 83 q 46 114 34 88 l 79 179 q 111 250 104 229 q 177 396 136 318 q 222 486 197 431 l 276 602 q 299 652 290 630 q 363 776 334 729 l 406 842 q 442 903 441 896 q 479 950 450 936 q 503 955 490 955 q 528 949 517 955 q 557 923 548 941 q 567 884 567 905 q 566 866 567 880 q 550 814 566 852 q 538 780 542 793 q 532 717 532 759 l 532 658 q 530 634 531 644 q 526 612 529 625 q 517 564 522 586 q 505 528 509 532 q 499 526 503 526 q 491 529 492 526 q 490 535 490 532 l 491 544 q 497 601 494 556 q 500 659 500 635 l 498 737 l 483 711 q 378 450 417 600 l 370 421 q 362 396 364 400 q 356 393 359 393 q 354 393 355 393 q 351 395 353 393 q 348 401 348 398 l 351 412 q 356 443 356 437 q 351 434 355 443 q 339 411 347 425 q 321 373 332 396 l 279 288 q 254 234 262 255 q 248 205 250 220 q 239 169 245 169 l 230 170 l 208 127 q 148 22 160 32 q 140 14 144 18 q 123 5 135 9 q 111 2 117 3 q 99 1 104 1 z "},":":{"ha":259,"x_min":35,"x_max":229,"o":"m 87 612 l 77 614 q 35 662 35 623 q 39 685 35 672 q 42 705 42 697 q 39 724 42 713 q 37 739 37 731 q 45 768 37 754 q 51 778 48 772 q 57 788 54 783 q 89 822 67 812 q 116 828 102 828 q 130 827 124 828 q 141 823 135 826 q 174 789 162 812 q 178 781 176 785 q 180 771 179 777 q 181 753 180 764 q 181 735 181 743 q 178 711 181 724 q 138 637 170 667 q 98 614 120 618 l 87 612 m 123 231 q 102 233 113 231 q 66 262 78 240 q 58 295 58 277 q 77 355 58 319 q 104 393 90 378 q 155 414 126 414 q 229 358 221 414 l 229 353 q 184 260 229 307 q 123 231 154 231 z "},";":{"ha":209,"x_min":35,"x_max":181,"o":"m 87 612 l 77 614 q 35 662 35 623 q 39 685 35 672 q 42 705 42 697 q 39 724 42 713 q 37 739 37 731 q 45 768 37 754 q 51 778 48 772 q 57 788 54 783 q 89 822 67 812 q 116 828 102 828 q 130 827 124 828 q 141 823 135 826 q 174 789 162 812 q 178 781 176 785 q 180 771 179 777 q 181 753 180 764 q 181 735 181 743 q 178 711 181 724 q 138 637 170 667 q 98 614 120 618 l 87 612 m 74 193 q 55 201 62 193 q 47 216 47 210 q 55 260 47 227 q 74 328 63 293 q 92 372 85 363 q 120 386 104 386 q 144 376 134 386 q 158 342 158 366 q 129 250 158 311 q 107 212 116 224 q 74 193 92 193 z "},"<":{"ha":615,"x_min":31,"x_max":586,"o":"m 517 162 q 502 163 509 162 q 433 212 476 168 q 395 241 412 231 q 376 253 387 245 q 356 266 366 260 q 339 278 347 273 q 316 292 330 284 q 280 312 302 300 q 236 339 257 324 q 178 380 214 353 l 106 433 q 54 476 68 461 q 35 507 39 491 q 31 532 31 519 q 47 583 31 558 q 182 692 88 642 q 227 717 213 708 q 258 740 241 726 q 324 791 275 753 q 410 863 378 832 q 442 893 431 884 q 463 907 453 902 q 480 912 473 911 q 498 912 487 912 q 521 907 509 912 q 548 878 539 897 q 553 854 553 867 q 542 818 553 833 q 517 789 534 808 l 515 769 q 507 709 514 745 q 478 601 489 616 q 470 596 473 596 q 465 602 465 596 l 465 607 q 469 637 467 613 q 481 724 472 682 q 486 751 486 746 q 485 754 486 754 q 467 740 482 754 q 405 687 452 726 q 402 608 402 625 q 397 589 402 589 q 394 589 395 589 q 392 590 393 590 q 391 591 391 591 q 390 603 391 591 q 389 633 389 615 l 388 673 q 303 607 324 621 q 238 570 279 591 q 220 559 229 565 q 195 541 195 544 q 216 525 195 539 l 241 507 q 317 452 300 463 q 365 424 336 440 q 408 400 392 410 q 441 378 423 391 q 477 354 458 365 q 498 341 490 347 q 519 321 507 334 q 553 290 541 300 q 586 229 586 265 q 580 202 586 216 q 562 178 574 188 q 517 162 540 162 z "},"=":{"ha":780,"x_min":33,"x_max":751,"o":"m 165 247 l 164 247 q 156 252 160 247 q 151 260 152 257 q 149 286 150 264 l 122 287 q 55 298 75 290 q 35 318 40 304 q 33 328 33 323 q 46 349 33 342 q 85 357 55 354 q 176 373 122 363 q 219 380 197 377 q 273 390 241 384 q 332 400 305 395 q 382 410 359 405 q 449 420 412 415 q 614 430 522 430 l 719 429 l 727 425 q 751 384 751 410 l 751 378 q 690 326 745 338 q 606 320 678 323 q 465 313 547 319 l 445 311 q 407 306 412 306 l 406 306 q 405 305 406 305 q 395 304 404 305 q 298 293 331 296 q 219 288 265 290 q 171 284 174 287 q 169 265 169 282 q 169 252 169 257 q 165 247 168 247 m 143 488 q 140 489 142 488 q 125 522 138 489 q 122 560 122 528 l 122 592 l 111 598 q 88 630 88 610 q 97 651 88 641 q 107 660 101 657 q 127 665 114 663 q 198 672 144 668 l 227 675 q 393 688 308 683 l 436 690 l 441 689 l 512 689 q 609 692 584 689 q 651 694 633 694 q 682 691 671 694 q 716 642 716 675 q 690 597 716 615 q 682 593 684 595 q 673 566 677 588 q 666 545 671 554 q 658 535 661 535 q 653 539 653 535 q 655 547 653 543 q 658 560 656 551 q 661 577 660 569 l 662 583 q 661 586 662 585 l 639 583 q 602 577 616 578 q 547 575 586 575 l 437 575 l 437 576 l 291 574 q 218 576 252 574 q 147 585 180 578 q 147 574 147 580 q 146 561 146 569 q 144 545 145 553 q 142 527 142 534 q 144 510 142 520 q 146 494 146 499 q 143 488 146 488 z "},">":{"ha":615,"x_min":30,"x_max":584,"o":"m 98 162 q 54 178 75 162 q 35 204 41 188 q 30 231 30 218 q 62 290 30 265 q 97 321 68 295 q 118 341 109 334 q 139 354 126 347 q 176 378 161 368 q 250 424 203 398 q 299 452 280 440 q 399 525 329 471 q 420 541 420 539 q 413 548 420 543 q 396 559 406 553 q 378 570 386 565 q 313 607 337 591 q 253 652 288 623 l 227 673 l 227 633 q 225 603 226 615 q 225 591 225 591 q 224 590 224 591 q 222 589 223 590 q 219 589 220 589 q 213 608 213 589 q 211 687 213 634 l 189 705 l 147 740 q 130 754 133 754 q 130 752 130 754 q 132 734 130 748 q 134 724 134 730 q 146 637 144 682 q 151 607 150 609 q 151 603 151 604 q 145 596 151 596 q 138 601 142 596 q 109 709 127 616 q 98 789 101 749 l 86 803 q 68 828 72 819 q 62 854 62 842 q 95 907 62 889 q 117 912 106 912 q 137 912 130 912 q 153 906 144 911 q 205 863 170 899 q 239 833 222 847 q 328 763 248 825 q 389 717 374 726 q 433 692 403 708 q 568 583 528 642 q 584 532 584 558 q 562 476 584 499 q 509 433 547 461 q 477 410 496 425 q 337 313 382 337 l 299 292 q 259 266 275 278 q 221 241 243 254 q 183 212 203 231 q 113 163 139 168 q 98 162 106 162 z "},"?":{"ha":574,"x_min":31,"x_max":546,"o":"m 75 -81 q 52 -75 64 -81 q 32 -45 32 -64 q 46 0 32 -20 q 48 2 47 1 l 49 3 q 60 14 52 7 q 90 42 73 25 q 107 57 102 55 q 121 58 112 58 q 132 54 127 58 q 142 33 142 46 q 142 25 142 28 q 141 18 141 21 l 136 -7 q 75 -81 125 -81 m 136 111 l 133 111 q 121 115 126 111 q 116 120 118 117 q 83 176 90 151 q 79 275 79 195 q 84 382 79 351 q 123 450 94 426 q 171 477 136 460 q 238 509 206 495 q 343 578 302 532 q 376 625 359 596 q 391 654 386 641 q 401 693 395 667 q 406 715 404 707 q 408 732 408 723 l 408 781 q 407 794 408 789 q 404 806 406 799 q 378 856 386 850 q 307 876 368 859 l 294 879 q 292 857 293 878 q 283 800 289 826 q 263 739 277 774 l 250 705 q 242 696 247 696 q 239 696 241 696 q 237 701 237 696 q 244 742 237 711 q 253 798 252 789 q 256 821 254 806 l 265 878 q 264 886 265 885 q 258 887 262 887 l 256 888 q 231 888 246 888 l 216 889 q 198 889 209 889 q 180 887 186 888 q 161 882 169 886 q 141 869 153 878 l 127 859 q 122 839 125 848 q 116 813 120 829 q 106 781 111 797 q 97 746 102 765 q 89 714 92 727 q 84 690 86 701 q 80 677 81 680 q 72 670 77 670 q 68 671 71 670 q 66 678 66 672 q 76 754 66 704 q 92 812 83 790 l 92 814 q 92 814 92 814 q 88 813 91 814 q 80 811 85 811 q 67 817 73 811 q 57 823 60 823 q 47 829 54 823 q 31 865 31 845 q 45 909 31 885 q 70 945 55 926 q 111 990 94 977 q 172 1015 136 1008 q 240 1019 197 1019 q 279 1018 267 1019 q 377 997 299 1016 q 417 986 404 991 q 441 977 431 982 q 528 865 494 954 q 542 821 538 839 q 546 767 545 802 q 545 710 546 727 q 536 662 543 694 q 519 603 528 627 q 492 551 509 578 q 456 417 481 530 q 446 368 448 379 q 434 315 438 322 q 428 311 431 311 q 422 313 422 311 q 421 318 421 315 q 422 328 421 321 q 427 373 426 353 q 431 412 428 392 q 440 477 434 442 l 428 466 q 369 419 401 441 q 309 387 336 397 l 296 381 q 273 283 290 372 q 263 236 266 243 q 256 229 260 229 q 252 231 254 229 q 250 237 250 233 q 251 241 250 239 q 252 257 251 244 q 254 287 253 270 q 260 362 256 345 l 261 364 q 260 366 261 366 q 220 347 255 366 q 218 270 218 314 q 216 201 218 226 q 210 163 214 176 q 199 141 206 150 q 182 126 192 132 q 157 116 173 121 q 136 111 140 111 z "},"@":{"ha":54,"x_min":0,"x_max":0,"o":""},"A":{"ha":526,"x_min":29,"x_max":498,"o":"m 450 32 q 426 46 436 32 q 414 121 414 65 q 412 145 414 134 q 401 202 412 153 q 393 232 395 228 q 386 239 392 236 q 368 242 378 242 q 359 241 362 242 q 353 237 356 240 q 340 231 347 233 q 320 217 332 229 q 304 206 307 206 q 296 210 300 206 q 292 216 292 213 q 291 219 292 219 l 289 218 q 256 212 274 212 l 238 212 q 227 170 233 191 q 218 115 222 149 l 216 92 q 204 74 213 74 q 197 77 200 74 q 191 83 193 81 l 193 158 q 177 198 180 187 q 174 204 176 203 q 169 207 172 206 q 164 208 165 207 l 161 208 l 156 182 q 141 123 151 155 q 125 77 132 92 q 77 32 106 34 q 66 33 69 32 q 30 82 37 39 q 29 98 29 89 q 39 178 29 125 q 54 259 47 220 q 69 339 60 298 q 83 402 77 380 q 102 457 92 430 q 166 632 130 530 q 199 725 192 707 q 214 760 205 743 q 230 793 223 777 q 328 936 261 872 q 370 968 355 960 q 396 975 387 975 l 403 975 q 424 968 412 973 q 493 872 474 941 q 498 842 498 854 q 497 784 498 795 q 493 759 496 774 q 484 677 484 719 q 487 632 484 655 q 495 506 495 562 q 488 369 495 451 q 484 303 484 330 q 486 269 484 283 q 493 168 493 216 l 490 121 q 463 35 486 44 q 450 32 456 32 m 132 268 q 134 274 134 269 q 134 278 134 278 q 132 276 133 278 q 131 273 132 275 q 131 270 131 271 q 132 268 131 268 l 132 268 m 271 273 q 311 277 300 274 q 335 278 318 278 q 352 281 352 278 q 357 296 353 285 q 365 320 361 308 q 371 337 369 332 q 374 348 373 341 q 380 408 376 359 l 385 465 q 393 579 393 548 q 392 602 393 584 q 386 649 392 619 l 380 678 q 372 619 375 635 q 361 562 363 579 q 356 536 359 551 q 352 506 354 527 q 349 488 351 492 q 341 483 347 483 q 332 487 334 483 q 330 503 330 492 q 333 543 330 530 q 337 567 335 551 q 341 587 337 576 q 349 689 349 608 l 348 704 q 345 729 348 720 q 340 737 342 737 q 332 716 339 737 q 323 677 327 699 q 313 646 316 649 q 305 643 309 643 q 300 644 302 643 q 297 645 298 644 q 296 646 296 646 q 283 617 294 646 l 267 581 q 222 466 239 513 q 193 378 196 394 q 182 363 191 372 q 149 319 153 332 q 142 307 146 311 q 135 298 138 302 q 132 290 132 293 q 133 288 132 288 q 138 294 136 288 q 146 300 144 300 q 160 315 152 304 q 180 333 173 333 q 181 333 180 333 q 182 330 182 332 q 179 313 182 325 q 177 296 177 300 l 177 294 l 180 294 q 188 296 183 294 q 202 297 195 297 q 229 293 212 297 q 258 281 247 290 l 271 273 z "},"B":{"ha":561,"x_min":28,"x_max":534,"o":"m 238 26 l 222 26 q 197 28 220 27 q 153 33 170 30 q 110 43 133 35 l 103 43 q 96 41 100 43 q 77 39 92 39 q 65 43 72 39 q 35 94 39 54 q 31 162 31 141 q 31 172 31 170 q 30 191 31 186 q 28 273 28 208 q 31 306 28 286 q 37 350 36 323 q 42 408 39 376 q 45 440 45 435 q 44 445 45 444 q 41 507 43 449 q 37 589 39 565 q 35 629 35 602 q 52 861 35 777 q 59 888 56 880 q 68 901 62 896 q 88 909 77 909 q 109 903 93 909 l 122 913 q 155 932 135 922 q 190 947 175 943 q 248 951 205 951 q 305 947 290 951 q 373 915 326 941 q 463 789 430 881 q 477 734 477 751 l 477 720 q 469 634 477 665 l 461 602 q 448 564 457 583 q 438 540 438 545 q 435 529 438 537 q 426 504 429 507 q 423 501 423 502 q 429 498 423 499 q 479 459 458 492 l 487 448 q 509 404 500 429 q 534 268 534 336 q 530 239 534 253 q 515 207 526 226 q 459 130 486 151 l 441 115 q 418 99 429 104 q 394 79 408 95 q 358 51 380 64 q 330 36 341 40 q 301 30 319 33 q 238 26 283 28 m 283 803 q 289 806 286 803 q 292 810 292 809 q 291 813 292 812 q 287 817 289 815 q 283 818 285 818 q 279 815 281 818 q 277 810 277 813 q 279 805 277 808 q 283 803 281 803 m 213 515 q 226 517 218 515 q 248 524 234 520 q 264 527 260 525 q 288 545 271 531 q 347 606 332 583 q 360 637 355 618 l 369 665 q 372 684 372 671 q 374 711 372 692 l 374 721 q 372 731 374 725 q 366 751 370 738 q 339 809 352 785 q 319 833 326 832 q 315 829 318 833 q 302 806 304 813 q 300 790 300 800 q 287 767 298 767 q 278 772 281 767 q 274 789 275 777 q 267 816 273 801 q 264 831 264 824 l 264 836 q 264 837 264 837 l 255 823 q 245 804 248 811 q 241 788 243 796 q 224 762 233 762 q 215 765 218 762 q 212 790 212 769 q 206 832 212 812 q 198 852 201 852 q 197 851 197 852 q 194 851 196 851 q 189 850 191 850 q 186 848 186 849 q 185 845 185 847 l 186 838 q 185 833 186 836 q 184 828 184 830 q 183 824 183 826 q 186 814 183 820 q 189 796 189 806 q 189 787 189 789 q 184 783 188 785 q 178 781 181 781 q 165 809 166 781 q 163 819 165 818 q 161 820 162 820 q 156 817 159 820 q 154 814 155 817 q 153 796 153 812 l 155 740 q 156 711 156 723 q 155 666 156 691 q 151 607 151 627 l 151 585 l 157 582 q 170 556 166 577 q 177 543 172 549 q 198 522 183 536 q 213 515 207 515 m 161 104 l 172 105 q 234 120 219 113 q 278 137 256 131 q 299 146 289 140 q 325 165 309 152 q 355 189 345 182 q 388 220 372 201 q 412 256 404 239 q 416 277 416 266 q 416 309 416 288 q 404 388 416 363 q 394 402 399 399 q 382 406 390 406 q 372 406 378 406 q 360 408 366 407 q 348 409 354 409 q 336 408 342 409 q 323 405 330 406 l 319 391 q 289 340 312 365 q 267 298 274 322 q 257 285 263 292 q 248 278 251 278 q 240 280 244 278 q 233 287 235 283 q 229 309 231 292 q 222 336 227 326 q 214 354 215 349 q 210 361 212 361 q 208 357 208 361 q 195 343 204 343 q 186 354 186 343 l 186 368 l 178 365 q 160 360 170 361 q 152 358 154 359 q 150 355 150 357 q 144 345 148 348 q 140 333 140 338 q 134 304 140 321 q 115 258 127 281 q 121 176 117 241 l 125 115 q 148 107 136 112 q 161 104 155 104 z "},"C":{"ha":530,"x_min":29,"x_max":499,"o":"m 265 463 q 255 467 258 463 q 252 476 252 471 q 256 487 252 483 q 265 490 261 490 q 278 477 278 490 q 265 463 278 463 m 356 501 q 353 516 355 501 q 351 547 351 541 q 356 577 351 558 q 361 585 359 585 q 369 580 364 585 q 374 564 374 574 q 372 545 374 555 q 360 512 364 517 q 357 504 357 506 q 356 501 357 501 m 277 40 q 186 77 237 40 q 156 106 173 88 q 130 137 138 124 q 114 170 123 148 q 99 213 104 193 l 87 256 q 73 301 81 279 q 58 331 65 323 q 46 355 52 338 q 38 393 40 372 q 32 426 35 417 q 29 446 29 435 q 39 492 29 465 l 39 494 q 45 511 43 505 q 47 522 47 517 q 45 536 47 527 l 45 545 q 62 608 45 574 q 72 633 69 622 q 77 670 75 645 q 82 694 78 685 q 130 774 101 732 l 144 794 q 215 870 170 832 q 304 930 260 909 q 398 952 351 952 l 427 952 q 478 926 453 951 q 499 871 499 906 q 475 836 499 839 q 465 836 468 836 q 458 840 463 837 q 450 846 454 844 q 439 849 441 849 q 431 844 435 849 q 410 793 418 828 q 396 752 405 770 q 389 743 394 746 q 381 741 385 741 q 378 741 379 741 q 367 751 371 742 q 359 798 363 761 l 355 787 q 326 736 344 758 q 306 710 311 722 q 296 656 300 696 l 294 644 q 286 631 292 635 q 281 630 283 630 q 273 633 277 630 q 269 667 269 637 l 268 692 q 269 713 268 705 q 270 729 270 722 q 267 746 270 746 q 252 722 264 746 q 225 663 239 698 q 214 631 220 652 q 201 589 207 610 q 192 558 195 568 q 190 476 190 548 q 193 385 190 416 q 204 335 196 354 l 209 321 q 228 253 214 304 q 246 210 235 226 q 276 179 256 193 q 285 173 281 175 q 308 170 289 171 l 340 167 q 346 170 344 167 q 353 180 349 173 l 355 182 q 364 202 359 190 q 375 230 368 214 q 384 267 382 245 q 392 311 387 293 q 396 332 396 328 q 398 336 396 334 q 401 341 399 339 q 414 347 408 347 q 433 329 424 347 q 442 226 442 312 q 436 201 441 215 q 430 183 433 194 q 424 164 427 173 q 418 149 420 156 q 415 141 416 142 q 408 120 414 139 q 404 108 406 113 q 380 73 398 90 q 352 54 367 60 q 309 43 337 47 q 277 40 291 40 z "},"D":{"ha":559,"x_min":29,"x_max":530,"o":"m 106 19 l 98 19 q 56 38 74 19 q 41 60 45 48 q 35 89 36 71 q 29 275 31 155 q 31 478 29 412 q 52 715 37 608 q 56 751 55 730 q 58 806 57 771 q 62 879 59 854 q 73 934 64 905 q 79 956 76 948 q 93 975 83 968 q 100 980 97 977 q 122 988 106 988 q 146 981 134 988 l 153 976 l 160 967 l 163 961 q 175 901 172 943 l 176 883 q 191 898 184 890 q 208 913 198 905 q 227 927 218 921 q 250 940 235 932 q 277 955 264 948 q 299 966 290 962 q 309 971 308 970 q 327 976 317 975 l 403 976 q 418 974 417 975 q 416 972 418 973 q 410 972 414 972 q 405 971 406 972 q 411 967 405 970 q 432 957 417 964 q 454 945 446 949 q 467 937 462 941 q 499 901 487 920 q 515 865 507 888 q 527 828 524 847 q 530 774 530 809 q 526 552 530 680 q 521 469 524 509 q 516 400 517 429 q 511 345 515 375 q 500 277 505 300 l 487 229 q 481 205 483 215 q 473 174 477 186 q 460 137 469 161 q 385 39 429 64 q 306 21 347 21 q 250 31 275 21 q 214 52 233 37 q 182 83 196 66 l 171 96 l 169 81 q 106 19 159 25 m 304 145 q 330 158 321 145 q 347 192 338 170 q 361 235 355 214 q 367 260 363 245 q 374 289 371 275 q 393 421 389 340 q 396 478 394 451 q 398 506 398 498 q 397 511 398 511 l 397 511 q 396 507 397 511 q 395 497 395 503 q 380 476 393 476 q 370 494 370 476 l 370 503 q 372 526 372 516 l 372 536 q 368 581 372 540 l 372 594 q 379 629 378 605 q 384 665 380 654 q 399 690 388 677 q 404 699 404 698 q 402 709 404 703 q 400 728 400 719 q 406 757 400 743 q 411 778 411 770 l 411 808 q 416 826 411 816 q 420 842 420 836 q 419 854 420 846 q 412 880 417 869 q 397 900 408 890 q 385 909 387 909 q 377 904 381 909 q 359 894 367 894 q 353 898 357 894 q 348 901 350 901 q 337 899 343 901 q 317 891 327 897 q 237 814 273 867 q 226 774 226 796 q 227 762 226 768 q 227 747 227 757 q 223 661 227 709 q 222 645 222 652 q 223 631 222 639 q 224 616 224 624 q 222 595 224 607 q 208 578 218 578 q 200 581 204 578 q 195 591 195 583 l 196 612 q 198 662 197 628 q 197 729 198 695 q 193 796 196 763 l 191 810 l 191 810 q 189 807 190 809 q 187 784 187 806 l 187 768 q 182 675 187 728 q 165 411 165 513 q 178 278 165 319 q 199 233 184 258 q 228 196 210 214 q 304 145 279 145 z "},"E":{"ha":547,"x_min":28,"x_max":518,"o":"m 82 -16 l 81 -16 q 57 23 63 -16 q 54 38 56 33 q 48 49 52 44 q 28 155 32 72 l 28 172 q 34 233 28 208 q 39 268 36 239 q 44 311 41 292 q 46 330 46 325 q 43 352 46 335 q 38 429 38 374 q 39 516 38 460 q 47 668 42 635 l 48 685 q 52 755 48 731 q 55 820 54 776 q 57 866 55 859 q 81 903 59 878 q 105 926 95 919 q 128 936 111 930 q 191 954 166 946 l 216 961 q 254 963 229 963 q 305 961 279 963 l 327 960 q 341 961 336 960 q 356 962 347 962 q 380 961 366 962 q 430 959 398 959 q 466 956 454 959 q 488 951 478 952 q 502 946 497 949 q 512 934 507 943 q 518 919 518 926 q 515 909 518 913 q 511 896 511 905 q 502 879 511 884 q 467 869 493 873 q 444 866 454 866 l 425 867 q 420 866 422 867 q 416 863 418 865 q 404 854 409 856 q 391 838 396 849 q 389 810 389 829 q 388 804 388 808 q 386 771 387 784 q 385 751 385 758 q 382 735 384 737 q 380 732 381 733 l 380 732 q 373 729 376 729 q 366 732 370 729 q 362 740 363 735 q 362 769 362 744 l 363 792 q 361 805 362 800 q 358 816 361 810 q 355 834 355 826 q 357 848 355 838 l 347 848 q 330 847 333 848 q 311 819 324 841 q 300 802 304 808 q 290 796 296 796 q 284 798 287 796 q 279 801 281 800 q 277 804 277 803 q 281 844 277 832 l 282 845 q 282 846 282 846 q 280 847 281 846 q 277 847 279 847 l 272 846 l 261 846 q 224 838 236 846 q 197 801 212 829 l 185 780 l 185 762 q 187 725 185 747 q 189 711 189 717 q 187 695 189 702 q 184 658 184 683 q 188 600 184 615 q 204 557 193 580 q 215 543 208 547 q 256 505 226 534 l 281 504 q 321 499 309 502 q 348 496 334 496 q 367 502 353 496 q 404 509 390 509 q 468 484 444 509 q 481 458 481 470 q 479 448 481 454 q 437 426 475 436 q 424 422 427 422 q 421 417 421 422 q 403 400 421 400 q 372 407 391 400 q 352 411 361 411 q 330 408 341 411 l 325 408 q 312 404 316 406 q 306 400 307 402 q 300 384 304 397 q 291 342 291 357 q 292 332 291 337 q 293 320 293 326 q 292 310 293 315 q 290 294 291 304 q 289 254 289 273 q 284 240 288 243 q 277 237 281 237 q 267 243 270 237 q 264 282 264 250 l 265 315 l 258 335 q 251 377 252 355 q 248 400 250 400 q 237 393 246 400 q 205 362 214 374 q 197 333 203 356 q 189 283 192 309 q 182 250 186 265 q 176 220 179 237 q 168 173 168 180 q 187 142 168 153 q 213 124 199 136 q 245 98 228 113 l 271 98 q 296 99 281 99 q 306 97 300 99 q 315 95 311 95 q 325 97 318 95 q 350 100 332 98 q 410 103 384 103 l 430 103 q 442 107 436 103 q 454 112 448 112 q 462 110 458 112 q 470 95 470 106 l 470 88 q 475 80 470 83 q 480 74 479 77 q 481 68 481 72 q 478 58 481 62 q 466 49 475 54 l 448 40 q 377 24 427 28 q 336 18 345 22 q 267 7 303 7 q 248 8 256 7 q 235 9 240 9 q 221 7 229 9 q 191 4 208 4 q 165 7 174 4 q 145 14 156 9 q 125 23 134 19 q 114 30 116 28 q 111 32 113 31 q 109 33 110 33 q 100 1 108 33 l 97 -8 q 82 -16 92 -16 z "},"F":{"ha":502,"x_min":29,"x_max":467,"o":"m 95 -6 q 81 -4 88 -6 q 56 17 65 2 q 52 39 53 24 l 47 116 q 40 145 44 134 q 29 218 29 174 q 31 273 29 240 q 32 294 32 280 q 35 353 33 308 q 38 397 35 371 q 45 469 41 451 q 48 508 48 485 q 50 532 48 525 q 61 573 51 539 q 51 640 54 607 q 47 689 47 669 l 49 772 q 56 857 52 838 q 68 895 58 865 l 73 907 q 96 939 79 929 q 111 945 106 944 q 138 944 133 945 q 150 940 144 943 q 169 936 159 936 q 199 937 180 936 q 241 948 217 938 q 262 957 251 952 q 283 964 274 961 l 292 967 l 302 970 q 335 975 315 975 l 336 975 q 367 975 364 975 q 372 973 372 975 q 374 970 372 971 q 386 963 380 964 q 410 960 390 961 q 458 948 450 958 q 467 929 467 939 q 440 900 467 913 q 367 880 397 880 q 345 883 355 880 q 325 886 335 886 q 319 885 321 886 q 308 871 316 884 q 299 860 303 865 q 293 852 295 854 l 285 836 q 277 817 281 825 q 272 800 273 810 q 258 780 269 780 l 257 780 q 249 784 253 780 q 245 792 245 787 l 245 810 q 247 833 247 825 q 246 844 247 840 q 242 853 245 848 q 239 863 240 858 q 239 891 239 869 l 191 891 l 189 884 q 186 848 186 876 q 176 792 186 810 q 161 768 167 775 l 165 750 q 171 710 170 732 q 173 614 173 688 q 222 618 197 616 q 237 620 231 620 q 253 618 245 620 q 274 607 261 616 q 288 600 281 602 q 325 591 296 595 q 345 589 336 589 q 358 592 351 589 q 391 601 365 595 q 425 609 418 606 q 444 613 436 613 q 458 608 453 613 q 464 599 464 604 q 462 592 464 597 q 450 584 460 587 l 443 581 q 444 579 443 581 q 448 576 445 578 q 450 568 450 574 q 448 560 450 563 q 432 554 445 557 q 420 549 420 551 l 420 548 q 422 535 422 542 q 419 516 422 526 q 416 502 416 506 q 417 497 416 500 q 418 492 418 495 q 406 481 418 483 q 393 488 397 482 q 388 504 388 494 q 388 510 388 509 q 387 511 387 511 l 385 511 q 370 506 380 509 q 349 501 359 503 q 333 499 338 499 q 324 500 330 499 q 313 503 318 501 q 302 506 307 505 q 289 508 297 507 q 267 509 281 508 q 239 508 249 509 q 220 503 229 507 q 193 490 203 496 q 180 482 184 486 q 174 438 174 476 q 173 385 174 400 q 169 359 172 369 q 159 341 165 350 l 151 330 l 151 290 q 161 208 151 248 q 168 168 168 185 q 167 137 168 144 q 152 98 165 122 q 141 81 144 84 q 137 68 137 77 l 138 36 q 136 22 138 27 q 95 -6 122 -6 z "},"G":{"ha":608,"x_min":28,"x_max":581,"o":"m 287 9 l 279 9 q 245 12 258 9 q 219 19 232 14 q 186 35 205 24 q 127 75 152 52 q 76 138 102 99 q 55 175 66 153 q 40 208 43 197 q 34 232 36 219 q 31 274 32 245 q 28 345 28 307 q 31 440 28 412 q 35 479 35 473 l 39 509 q 52 586 46 566 q 76 671 68 638 q 83 713 81 691 q 87 747 85 743 q 89 760 87 748 q 90 789 90 772 q 91 820 90 809 q 96 844 92 831 q 106 879 99 856 l 106 880 q 122 918 114 905 q 160 938 136 938 l 163 938 q 176 939 172 938 q 188 945 180 941 q 221 960 208 956 q 242 968 235 965 l 246 970 l 260 977 l 269 981 q 347 995 295 992 q 376 996 363 996 q 408 994 392 996 q 444 981 425 991 q 446 980 446 980 l 455 976 l 463 970 l 471 960 q 490 911 490 938 q 479 866 490 890 q 464 848 473 854 q 449 836 455 842 q 416 820 425 820 q 404 827 409 820 q 401 838 401 832 q 402 844 401 840 q 403 853 403 848 q 398 871 403 862 q 392 880 394 880 q 379 881 390 881 l 370 859 q 336 806 355 820 q 326 797 326 800 q 326 789 326 793 q 323 765 326 779 q 316 744 320 751 q 298 724 313 736 q 287 718 292 718 q 271 731 277 718 q 267 742 267 737 q 266 759 266 747 q 266 776 266 766 q 268 794 267 786 q 270 810 269 802 q 263 821 267 816 q 258 832 260 826 q 256 841 256 838 q 254 848 255 845 l 254 850 q 233 831 252 850 q 224 824 227 827 q 218 818 220 821 q 212 797 216 815 q 202 756 206 768 q 193 713 197 737 l 190 688 l 178 642 l 182 621 q 189 598 185 600 q 198 574 198 591 q 199 565 198 570 q 200 558 199 561 q 201 554 201 556 q 200 549 201 551 q 199 544 199 546 q 203 534 199 541 q 230 453 226 503 l 231 437 q 222 389 231 416 q 215 358 216 370 l 213 334 q 210 294 212 301 q 202 262 202 269 q 212 236 202 256 q 233 172 228 204 q 239 149 235 158 q 258 123 245 127 q 281 120 266 120 q 327 128 300 121 q 376 146 355 136 q 397 157 389 151 q 417 176 404 163 q 434 193 426 184 q 456 222 442 203 l 467 238 q 480 260 476 250 q 490 326 487 275 q 489 335 490 330 q 486 349 488 340 q 481 375 481 368 q 479 392 481 379 q 472 433 477 406 q 463 445 470 443 q 458 444 460 445 q 451 439 456 442 q 377 415 414 415 q 353 418 365 415 q 332 421 340 421 q 315 402 315 421 q 322 368 315 397 q 326 343 326 358 l 325 329 q 324 310 324 317 q 323 300 323 302 q 322 297 323 299 q 318 295 320 296 q 314 294 315 294 q 302 314 303 294 q 289 357 302 345 q 274 378 281 364 q 264 408 264 395 q 328 486 264 473 q 344 488 338 487 q 363 502 351 490 q 424 552 406 545 q 454 557 439 557 q 474 555 465 557 q 544 513 492 549 q 579 435 574 493 q 581 409 581 417 q 579 390 581 400 q 572 333 572 347 q 568 309 572 323 q 559 245 561 281 l 559 241 q 545 195 559 226 q 535 168 536 174 q 524 139 532 153 q 497 103 515 125 q 468 71 479 81 q 438 51 456 61 q 392 29 416 37 q 287 9 336 9 m 296 493 q 285 499 290 493 q 275 537 275 510 q 279 576 275 568 q 283 594 283 585 q 283 604 283 598 q 281 618 282 610 q 280 631 281 626 q 279 643 279 637 q 295 671 279 671 q 304 665 302 671 q 307 642 307 663 q 306 619 306 633 q 314 578 310 587 q 318 566 317 572 q 319 528 319 553 q 316 511 319 521 q 296 493 308 493 z "},"H":{"ha":576,"x_min":27,"x_max":547,"o":"m 484 7 q 476 7 478 7 q 463 22 469 13 q 456 39 460 26 q 448 52 449 52 q 437 60 446 52 q 423 83 428 68 q 415 247 415 107 q 412 377 414 368 q 410 401 410 390 q 417 446 410 420 q 398 427 400 429 q 393 412 394 422 q 380 393 391 393 q 374 394 376 393 q 367 406 372 395 q 342 390 347 393 q 336 386 338 387 q 332 368 334 384 q 326 287 329 345 q 323 273 324 274 q 315 267 321 267 q 304 274 307 267 q 302 309 302 281 q 304 383 302 344 l 297 382 q 275 385 290 382 q 234 341 246 357 q 211 302 216 318 q 205 277 209 296 q 200 252 200 256 q 203 233 200 243 q 210 197 208 218 q 212 176 212 186 q 210 157 212 166 q 209 141 210 151 q 209 108 209 130 q 197 94 207 94 q 188 101 193 94 q 186 125 186 106 q 188 161 186 143 q 189 177 189 170 q 172 231 189 208 q 165 249 166 237 q 161 266 164 262 q 157 278 157 271 q 160 301 157 286 q 163 332 163 317 q 162 344 163 343 q 161 345 161 345 l 159 344 q 152 342 155 342 q 148 336 149 340 q 147 317 147 332 q 140 277 146 293 q 132 251 134 258 q 127 240 131 243 q 123 229 123 236 q 125 177 123 209 q 130 120 129 121 q 130 115 130 118 q 127 84 130 108 q 117 47 123 60 q 106 33 113 40 q 81 20 94 20 q 72 22 77 20 q 39 100 39 30 q 41 146 39 123 q 48 191 43 170 q 49 204 49 196 q 46 264 49 239 q 42 276 45 269 q 37 294 40 282 q 28 334 30 323 q 27 387 27 345 q 36 490 27 453 q 49 591 49 557 q 45 616 49 608 q 31 718 34 642 q 39 822 31 772 l 46 868 q 74 940 51 905 l 93 966 q 96 969 95 968 q 98 972 98 971 q 100 974 98 972 q 107 976 102 975 l 124 978 q 146 974 130 978 q 149 972 149 973 q 155 964 149 970 q 167 933 167 948 q 169 926 167 931 q 173 915 170 921 q 177 904 176 909 q 180 871 179 899 l 184 822 q 185 802 185 811 q 183 779 185 794 q 180 746 180 752 l 179 732 l 173 682 q 170 644 170 651 q 166 609 168 621 q 164 585 165 597 q 159 551 162 573 l 158 547 q 151 485 151 498 q 152 474 151 477 q 153 469 152 470 l 155 469 q 245 488 198 488 q 269 486 258 488 l 273 486 q 282 488 279 486 q 309 511 300 497 q 322 524 313 517 q 339 535 332 532 l 361 562 q 399 608 378 587 q 428 644 425 635 q 430 657 429 649 q 434 692 433 684 q 436 739 436 709 q 433 791 436 768 q 433 802 433 796 q 442 854 433 819 q 475 925 454 904 q 509 944 490 944 q 529 939 519 944 q 545 922 545 932 q 543 917 545 920 q 541 909 541 913 q 544 899 541 905 q 547 866 547 890 q 545 789 547 831 q 530 652 542 699 q 528 617 528 642 q 528 536 528 574 l 529 494 q 527 469 528 479 q 526 448 526 460 q 527 408 526 431 q 529 372 528 389 q 532 348 531 355 q 541 246 541 299 q 538 201 541 219 q 528 117 536 188 q 522 73 525 101 q 484 7 515 13 z "},"I":{"ha":227,"x_min":29,"x_max":199,"o":"m 104 -18 l 102 -18 q 94 -16 98 -18 q 63 16 73 -12 q 56 70 56 35 q 59 105 56 87 q 62 127 60 115 q 64 149 63 140 q 66 169 65 159 q 69 184 68 178 q 75 231 75 210 q 73 250 75 241 l 70 288 q 62 330 69 310 q 56 361 58 346 q 55 407 55 376 q 63 464 55 418 q 66 488 66 475 q 75 529 66 504 q 79 547 79 541 q 78 557 79 551 q 69 606 77 564 q 60 574 65 589 q 55 526 57 566 q 47 458 52 487 q 35 425 40 425 q 31 426 33 425 q 29 431 29 428 q 31 446 29 437 q 35 469 33 455 q 41 524 40 494 q 43 564 41 552 q 47 582 44 575 q 56 628 56 608 l 55 680 q 56 697 55 691 q 56 709 56 703 q 55 727 56 718 q 54 740 54 733 q 66 800 54 773 q 71 819 70 804 l 71 838 q 75 877 71 863 q 87 907 78 891 q 117 940 103 935 q 134 944 126 944 q 170 912 164 944 l 170 907 q 168 887 170 900 q 165 871 165 875 l 165 869 q 171 865 168 869 q 175 857 174 864 q 176 816 176 842 q 182 701 176 756 l 184 683 q 192 616 189 630 q 199 513 199 565 q 192 448 199 487 l 185 412 l 176 355 q 172 332 174 341 q 166 213 166 294 l 166 174 q 161 142 165 153 q 154 125 156 127 q 152 110 152 121 q 149 79 152 99 q 146 43 146 64 q 115 -16 146 -6 q 104 -18 108 -18 m 69 752 q 70 753 70 752 l 68 757 l 68 752 l 69 752 m 83 610 l 85 623 q 79 665 85 635 l 73 697 q 71 704 72 704 q 70 697 70 703 q 69 684 69 690 q 72 651 69 671 q 80 619 75 631 q 83 612 83 614 l 83 610 z "},"J":{"ha":424,"x_min":27,"x_max":397,"o":"m 191 -28 l 180 -28 q 118 -1 157 -28 q 70 41 87 20 q 51 72 60 54 q 38 102 41 90 q 31 135 34 115 q 27 165 27 155 q 30 196 27 174 q 43 278 38 257 q 48 318 46 296 q 54 345 50 340 q 61 367 59 355 q 69 389 66 383 q 73 401 73 397 q 75 411 73 404 q 80 425 77 418 q 86 435 83 432 q 92 438 88 437 q 103 433 98 438 q 104 416 104 431 l 104 399 q 107 387 104 394 q 118 332 118 358 q 119 304 118 311 q 124 288 119 295 q 130 279 130 280 q 132 278 130 278 l 134 278 q 144 274 140 278 q 150 208 149 267 q 155 142 151 161 q 160 112 160 120 q 162 100 160 104 q 170 90 164 96 l 171 102 q 176 117 172 115 q 184 120 179 120 q 189 117 186 120 q 194 110 193 113 q 195 101 195 107 q 195 92 195 96 l 195 87 l 197 87 q 215 98 201 87 q 243 143 236 116 q 248 201 248 163 l 249 233 q 243 235 246 234 q 236 241 239 236 q 235 273 235 245 q 236 307 235 297 q 237 322 237 310 q 235 386 237 342 l 232 403 l 222 436 l 224 448 q 231 490 228 469 q 234 503 233 496 q 235 514 235 510 q 241 535 235 519 q 250 571 250 559 q 248 581 250 576 q 247 590 247 586 q 249 600 247 594 q 272 703 268 671 l 276 730 q 278 749 278 741 q 275 759 278 757 q 273 768 273 761 q 276 774 273 770 q 290 832 281 781 q 293 874 293 852 l 281 882 q 253 894 263 894 q 244 890 247 894 q 239 878 242 886 q 232 863 235 867 q 226 858 229 858 q 224 857 224 858 q 224 854 224 856 l 224 851 q 227 821 225 846 q 230 787 229 795 q 232 766 232 779 q 216 708 232 708 q 205 716 208 708 q 202 779 202 725 l 203 831 q 176 877 179 865 q 172 885 174 882 q 165 890 170 888 q 153 902 158 895 q 149 916 149 909 q 152 927 149 922 q 159 936 155 933 q 178 943 163 939 q 210 953 190 945 q 261 966 237 966 q 298 964 280 966 q 319 958 306 962 q 349 945 337 951 q 394 843 394 918 l 393 758 q 391 690 391 713 q 393 656 391 668 q 397 524 397 627 q 394 448 397 475 q 385 386 392 422 q 376 299 379 361 q 374 244 375 273 q 372 197 372 216 q 366 128 372 157 q 342 57 355 77 q 298 7 321 27 q 268 -11 288 -1 q 234 -25 249 -20 q 216 -27 229 -26 q 191 -28 203 -28 m 264 414 q 271 447 266 414 q 279 533 279 492 q 278 545 279 545 q 275 539 277 545 q 272 525 273 533 q 270 511 270 517 q 267 491 269 504 q 262 467 265 479 l 257 437 q 264 414 263 414 z "},"K":{"ha":537,"x_min":28,"x_max":507,"o":"m 398 -24 q 372 -17 385 -24 q 336 12 359 -9 q 295 57 308 38 q 274 106 283 75 q 267 126 270 119 q 259 138 263 134 q 251 150 255 143 q 243 162 247 156 q 236 173 240 168 q 227 181 232 178 q 214 191 222 184 q 198 204 206 197 q 182 218 191 211 l 179 216 q 168 201 172 211 q 165 155 165 191 q 163 107 165 111 l 163 99 l 163 95 l 163 91 l 162 87 l 161 74 l 159 62 l 157 51 l 155 43 l 154 41 l 154 39 l 152 33 l 146 18 q 145 17 146 18 q 144 16 144 16 q 143 14 144 15 q 143 13 143 14 q 142 12 142 12 q 141 10 142 11 q 140 9 140 9 q 139 7 140 8 q 137 6 139 6 l 137 5 l 136 5 q 135 4 136 4 q 134 3 135 3 q 132 1 134 3 q 130 0 130 0 q 127 -1 129 0 q 116 -7 119 -5 q 100 -12 108 -12 q 77 4 87 -12 q 64 22 72 12 q 42 66 47 40 q 35 172 36 98 l 35 273 q 35 346 35 311 q 35 395 35 379 q 31 429 34 411 q 28 477 28 459 l 28 580 q 40 622 39 614 q 41 643 41 629 q 43 742 41 677 q 54 868 48 848 q 64 895 56 879 q 101 941 81 927 q 123 952 111 947 l 130 954 q 138 954 134 954 l 149 952 q 183 925 172 947 q 186 904 186 908 q 185 890 186 899 q 183 877 183 882 q 184 869 183 872 q 185 857 185 865 l 182 805 l 187 798 q 197 769 197 787 q 190 736 197 755 l 184 717 l 182 617 q 184 579 182 586 q 186 547 186 563 q 184 524 186 536 q 182 470 182 508 l 187 476 q 204 497 193 485 q 241 536 229 524 q 252 547 247 541 q 283 604 260 559 q 295 625 290 617 l 318 665 q 336 699 326 682 q 357 739 347 718 q 393 784 372 770 q 413 792 404 792 q 420 791 417 792 q 431 782 423 790 q 453 734 450 761 q 458 713 453 722 q 462 694 461 707 l 463 659 q 446 584 463 602 q 438 570 441 578 q 433 557 437 566 q 429 549 431 555 q 419 517 427 544 q 414 484 415 501 q 407 447 410 449 q 399 444 404 444 q 391 450 393 444 q 389 469 389 456 l 389 477 q 392 511 391 507 q 393 518 393 515 q 391 521 393 521 q 381 493 388 521 q 375 437 375 460 l 376 429 q 374 412 376 420 q 370 379 372 404 q 367 351 369 354 q 359 349 364 349 q 352 352 355 349 q 347 372 349 355 q 345 407 345 389 l 346 416 q 345 428 346 420 q 343 444 345 435 q 341 460 342 452 l 323 448 q 261 399 281 421 q 235 366 249 387 q 229 355 229 356 q 239 336 229 353 q 269 296 248 319 q 315 235 308 255 q 319 215 319 225 q 321 199 319 201 q 348 183 323 193 q 382 164 375 169 q 415 130 397 152 q 448 81 433 107 q 466 55 456 66 q 494 28 476 43 q 507 8 507 18 q 505 0 507 4 q 498 -10 502 -7 q 488 -12 494 -12 l 477 -11 q 466 -15 471 -11 q 456 -20 460 -20 q 448 -17 452 -20 q 440 -14 445 -14 q 424 -19 435 -15 q 398 -24 410 -23 z "},"L":{"ha":455,"x_min":29,"x_max":428,"o":"m 73 -5 q 38 14 52 -5 q 29 40 29 26 q 35 67 29 52 q 54 96 41 83 q 60 103 58 100 q 63 117 63 107 q 68 147 63 126 q 75 192 73 168 q 92 347 81 300 q 97 388 97 369 l 96 414 l 96 427 q 100 465 96 440 q 104 489 104 484 q 102 498 104 492 q 94 515 99 503 q 77 558 82 541 q 74 600 74 571 q 76 627 74 615 q 98 749 95 713 q 104 788 99 770 q 135 886 107 804 q 130 916 130 907 q 164 958 130 958 q 188 947 177 958 q 196 935 194 941 q 208 924 199 929 q 235 897 226 916 q 239 869 239 885 q 227 793 239 841 q 222 766 223 776 q 220 741 220 755 q 218 699 220 713 l 197 588 l 202 574 q 214 542 205 563 q 224 499 223 521 q 216 446 224 477 q 211 424 212 435 q 210 387 210 412 q 204 331 208 351 q 189 192 197 304 q 180 136 186 158 l 180 134 q 184 130 180 132 q 208 125 197 125 q 221 127 212 125 q 262 132 245 132 q 283 130 274 132 q 363 123 333 123 l 366 123 q 422 94 408 123 q 428 78 428 85 l 427 71 q 406 34 427 46 q 377 26 394 26 q 366 27 371 26 q 343 28 360 28 q 333 26 334 28 q 333 22 333 24 q 332 18 333 19 q 319 15 331 16 l 286 15 l 271 16 q 245 12 262 16 q 206 8 225 8 q 181 10 193 8 q 151 12 169 12 l 115 11 l 100 3 q 73 -5 86 -5 z "},"M":{"ha":696,"x_min":28,"x_max":667,"o":"m 570 -5 l 566 -5 q 558 8 559 -3 l 558 22 q 561 28 559 26 q 562 33 562 31 q 559 37 562 34 q 554 60 554 45 q 555 74 554 67 q 555 86 555 81 q 547 119 555 104 q 540 140 543 128 q 537 159 537 151 q 532 180 537 166 l 528 196 l 528 258 q 527 264 528 262 q 524 267 526 266 q 523 269 523 269 q 517 277 520 272 q 509 293 511 287 q 508 317 508 296 q 515 370 508 339 l 522 398 q 532 452 527 428 q 545 502 534 460 q 543 529 545 516 q 541 554 542 543 q 539 572 540 566 q 538 583 538 578 q 543 628 538 606 q 548 647 545 639 q 552 661 551 654 q 553 678 553 668 q 551 707 553 688 l 551 724 q 552 743 551 736 q 555 797 553 749 q 559 850 556 840 l 561 860 q 560 861 561 861 l 557 860 q 534 823 547 849 q 530 805 530 809 q 526 789 530 798 q 521 764 521 773 q 522 755 521 760 q 524 748 524 751 q 521 743 523 745 q 515 729 516 736 q 519 716 515 721 q 523 705 523 711 q 519 692 523 699 q 513 666 515 683 q 505 640 513 643 q 502 638 504 640 q 500 634 500 636 q 491 627 497 627 q 480 642 480 627 q 481 654 480 647 q 484 699 484 667 q 481 720 484 710 q 479 734 479 727 q 482 759 479 745 q 486 777 486 773 q 485 783 486 780 q 484 795 485 787 q 481 810 482 804 q 480 821 480 817 q 479 825 480 825 q 473 802 477 825 q 468 768 470 787 q 458 730 465 744 q 452 707 452 715 l 452 698 q 455 694 452 696 q 459 684 458 692 q 457 645 459 650 q 454 635 454 640 l 454 625 l 455 617 q 445 605 455 605 q 431 638 431 605 l 431 652 q 435 687 432 678 q 437 704 437 691 q 439 792 439 724 q 429 768 433 779 q 415 732 422 751 q 410 723 412 726 q 395 701 408 720 l 395 564 q 391 514 394 530 q 386 473 387 488 q 388 443 386 455 q 398 375 392 418 q 399 334 399 368 l 397 267 q 392 199 395 219 l 387 177 q 376 103 376 129 q 334 47 376 51 q 306 60 317 47 q 286 110 292 72 q 279 156 280 137 q 282 194 279 178 q 293 273 290 229 q 297 309 296 300 q 300 351 300 329 q 287 448 300 395 q 279 501 279 477 q 282 540 279 517 q 284 610 284 574 q 288 685 284 650 q 292 720 292 708 q 291 740 292 734 q 283 754 289 746 q 270 783 273 773 q 267 814 267 793 q 269 851 267 833 q 270 863 270 859 q 269 867 270 866 l 269 867 q 257 858 266 867 q 245 847 252 852 q 233 836 239 841 q 222 826 227 831 q 212 810 218 820 q 212 809 212 809 q 201 787 204 795 q 197 772 197 780 q 196 751 196 765 q 197 727 196 736 q 202 707 199 718 q 206 685 205 696 q 208 651 208 673 q 210 619 209 635 q 212 594 212 603 q 215 563 215 576 q 213 538 215 550 l 208 507 q 201 483 205 487 q 187 474 195 474 q 173 498 176 474 l 172 503 q 174 516 172 511 q 177 526 176 521 q 179 534 178 530 q 180 541 180 538 q 179 541 180 541 l 178 541 q 174 621 174 541 q 175 657 174 641 l 176 675 q 174 686 175 681 q 170 702 172 692 q 164 723 167 712 q 160 743 162 734 q 157 754 158 751 q 154 583 155 754 q 151 515 154 529 q 146 473 146 494 q 148 444 146 458 q 149 414 149 429 q 138 332 149 372 q 131 296 131 308 q 134 275 131 289 q 136 261 135 269 q 134 102 136 194 q 130 58 132 72 q 86 10 124 12 q 47 32 60 11 q 38 66 43 42 q 28 189 28 106 q 31 232 28 216 q 33 280 33 252 q 39 329 33 309 q 45 363 44 346 l 47 410 q 43 449 47 430 q 39 488 39 468 q 43 534 39 511 q 46 552 45 543 q 47 573 47 560 q 41 687 47 654 q 37 751 37 715 q 39 796 37 783 q 56 870 45 833 q 73 913 65 899 q 104 942 84 937 q 114 943 109 943 q 143 931 129 943 l 153 923 l 168 938 q 217 968 189 960 l 221 969 q 249 972 231 972 l 258 971 q 317 964 306 971 q 327 954 322 959 q 338 944 332 948 l 343 935 q 353 914 347 926 q 366 889 361 899 q 371 869 370 880 l 374 811 q 400 871 389 846 q 418 905 412 895 q 456 945 432 926 q 505 969 471 958 l 513 971 q 551 976 524 975 q 571 974 563 976 q 587 971 578 971 l 604 972 q 617 970 612 972 q 631 964 622 968 q 664 908 657 951 l 667 888 q 663 863 667 883 q 661 827 661 840 l 661 797 q 665 680 661 699 q 667 650 667 668 q 661 621 667 643 q 656 592 656 603 q 658 576 656 585 q 665 496 665 545 q 664 474 665 483 l 652 425 l 645 400 q 633 354 640 373 q 627 330 627 336 q 632 310 627 322 q 639 275 637 297 q 641 235 641 257 q 640 208 640 218 q 641 184 640 197 q 642 176 642 180 l 641 165 q 625 110 636 122 q 621 95 621 104 q 619 74 621 86 q 604 35 614 46 q 589 25 597 27 l 581 23 q 580 8 581 16 q 570 -5 578 -5 z "},"N":{"ha":607,"x_min":29,"x_max":580,"o":"m 507 -25 l 494 -25 q 431 59 455 -19 q 416 110 420 90 q 409 169 412 130 q 401 231 405 210 q 387 274 397 251 q 362 368 379 294 q 351 404 358 388 q 330 438 343 420 l 296 484 q 274 530 288 496 q 258 574 264 555 q 223 641 246 610 q 193 694 214 652 l 191 639 q 194 597 191 618 q 193 591 194 593 q 184 583 191 583 q 175 587 179 583 q 167 642 172 591 q 160 684 164 663 q 151 743 157 692 q 150 706 150 718 q 151 671 150 680 q 153 611 153 645 q 155 528 153 565 q 157 488 157 503 q 156 451 157 471 l 153 358 q 146 269 151 300 q 142 239 142 249 q 144 215 142 229 q 156 31 156 102 q 153 14 155 20 q 146 3 151 9 q 117 -9 137 -9 q 77 43 83 -9 q 73 78 76 57 q 70 136 70 98 q 73 228 70 173 q 74 330 74 273 q 70 406 73 376 q 58 460 66 435 q 41 519 46 498 q 33 562 35 541 q 31 621 31 583 q 29 720 29 663 q 42 808 29 761 q 63 866 54 856 q 95 881 75 881 q 112 877 104 881 l 119 873 l 125 881 q 164 913 140 902 q 214 924 189 924 q 262 905 244 924 q 283 832 283 883 q 285 786 283 810 q 290 752 287 762 q 300 728 292 743 q 317 701 308 713 q 344 654 332 680 q 359 604 355 627 q 386 516 368 551 q 421 387 415 460 q 429 333 424 351 q 446 287 433 314 q 460 254 455 267 q 469 223 465 241 q 473 212 471 212 q 473 216 473 212 l 471 253 q 465 383 465 337 q 468 465 465 408 l 471 515 q 479 610 478 565 q 475 678 479 659 q 467 782 467 725 q 477 888 467 841 q 486 908 481 902 q 490 923 490 914 q 521 960 492 960 q 543 946 535 960 q 547 926 547 941 l 546 918 l 546 902 q 551 890 546 894 q 555 885 553 888 q 558 880 557 882 q 564 826 564 868 q 570 799 564 814 q 579 734 576 784 q 580 726 580 730 q 576 699 580 715 q 573 680 575 689 q 571 667 572 671 q 570 656 571 663 q 568 642 568 649 q 554 562 556 578 q 553 548 554 555 q 551 534 552 540 l 551 534 q 550 526 550 529 q 561 458 550 511 l 561 456 q 566 423 564 439 l 570 357 q 572 344 571 346 q 572 325 572 342 q 573 305 573 316 l 572 231 q 568 159 570 186 q 559 82 565 131 l 554 43 q 528 -20 550 -6 q 507 -25 519 -25 z "},"O":{"ha":538,"x_min":27,"x_max":510,"o":"m 251 -21 l 240 -21 q 136 26 182 -21 q 94 83 111 52 q 66 146 73 118 q 53 222 60 174 q 47 292 47 269 q 37 366 47 326 q 29 415 31 391 q 27 481 27 439 q 28 515 27 503 q 31 555 28 541 q 40 616 35 570 q 50 671 43 644 q 71 755 56 699 q 91 819 83 799 q 146 906 105 859 q 210 956 182 947 q 235 960 220 960 q 256 958 252 960 q 268 952 261 956 q 281 945 274 949 q 301 928 289 940 q 323 939 317 937 q 347 943 338 943 q 408 922 374 943 q 436 897 418 915 q 463 866 454 879 q 477 834 471 854 q 490 793 487 808 q 497 713 497 758 q 496 664 497 699 q 486 586 494 630 q 481 534 481 564 q 486 478 481 505 q 489 454 488 467 q 500 374 494 401 q 508 338 505 351 q 510 313 510 326 q 488 219 510 276 q 435 94 458 130 q 398 51 422 75 q 355 16 374 27 q 288 -16 315 -9 q 251 -21 273 -20 m 252 90 q 275 97 263 90 q 348 169 327 126 q 382 266 360 193 q 398 328 397 313 q 397 351 398 336 q 395 409 395 384 q 392 460 395 444 q 385 563 385 514 q 387 612 385 591 q 394 691 394 656 l 393 711 q 349 831 385 804 q 343 835 346 835 q 334 833 339 835 q 326 828 330 831 q 316 807 322 826 q 305 760 309 788 q 301 735 304 745 q 296 662 298 724 q 293 600 294 618 q 289 580 292 582 q 282 578 286 578 q 275 581 279 578 q 271 591 271 583 l 272 654 q 269 685 271 669 q 267 708 268 695 q 267 730 267 721 q 266 749 267 740 q 265 762 265 758 q 264 769 264 766 q 269 833 264 797 l 269 837 q 264 861 269 850 q 257 864 262 864 q 231 832 242 864 q 223 801 225 817 q 221 756 222 786 q 215 682 220 718 q 211 634 211 650 l 212 585 q 210 536 212 556 l 208 456 q 207 409 208 415 q 204 398 207 404 q 195 395 199 395 q 184 416 184 395 q 180 440 184 424 q 177 453 178 446 q 175 522 175 465 q 172 605 175 591 q 168 630 168 624 l 168 637 q 166 644 168 644 q 158 594 163 644 q 151 540 155 562 q 143 487 145 511 q 141 425 142 463 q 144 354 141 374 l 150 309 q 170 208 152 275 q 221 107 186 146 q 252 90 236 90 z "},"P":{"ha":508,"x_min":27,"x_max":481,"o":"m 102 -23 q 62 3 75 -23 q 38 105 51 24 q 31 181 31 162 l 32 223 q 33 303 33 269 q 29 626 32 606 q 27 654 27 639 q 28 699 27 670 q 36 812 32 774 q 58 905 43 879 q 86 921 66 921 q 100 918 95 921 q 127 871 121 906 l 128 862 q 180 907 168 899 q 208 920 193 916 q 237 927 220 924 q 290 933 271 933 q 332 926 301 933 q 362 917 353 921 q 382 904 372 913 q 408 874 392 895 q 457 794 443 825 q 465 761 463 775 q 471 732 467 747 q 481 664 481 707 q 480 627 481 638 q 475 600 479 616 q 456 530 469 566 q 445 496 448 506 q 433 468 443 486 q 423 451 428 460 q 415 436 418 442 q 396 400 405 413 q 377 375 388 387 q 367 360 368 366 q 361 334 365 354 q 359 323 360 327 q 345 258 353 306 q 339 238 342 241 q 332 234 336 234 q 321 243 323 234 q 318 264 319 248 l 315 321 l 297 311 q 264 294 282 302 q 227 273 246 286 q 219 266 219 267 q 216 238 219 255 q 210 212 213 220 q 207 201 208 206 q 204 160 205 193 q 201 119 203 127 q 193 115 198 115 q 186 116 189 115 q 182 120 183 117 q 181 129 182 123 q 180 140 180 134 q 177 160 179 155 q 171 165 174 165 l 170 165 q 164 166 167 165 q 160 169 161 168 q 158 170 159 170 q 157 170 158 170 q 156 168 157 170 q 156 142 156 165 q 154 98 156 115 q 151 50 152 81 q 147 11 150 22 q 136 -9 144 -1 q 102 -23 122 -23 m 192 395 q 202 397 195 395 q 228 423 208 399 q 266 475 247 447 q 307 524 282 500 q 334 553 325 543 q 348 571 343 564 q 354 587 352 578 q 367 661 367 623 q 366 684 367 676 q 361 704 365 691 q 353 742 354 724 q 351 755 352 750 q 348 767 350 760 q 340 785 345 773 l 336 791 q 323 814 327 813 q 317 797 321 814 q 315 791 315 794 q 306 741 307 764 l 304 707 l 298 644 q 283 627 294 627 q 275 638 275 629 q 276 650 275 643 q 278 680 278 665 q 277 718 278 693 l 276 739 q 283 804 276 774 q 284 806 283 805 q 287 820 287 818 q 286 822 287 821 l 284 822 q 268 795 277 822 q 244 743 256 766 q 235 716 239 734 q 230 687 231 698 q 228 666 230 673 q 225 652 225 659 l 226 639 q 216 621 226 621 q 210 623 214 621 q 205 629 207 625 q 204 639 204 632 q 205 659 204 646 l 205 661 q 207 678 207 672 q 205 695 207 685 q 199 725 203 705 q 198 729 198 726 l 193 752 q 190 756 191 756 q 174 705 185 756 l 167 671 l 167 537 q 168 507 167 518 q 171 478 169 495 q 177 445 174 461 q 182 421 180 429 q 185 406 184 413 q 186 397 186 399 q 192 395 186 395 z "},"Q":{"ha":631,"x_min":28,"x_max":601,"o":"m 280 401 q 273 405 277 401 q 270 424 270 408 q 272 442 270 437 q 276 448 273 447 q 280 450 279 450 q 289 446 286 450 q 291 427 291 442 q 291 415 291 419 q 290 409 290 411 q 286 404 289 407 q 280 401 283 401 m 544 -8 q 526 -5 535 -8 q 490 15 507 1 q 472 38 484 21 q 450 72 460 54 q 446 79 448 76 q 444 83 444 83 l 427 63 q 341 5 389 15 q 302 1 325 1 q 278 2 296 1 q 235 9 260 3 q 133 84 185 24 q 92 138 101 121 q 56 273 75 177 q 40 346 52 297 q 30 395 33 372 q 28 425 28 408 q 37 531 28 487 q 60 629 43 568 q 94 738 81 701 q 134 825 113 795 q 159 854 143 837 q 290 928 229 928 q 323 922 302 928 l 339 930 q 398 945 370 945 q 481 907 446 945 q 497 882 488 899 q 511 847 505 865 q 525 819 516 829 q 539 801 536 806 q 557 775 543 795 q 575 745 568 760 q 588 701 581 729 q 595 667 593 680 q 601 555 601 633 q 586 360 601 454 q 554 256 578 314 l 553 230 q 552 195 553 203 l 552 191 q 555 174 552 183 q 557 159 557 164 q 557 155 557 157 q 547 149 554 149 q 532 166 538 149 q 526 199 527 180 q 482 133 491 144 q 477 124 479 127 q 475 119 475 121 l 475 117 q 499 91 478 113 q 536 60 521 69 q 564 38 552 51 q 574 24 572 30 q 577 13 577 19 q 561 -5 577 -1 q 544 -8 553 -8 m 307 124 q 316 126 313 125 q 325 134 319 127 q 338 149 330 140 q 353 168 345 159 q 309 246 309 225 q 300 252 309 249 q 272 286 272 262 q 276 299 272 292 q 318 320 286 320 q 381 292 359 320 q 389 278 386 286 q 402 237 392 270 q 434 297 420 266 q 455 354 448 328 q 470 469 464 387 q 474 563 474 521 q 461 688 474 639 q 446 716 458 696 q 421 749 427 743 q 398 797 404 768 q 390 823 394 814 l 388 820 q 356 796 373 806 q 342 786 345 790 l 338 780 q 311 741 319 758 q 306 727 309 734 q 290 697 302 720 l 291 640 l 293 573 q 293 555 293 568 q 291 520 292 542 q 290 483 290 499 q 288 465 289 467 q 282 463 286 463 q 273 467 276 463 q 270 484 270 470 l 269 532 l 270 576 q 268 673 270 643 q 260 725 266 703 q 255 746 258 734 q 248 789 253 758 l 242 781 q 211 713 220 751 q 205 642 208 700 q 202 578 202 583 q 204 549 202 559 q 207 524 207 538 l 206 513 q 203 469 204 487 q 201 446 203 452 q 193 440 199 440 q 183 445 186 440 q 178 467 180 450 q 175 505 175 490 q 173 522 174 513 q 168 551 172 530 l 165 538 q 155 439 155 497 q 155 412 155 421 q 159 385 155 396 q 180 292 169 353 q 192 233 184 263 q 203 194 199 203 q 214 180 205 191 q 248 144 237 153 q 298 124 271 124 l 307 124 z "},"R":{"ha":513,"x_min":28,"x_max":486,"o":"m 111 4 l 105 4 q 90 5 97 4 q 83 10 87 7 q 75 16 79 13 q 57 39 63 26 q 50 79 52 52 q 47 153 47 105 q 45 270 47 211 q 41 350 43 329 q 38 373 39 358 q 34 402 36 387 q 30 428 31 418 q 29 451 29 439 l 30 486 q 28 566 30 538 q 28 593 28 578 q 38 723 28 682 l 50 766 q 69 829 62 811 q 108 863 83 863 q 114 864 113 863 q 118 871 116 865 q 129 888 121 876 q 161 930 146 914 q 213 953 176 947 q 242 956 229 956 q 286 948 266 956 l 301 943 q 322 938 306 939 q 358 922 338 936 q 378 907 369 916 q 431 844 397 890 l 454 810 q 473 779 467 794 q 482 740 479 764 q 486 656 486 715 q 484 618 485 632 q 468 556 479 589 q 442 500 456 524 q 430 476 437 494 q 421 457 425 462 q 413 452 417 452 q 409 450 412 452 q 405 447 407 449 q 397 437 404 444 q 361 401 383 422 q 361 343 361 346 q 351 336 357 336 q 342 340 345 336 q 336 361 340 343 q 334 378 335 376 l 330 375 q 319 368 325 372 q 308 360 313 364 q 299 354 302 356 q 296 353 297 353 q 319 327 309 340 q 345 299 330 314 q 370 269 366 277 q 377 259 372 265 q 389 249 382 254 q 433 190 416 226 q 451 119 450 155 q 460 59 451 101 q 463 44 463 50 q 453 26 463 37 q 448 21 450 22 q 440 19 446 19 q 417 26 428 19 q 391 40 407 33 q 356 66 371 50 q 328 108 332 90 q 319 134 328 111 q 306 169 315 146 q 288 206 297 193 q 278 221 283 212 q 270 236 273 229 q 258 254 264 249 q 238 265 252 260 q 222 273 232 268 q 203 283 212 278 q 180 296 183 296 q 179 292 180 296 q 179 281 179 288 q 180 271 179 276 q 181 261 180 265 q 182 255 182 258 q 172 243 182 243 q 168 244 170 243 q 164 245 165 245 l 163 244 l 163 239 q 168 147 168 208 q 163 58 168 82 q 111 4 152 4 m 353 109 q 354 112 354 110 q 352 116 354 115 l 351 117 l 350 117 q 351 115 350 116 q 352 112 351 113 q 353 109 352 110 l 353 109 m 151 416 l 159 418 q 248 457 198 424 q 363 607 338 519 q 369 686 369 637 q 363 740 369 722 q 353 755 361 745 q 323 806 342 772 q 309 829 315 819 q 301 840 302 840 q 300 841 300 841 l 300 840 q 299 839 299 840 q 298 832 299 838 q 297 818 298 826 q 291 791 296 799 q 283 772 286 783 q 280 751 280 761 q 269 735 279 735 q 256 745 259 735 q 254 759 255 753 q 251 778 252 764 q 250 818 250 791 q 252 843 250 837 q 255 858 255 853 q 252 862 255 862 q 240 853 249 862 q 222 826 232 844 q 209 794 213 808 q 203 712 203 771 q 205 633 203 678 q 205 606 205 621 q 194 597 203 597 q 185 601 189 597 q 178 656 181 605 q 173 694 176 680 q 153 754 170 708 l 151 727 q 149 666 149 703 q 151 564 149 624 q 153 522 153 536 q 146 452 153 510 l 146 429 q 149 416 148 417 l 151 416 m 195 519 l 195 519 q 182 530 188 519 q 182 543 182 533 q 183 560 182 551 q 185 572 184 569 q 192 577 187 576 q 199 576 197 577 q 205 557 205 571 q 203 530 205 544 q 195 519 201 519 z "},"S":{"ha":627,"x_min":29,"x_max":593,"o":"m 270 8 q 191 18 220 8 q 151 40 174 24 l 111 63 q 71 94 92 73 q 46 124 54 112 q 37 153 39 136 q 32 178 34 171 q 29 192 29 186 q 31 202 29 195 q 41 227 32 208 q 85 283 65 283 q 97 278 91 283 q 103 269 103 273 q 105 265 103 267 q 110 260 106 262 q 121 246 117 256 q 126 232 125 234 q 141 219 129 227 q 169 203 153 211 q 200 182 184 195 q 227 145 220 165 q 231 123 229 139 l 248 121 q 301 119 262 119 q 339 122 330 119 q 361 130 344 123 l 373 134 q 444 214 401 144 q 471 270 466 250 q 473 290 473 279 q 472 308 473 296 q 457 345 471 328 q 429 369 439 363 q 327 387 406 381 l 292 390 q 290 351 290 357 q 291 323 290 337 q 293 305 293 310 q 292 302 293 303 q 283 293 290 293 q 275 296 278 293 q 271 311 272 300 q 269 322 271 316 q 264 360 264 341 l 264 397 q 186 415 199 411 l 178 416 l 177 284 q 181 267 177 277 q 185 256 184 260 q 184 250 185 252 q 176 243 181 243 q 160 257 167 243 q 151 315 151 273 l 152 351 q 149 385 152 367 q 121 435 140 425 q 80 463 99 446 q 53 498 62 480 q 37 554 42 520 q 35 584 35 570 q 50 647 35 605 l 61 687 l 62 697 l 62 705 q 54 743 54 725 q 65 789 54 762 q 123 863 77 815 q 225 943 177 920 q 256 957 249 956 q 273 961 264 959 q 317 967 292 966 q 346 966 340 967 q 359 962 351 965 q 371 958 366 960 q 390 951 380 956 l 391 949 q 406 940 396 947 q 430 926 413 935 q 464 892 447 917 q 488 821 488 856 q 463 764 488 781 q 444 758 452 758 q 432 762 437 758 q 416 789 427 766 q 406 814 412 795 q 392 802 404 810 q 388 797 388 800 q 383 789 388 793 q 374 785 378 785 q 360 802 363 785 q 355 817 359 812 q 352 823 353 819 q 351 846 351 827 q 349 849 351 848 q 338 851 345 851 q 333 835 335 850 q 331 817 332 827 q 328 798 329 807 q 323 758 326 786 q 321 735 323 741 q 312 730 319 730 q 307 731 310 730 q 298 745 300 734 q 291 818 295 755 q 289 819 291 819 q 279 816 287 819 q 242 790 256 804 q 223 776 228 778 q 210 763 216 772 q 201 745 204 755 q 201 734 201 742 q 205 714 201 732 l 205 703 q 205 694 205 696 q 190 685 201 685 q 183 687 186 685 q 180 689 181 689 q 179 688 179 689 q 178 683 178 688 q 156 621 172 654 q 140 585 147 604 l 144 570 q 154 550 147 557 q 177 538 160 543 q 227 526 193 533 q 294 513 263 521 q 317 509 307 511 q 332 507 328 507 q 399 500 351 507 q 482 477 449 493 q 526 446 503 466 q 590 327 582 397 q 593 290 593 308 q 584 231 593 263 q 536 142 574 199 q 514 111 523 122 q 487 81 505 99 q 451 50 465 59 q 417 35 437 41 l 382 22 q 331 12 352 12 q 325 12 327 12 q 319 13 322 13 l 311 12 q 270 8 279 8 m 282 207 q 273 220 273 207 q 277 237 273 233 q 284 241 281 241 q 294 224 294 241 q 282 207 291 207 z "},"T":{"ha":728,"x_min":37,"x_max":701,"o":"m 357 -21 q 327 -17 338 -21 q 310 -14 315 -14 q 301 -10 305 -14 q 296 -1 297 -6 q 304 14 296 6 q 319 21 312 21 q 323 22 323 21 q 324 24 324 23 q 313 56 324 34 q 308 70 309 64 q 307 96 307 77 q 309 124 307 111 q 311 141 311 134 l 307 155 q 297 223 297 189 q 301 258 297 245 q 304 281 304 263 l 302 316 q 304 340 302 330 q 308 374 308 363 q 303 399 308 382 q 296 441 301 408 q 292 490 295 463 q 287 576 288 518 q 283 645 286 636 q 280 711 280 661 q 281 738 280 730 q 282 751 281 746 q 281 761 282 755 q 277 777 280 766 q 272 815 272 798 q 276 846 272 824 q 269 853 273 850 q 263 861 265 857 q 260 867 260 865 q 258 869 259 869 q 256 870 257 870 q 253 869 256 870 q 142 865 251 869 q 120 863 123 864 q 109 831 110 862 q 106 811 108 815 q 99 806 104 806 q 95 806 98 806 q 91 808 93 806 q 87 813 89 810 q 84 821 85 817 q 83 828 83 824 q 83 836 83 833 l 83 868 l 73 871 q 40 901 47 880 q 37 916 37 908 q 45 941 37 928 q 47 942 46 941 l 56 950 q 82 961 64 957 q 109 966 101 964 q 125 970 125 970 q 188 980 168 979 q 237 987 208 982 q 298 991 271 991 q 346 987 324 991 q 379 985 360 985 q 439 989 406 985 q 458 991 450 991 q 473 990 465 991 q 499 981 481 989 q 522 975 515 975 l 583 978 q 656 980 623 980 q 688 968 678 977 l 693 964 q 701 939 701 954 q 680 905 701 913 l 669 901 l 555 902 l 555 901 q 536 883 546 891 q 522 865 530 878 q 504 846 513 846 q 492 855 495 846 q 491 871 491 861 l 492 899 q 463 896 474 899 q 425 880 428 888 q 419 852 425 876 q 407 791 414 828 q 399 673 399 753 q 401 579 399 631 q 404 427 404 526 q 410 235 404 260 q 412 196 412 218 q 407 142 412 165 q 401 86 403 130 l 400 58 q 395 31 399 43 q 391 14 391 18 q 392 12 391 13 q 393 3 393 10 q 357 -21 393 -21 z "},"U":{"ha":598,"x_min":28,"x_max":570,"o":"m 287 -18 l 275 -18 q 191 2 216 -18 q 132 55 163 23 q 90 106 101 87 q 74 155 81 126 q 66 214 67 184 q 61 259 64 235 q 52 303 57 283 q 49 318 50 311 q 47 329 47 326 q 44 336 46 333 q 40 342 43 340 q 37 348 38 344 q 35 363 36 353 q 35 395 35 373 q 35 435 35 407 q 38 505 36 464 q 41 557 39 546 q 43 590 43 564 q 31 747 43 673 q 28 770 28 759 q 37 814 28 792 q 44 850 43 834 q 48 876 45 866 q 56 898 51 886 q 114 941 79 939 q 129 939 123 941 q 142 935 132 937 q 184 895 175 928 q 192 884 186 885 q 197 873 197 882 l 197 866 q 201 849 197 857 q 204 839 203 844 q 206 823 206 833 q 197 807 206 808 l 191 806 q 190 732 191 747 q 186 702 189 718 q 182 670 184 690 q 178 633 180 651 q 174 590 175 593 q 174 587 174 588 l 181 587 q 197 576 197 587 q 195 568 197 572 q 192 555 192 563 q 196 530 192 545 q 203 478 203 503 q 197 437 203 456 q 195 411 195 427 q 203 349 199 355 q 210 319 205 345 l 211 317 q 214 295 214 304 q 209 239 214 278 q 208 231 208 236 q 206 204 206 218 q 208 185 206 193 q 210 168 210 174 l 208 163 q 203 156 205 157 l 203 155 q 222 117 203 146 q 245 85 233 98 l 267 89 q 394 165 328 96 l 425 195 l 424 198 q 420 258 422 228 q 419 281 419 268 q 421 330 419 316 l 422 334 q 421 335 422 335 q 419 334 420 335 q 415 332 418 332 q 406 336 409 332 q 401 357 402 340 q 400 401 400 369 l 401 418 q 399 446 401 435 q 397 471 397 466 q 398 516 397 494 q 400 550 399 538 l 401 562 q 400 569 401 566 q 397 576 399 572 q 393 598 393 588 q 397 618 393 609 q 413 642 401 627 q 430 664 424 657 q 437 681 437 670 q 435 697 437 687 q 434 718 435 703 q 432 752 433 734 q 431 783 432 770 q 430 798 431 796 q 429 819 429 800 q 431 862 429 838 l 432 877 l 433 882 q 432 886 433 884 q 431 889 432 888 q 420 913 420 900 q 427 937 420 928 q 452 962 429 940 l 463 972 q 462 972 462 972 l 464 974 q 481 979 470 976 q 500 981 493 981 q 509 980 503 981 q 521 977 515 979 q 533 972 533 972 l 533 971 q 535 967 533 969 q 549 950 547 954 l 550 948 q 555 933 553 942 l 559 917 q 570 857 570 878 q 569 847 570 851 l 568 830 l 569 814 q 570 805 570 810 l 569 789 q 564 743 567 753 q 553 728 562 736 l 553 673 q 556 593 553 614 q 559 526 559 564 q 556 470 559 487 q 555 463 555 468 q 552 454 554 458 q 549 446 550 450 q 546 436 549 443 q 541 422 543 429 q 534 363 538 404 q 532 297 532 336 q 538 258 532 283 q 545 198 545 224 q 523 124 545 153 q 485 84 512 111 q 421 30 451 50 q 357 -3 392 10 q 321 -15 334 -12 q 287 -18 309 -17 z "},"V":{"ha":671,"x_min":29,"x_max":642,"o":"m 391 -16 q 358 -12 372 -16 q 284 27 311 -1 q 235 124 258 56 q 224 151 230 138 q 216 172 219 165 q 188 245 195 220 q 176 309 180 271 q 167 361 173 341 q 150 401 161 382 q 142 416 146 408 q 136 432 138 425 q 126 463 131 450 q 114 496 122 475 q 104 524 109 509 q 96 551 99 540 q 88 577 92 563 q 79 601 83 591 q 62 679 66 637 q 61 690 62 686 q 60 693 61 693 q 58 694 60 694 l 54 692 q 32 757 40 692 q 29 789 29 775 q 42 839 29 811 q 84 882 58 873 q 108 888 97 888 q 142 871 127 888 q 159 845 150 863 q 169 818 168 827 q 175 797 170 809 q 185 778 180 785 q 192 764 190 771 q 203 747 193 757 q 224 704 224 726 q 219 673 224 691 q 214 635 214 652 q 216 614 214 618 q 224 581 224 605 q 233 535 224 556 q 236 521 236 525 q 241 509 236 517 q 252 468 250 490 q 255 457 253 461 q 262 447 257 453 q 281 410 275 433 q 284 399 282 406 q 289 388 287 393 q 300 352 297 368 q 304 306 304 336 q 306 277 305 289 q 308 262 307 264 q 312 253 308 260 q 320 234 315 245 q 329 218 326 224 q 344 203 334 209 l 357 194 l 358 194 q 369 206 360 194 q 385 230 376 219 q 397 256 397 244 q 395 264 397 260 q 393 273 393 269 q 401 284 393 279 q 407 288 405 286 q 411 298 409 291 q 415 321 412 306 q 425 366 418 342 q 433 437 431 393 q 431 460 433 454 l 429 467 q 425 451 427 459 q 422 437 423 442 q 419 430 420 432 q 414 426 417 427 q 408 424 411 424 q 401 426 405 424 q 398 433 398 429 q 398 437 398 435 q 400 446 399 439 q 403 463 401 453 q 406 481 404 472 q 409 497 408 491 q 411 508 411 504 l 408 519 q 406 541 406 530 q 422 602 406 577 l 428 611 l 424 621 q 420 646 420 631 q 423 661 420 654 q 431 677 425 667 q 437 689 435 684 q 440 703 439 695 q 468 791 445 743 q 494 829 481 815 q 515 856 512 850 q 526 874 519 866 q 538 887 532 882 q 560 892 543 891 l 587 896 q 597 897 593 897 q 620 890 609 897 q 642 843 640 875 q 639 781 642 820 q 631 705 635 741 l 622 642 q 595 503 610 559 q 574 362 575 431 q 532 163 574 287 q 515 119 522 134 q 500 95 508 105 q 494 87 496 90 q 486 60 490 79 q 477 27 481 37 q 391 -16 453 -16 m 66 495 l 65 495 q 59 498 61 495 q 52 522 54 501 q 50 549 50 536 q 50 561 50 552 q 53 574 50 570 q 61 578 56 578 q 66 577 64 578 q 71 566 69 575 q 73 542 73 556 q 75 515 73 528 l 77 504 q 76 502 77 503 q 73 498 75 500 q 66 495 71 495 z "},"W":{"ha":1011,"x_min":30,"x_max":984,"o":"m 397 -77 q 345 -64 369 -77 l 332 -58 l 328 -54 q 243 56 262 0 q 230 84 240 68 q 208 136 214 108 q 184 214 193 193 q 165 274 174 235 q 162 295 163 285 q 161 354 161 306 l 152 376 q 134 444 138 408 q 127 478 132 460 q 119 536 120 501 l 118 554 q 115 589 115 574 q 112 605 115 600 l 111 606 l 109 606 q 103 570 106 600 l 93 502 l 87 457 q 84 430 85 439 q 81 410 83 414 q 71 402 78 402 q 62 407 66 402 l 56 412 l 56 451 q 57 488 56 467 q 58 522 58 508 q 59 543 59 535 q 56 564 59 555 q 50 605 52 575 q 45 644 48 635 q 39 704 40 659 q 33 745 35 737 q 30 768 30 755 q 31 782 30 771 q 39 819 31 793 q 54 866 47 850 q 71 891 61 882 q 80 905 80 901 q 85 918 81 910 q 131 948 101 948 q 168 931 152 948 q 175 921 175 924 l 176 921 q 181 924 178 921 q 189 926 184 926 q 203 920 199 926 q 203 913 203 918 l 203 903 q 201 876 201 888 q 207 832 201 854 q 215 800 214 810 q 221 728 218 787 q 223 684 223 693 q 221 679 222 681 q 218 675 220 677 q 214 669 214 671 l 214 668 q 217 664 214 666 q 231 638 228 656 q 237 605 233 624 q 241 580 239 594 q 244 551 243 566 q 250 510 245 521 q 264 459 258 492 q 271 428 267 444 q 279 404 275 411 q 305 362 281 399 q 337 307 328 328 q 349 262 346 286 q 370 214 352 243 q 396 183 382 195 q 436 153 435 153 l 452 163 q 483 179 469 174 q 500 186 493 182 q 505 195 500 187 q 515 214 509 203 q 536 248 526 237 l 546 256 q 560 331 549 274 q 570 411 570 376 q 571 454 570 447 q 572 465 572 460 q 571 469 572 469 q 566 452 570 469 q 558 427 562 435 l 551 406 q 537 391 545 391 q 530 394 534 391 q 526 403 526 398 l 526 412 q 531 437 528 425 q 534 457 534 449 q 535 469 534 461 q 538 484 536 477 q 546 568 546 520 q 549 605 546 593 q 562 631 552 617 q 572 652 570 644 l 574 665 q 578 703 575 684 q 586 731 582 722 q 618 768 591 740 q 643 791 635 784 q 673 801 655 801 q 711 786 692 801 q 739 732 731 770 q 742 622 742 714 q 740 574 741 588 q 736 545 738 560 q 734 506 734 533 q 739 388 734 452 q 741 347 740 368 q 742 315 741 326 l 742 289 q 752 283 748 286 q 758 273 755 279 l 765 254 q 773 236 767 248 q 787 215 780 225 q 798 201 794 204 q 804 195 802 197 l 807 201 q 817 208 811 208 q 829 202 823 208 q 831 196 830 201 q 833 187 832 192 q 838 174 834 176 q 840 175 839 174 q 842 184 841 175 l 843 198 q 846 317 843 230 q 851 391 846 368 q 861 425 854 405 q 880 505 873 467 l 883 523 q 881 532 883 528 q 876 574 876 549 q 882 637 876 591 q 887 673 885 661 q 890 697 890 686 q 886 723 890 708 q 881 751 884 732 q 878 764 881 762 q 872 756 877 764 q 861 679 863 739 q 851 595 859 629 q 845 566 847 576 q 843 535 843 555 l 843 500 q 833 483 843 483 q 825 486 829 483 q 823 490 824 488 q 822 500 822 492 q 826 584 822 570 q 831 613 829 597 l 835 642 q 839 854 838 655 l 845 870 q 850 897 850 885 l 850 930 q 854 947 850 939 l 859 958 l 869 968 q 895 978 882 978 q 922 968 908 978 l 932 961 l 934 958 q 940 951 935 956 l 947 935 q 952 883 951 922 q 958 818 953 844 l 962 791 q 968 727 966 734 q 972 673 970 720 q 979 599 973 627 q 982 577 981 586 q 984 557 983 568 q 981 455 984 484 q 972 394 979 427 q 968 373 969 382 q 965 309 966 358 l 962 235 q 960 189 960 214 q 954 136 959 165 q 930 55 942 78 q 908 26 923 40 q 857 -5 884 4 q 833 -7 850 -7 q 796 1 812 -7 q 786 4 789 3 q 775 3 781 4 q 765 1 770 1 q 703 41 732 1 q 694 52 701 45 q 680 66 688 59 q 665 83 670 76 q 656 122 658 94 q 653 149 656 141 q 651 157 652 153 l 651 164 l 652 170 q 650 166 651 170 q 646 155 648 161 l 640 132 q 624 98 637 119 q 598 60 612 77 q 591 52 595 57 q 586 45 588 47 q 567 30 576 30 q 542 10 562 30 q 509 -20 526 -5 q 473 -49 492 -35 l 462 -58 l 446 -65 q 397 -77 423 -77 m 195 715 l 196 718 l 195 721 q 195 719 195 720 q 195 715 195 715 z "},"X":{"ha":655,"x_min":27,"x_max":623,"o":"m 594 361 q 581 382 581 361 q 591 397 581 397 q 602 380 600 397 l 603 375 q 594 361 603 361 m 568 -10 q 518 9 545 -10 q 441 102 476 39 q 398 170 433 118 q 375 208 387 187 q 359 229 363 229 q 355 230 357 229 q 350 231 352 230 q 347 231 348 231 q 343 231 345 231 q 338 225 342 230 q 331 207 335 221 q 328 182 328 192 q 321 165 328 170 q 315 163 318 163 q 307 167 311 163 q 303 186 303 171 l 302 201 q 276 172 290 187 q 256 147 263 156 q 246 133 248 138 q 244 124 244 128 l 244 123 q 235 85 244 106 q 169 26 218 54 q 138 8 151 17 q 113 -4 125 -1 q 87 -8 102 -8 q 72 -7 77 -8 q 60 -2 67 -6 q 50 4 55 0 q 41 12 45 8 q 31 28 35 18 q 27 47 27 39 q 31 68 28 56 q 37 86 33 81 q 48 96 41 92 q 60 100 56 100 q 71 106 62 100 q 98 125 90 117 q 102 132 98 127 q 119 153 116 147 q 125 169 122 158 q 145 214 132 189 q 155 236 151 225 q 161 251 159 246 q 187 293 168 271 q 229 330 206 316 l 243 338 q 244 368 243 364 q 249 378 245 372 q 253 386 252 383 q 252 392 253 388 q 240 427 244 410 q 233 475 237 444 q 228 511 229 501 q 222 528 226 521 q 210 546 218 534 q 171 621 184 581 q 154 659 161 646 q 140 690 144 675 q 134 725 136 705 q 131 746 132 745 l 130 722 q 130 690 130 712 q 131 664 130 680 l 132 652 q 131 646 132 648 q 128 641 130 644 q 121 638 125 638 q 114 641 117 638 q 101 714 106 648 l 98 749 q 100 766 98 759 q 101 782 101 772 q 100 810 101 791 q 98 838 98 828 q 99 849 98 846 q 100 857 100 853 l 98 865 q 92 888 92 877 q 129 937 92 923 q 132 938 130 937 q 138 939 134 939 q 159 937 146 939 q 186 920 174 930 q 201 909 194 911 q 217 898 208 907 q 232 878 226 889 q 245 846 235 873 q 267 794 254 823 q 279 770 275 780 q 301 709 283 760 q 317 670 310 684 l 330 641 q 342 623 336 624 q 357 609 351 619 q 363 589 363 595 q 367 583 363 587 l 386 562 q 406 566 402 564 q 417 581 410 568 l 422 591 q 437 652 437 622 q 434 687 437 667 q 431 724 431 707 q 519 890 431 827 q 581 913 555 913 q 611 903 602 913 q 623 876 623 891 q 610 844 623 861 l 601 831 l 604 802 q 607 755 607 775 q 605 705 607 735 q 602 678 604 687 q 599 667 601 669 q 594 665 597 665 q 582 671 585 665 q 580 696 580 678 q 578 721 580 721 q 572 676 576 721 q 567 660 570 663 q 562 638 564 656 q 535 536 558 584 q 508 493 526 518 q 474 448 491 467 q 449 416 456 428 q 442 388 442 405 q 448 369 442 381 q 456 349 454 356 q 476 304 458 338 l 487 283 q 506 240 502 253 q 515 221 509 232 q 557 148 520 214 q 584 106 569 125 q 616 39 616 64 q 614 30 616 35 q 568 -10 606 -10 m 591 427 q 584 430 589 427 q 580 457 580 433 q 581 495 580 471 q 582 532 581 520 q 586 547 583 543 q 593 550 589 550 q 601 548 597 550 q 604 522 604 545 l 603 486 q 602 440 603 456 q 591 427 601 427 z "},"Y":{"ha":568,"x_min":29,"x_max":540,"o":"m 294 -12 q 237 7 260 -12 q 219 14 232 13 q 189 21 206 16 q 161 32 172 26 q 136 50 150 37 q 124 60 131 55 q 113 69 117 66 q 83 151 83 92 l 83 154 q 81 184 83 168 q 79 199 79 191 l 80 208 q 78 232 80 216 q 75 261 75 248 q 76 274 75 264 q 81 288 77 283 q 89 292 85 292 q 96 288 92 292 q 100 285 98 287 q 104 263 102 279 q 128 187 107 235 q 164 134 146 147 q 174 126 168 132 q 184 117 180 121 q 203 106 193 109 q 233 101 212 102 l 245 100 q 254 103 251 100 q 262 106 257 106 q 269 103 267 106 q 277 100 272 100 q 310 111 288 100 q 338 123 326 120 q 347 125 343 123 q 354 133 350 127 q 385 179 374 157 l 391 193 l 391 231 q 396 288 391 268 q 400 321 400 304 q 397 355 400 327 q 395 348 396 351 q 392 340 393 345 q 389 330 391 334 q 376 312 385 312 q 365 324 365 312 l 366 330 q 367 348 367 336 q 374 376 367 359 q 378 392 378 389 q 378 393 378 393 q 323 370 342 377 q 276 361 298 361 q 233 363 250 361 q 144 396 182 371 q 93 447 121 412 l 94 431 q 79 401 94 401 q 66 422 68 401 q 53 471 65 437 q 45 516 47 487 l 43 538 q 46 562 43 553 l 47 567 q 34 659 47 590 q 29 709 29 684 q 44 813 29 747 q 71 911 62 897 q 107 933 85 933 q 128 927 115 933 l 129 926 q 138 921 135 924 q 144 913 142 919 q 153 890 153 893 q 165 871 158 878 q 176 856 174 861 q 183 802 183 844 q 187 755 183 771 q 200 682 196 717 l 205 640 q 207 617 207 624 q 205 611 207 613 q 197 606 202 606 q 192 606 196 606 q 185 613 189 606 q 182 623 184 616 q 179 637 180 629 q 175 652 177 644 q 172 663 173 659 q 169 673 171 666 q 166 688 168 680 q 162 705 164 696 q 158 720 159 713 q 153 733 156 726 l 153 719 q 157 680 153 705 q 167 623 163 652 q 190 530 178 557 q 206 508 196 519 q 227 492 216 498 q 273 481 255 481 q 299 487 282 481 q 328 498 317 492 q 352 523 340 504 q 372 564 365 542 q 381 600 377 580 q 385 633 385 619 q 386 660 385 643 q 389 693 387 677 q 391 712 390 708 l 392 714 q 389 717 392 716 q 376 756 376 720 q 379 781 376 768 q 394 817 382 793 q 412 849 408 845 q 423 873 416 854 q 443 905 433 896 q 465 914 452 914 q 496 895 486 914 q 503 861 500 884 q 505 838 503 852 q 513 755 512 775 q 523 680 517 710 q 529 643 527 659 q 535 586 531 627 l 538 559 q 540 515 540 536 q 538 480 540 497 q 537 463 538 473 q 535 442 536 452 q 532 417 534 432 q 527 390 530 403 q 523 361 525 378 q 519 331 520 345 q 517 302 518 317 q 514 278 515 288 q 512 255 513 269 q 511 227 511 241 l 511 215 q 453 64 511 136 q 369 6 407 6 q 354 2 364 6 q 294 -12 325 -12 z "},"Z":{"ha":667,"x_min":32,"x_max":636,"o":"m 130 -59 q 91 -52 110 -59 q 34 13 45 -36 q 32 29 32 21 q 74 119 32 67 q 98 153 89 136 q 109 172 103 163 q 114 188 112 174 q 129 218 117 202 q 160 268 154 249 q 165 280 162 273 q 171 292 168 287 q 197 350 192 327 q 210 382 199 362 q 223 416 221 408 q 243 456 230 439 q 263 484 254 469 q 289 515 281 508 q 325 563 305 533 q 357 620 344 592 q 394 664 369 644 q 448 753 430 694 q 456 779 456 774 q 445 783 456 782 q 419 781 431 783 q 380 778 401 778 q 340 781 361 778 q 276 785 319 784 l 232 786 l 228 781 q 213 703 214 766 q 211 676 212 685 q 208 665 210 667 q 202 662 206 662 q 193 667 195 662 q 191 687 191 672 q 191 702 191 696 q 178 738 189 711 q 171 755 173 750 q 169 766 170 761 q 168 775 169 770 l 123 775 q 127 738 124 751 q 132 671 132 705 q 129 664 131 666 q 122 662 127 662 q 114 669 117 662 q 102 715 111 676 q 92 729 102 718 q 80 748 82 741 q 71 772 77 758 q 64 798 64 789 q 59 817 64 807 q 54 837 54 827 q 60 859 54 848 q 110 886 71 886 l 115 886 q 155 891 136 886 l 165 893 q 214 904 180 899 q 307 907 238 907 q 342 905 332 907 q 372 903 356 903 q 421 907 395 903 q 449 910 436 909 q 479 911 462 911 q 513 910 508 911 q 547 892 536 903 q 553 888 550 890 q 572 886 555 887 q 621 867 604 885 q 636 824 636 852 q 631 789 636 809 q 621 754 627 769 q 600 710 615 739 q 568 656 584 680 q 526 596 552 631 q 500 562 509 574 q 474 510 485 538 q 456 469 465 486 q 433 428 448 452 q 399 376 411 393 q 372 345 387 359 q 341 312 360 334 q 320 288 325 293 q 312 279 315 283 q 309 274 309 275 q 302 264 309 272 q 284 236 295 256 q 245 151 257 186 q 241 128 241 136 l 242 94 q 237 75 241 87 l 252 75 l 256 74 l 261 75 q 304 82 277 78 q 341 87 331 85 q 397 91 357 91 l 423 91 q 448 87 441 90 q 462 84 457 84 q 494 88 479 84 q 504 91 501 90 q 509 93 507 92 l 517 92 l 560 86 q 578 87 572 86 l 582 88 q 590 84 585 88 q 594 74 594 80 q 591 63 594 68 q 587 58 587 59 q 591 58 587 58 q 600 52 595 58 q 609 31 609 43 q 600 1 609 15 q 586 -10 595 -5 q 565 -15 577 -15 q 511 -16 556 -16 l 496 -17 q 475 -22 487 -19 q 449 -26 463 -26 q 360 -26 439 -26 q 338 -26 349 -26 q 233 -27 247 -26 q 218 -30 224 -28 q 200 -39 211 -33 q 130 -59 163 -59 m 192 77 q 194 78 193 77 q 195 80 195 79 l 193 81 q 191 79 191 80 q 192 77 191 77 m 218 312 q 231 328 220 312 q 251 362 236 335 q 277 404 262 385 q 338 515 300 437 q 358 564 349 538 l 367 590 l 365 586 q 359 576 362 582 q 304 495 336 532 q 290 473 298 488 q 273 447 281 458 q 260 433 264 435 q 253 423 257 432 q 241 392 249 414 q 232 363 237 380 q 218 313 222 330 l 218 312 z "},"[":{"ha":397,"x_min":28,"x_max":362,"o":"m 109 -10 q 90 -8 98 -10 q 29 66 35 8 q 28 134 28 79 q 37 278 31 216 q 41 314 39 294 q 44 347 43 333 q 47 376 45 360 q 50 403 48 392 q 52 434 51 414 q 58 546 55 522 q 68 618 65 591 q 79 740 72 648 q 90 837 83 802 q 101 876 94 853 q 125 931 113 913 q 156 956 136 948 q 228 971 186 971 q 255 970 241 971 q 304 962 286 967 q 336 947 322 957 q 362 902 362 927 q 353 878 362 889 q 345 853 348 871 q 342 812 342 834 q 331 724 342 779 l 323 666 q 321 660 322 661 q 316 659 320 659 q 310 663 311 659 q 308 709 308 667 q 313 805 308 757 l 314 838 l 318 863 q 310 863 314 863 q 299 861 306 862 q 284 859 292 860 q 271 857 277 858 q 260 855 264 855 q 251 854 256 854 l 250 804 q 249 759 250 774 q 245 730 248 744 q 241 707 243 720 q 237 668 237 678 q 235 656 236 657 q 232 654 233 655 l 227 654 q 227 682 227 656 q 226 745 226 707 l 224 836 l 221 823 q 210 726 214 793 q 197 562 205 623 q 192 515 193 536 q 190 458 191 495 q 188 408 189 433 q 185 372 186 384 q 182 344 184 361 q 179 313 180 327 q 176 279 178 299 q 173 242 174 259 q 170 205 171 225 q 168 173 168 186 q 167 147 168 159 q 166 127 166 134 q 165 113 165 121 l 203 112 q 248 108 241 111 q 262 83 262 98 q 252 60 262 73 q 231 44 247 56 q 172 5 191 15 q 109 -10 141 -10 z "},"\\":{"ha":600,"x_min":33,"x_max":568,"o":"m 500 1 q 489 2 496 1 q 477 5 482 3 q 460 14 465 9 q 452 22 456 18 q 391 127 439 32 l 370 170 l 360 169 q 357 170 359 169 q 354 187 355 171 l 350 220 q 321 288 347 236 l 300 330 q 260 411 267 396 q 243 443 245 443 q 247 424 243 442 q 252 402 251 406 q 250 395 252 398 q 243 393 247 393 q 235 404 238 393 l 222 450 q 117 711 183 600 l 102 737 l 100 659 q 109 544 100 614 q 110 534 110 538 q 101 526 110 526 q 96 528 98 526 q 83 564 92 531 q 71 635 72 610 q 68 697 68 649 q 67 747 68 729 q 62 780 66 766 q 50 814 58 793 q 33 877 35 852 q 42 922 33 903 q 72 949 52 941 q 96 955 83 955 q 121 950 110 955 q 158 903 149 936 q 194 842 158 896 q 237 776 227 791 q 301 652 266 729 q 324 602 311 630 q 378 486 343 559 l 391 460 q 422 396 412 414 q 488 250 464 318 q 520 179 502 216 q 553 114 528 164 l 564 93 q 568 74 568 82 q 567 69 567 72 q 566 51 567 56 q 561 39 565 47 q 547 19 553 25 q 545 18 545 18 q 534 9 540 12 l 525 5 q 513 2 519 3 q 500 1 506 1 z "},"]":{"ha":397,"x_min":35,"x_max":369,"o":"m 288 -10 q 263 -8 279 -10 q 199 21 235 -3 q 145 60 163 45 q 135 83 135 73 q 151 108 135 99 q 164 111 155 110 q 233 113 174 111 l 232 127 q 230 172 230 148 q 225 242 229 200 l 212 372 q 208 458 208 407 q 201 562 205 523 q 187 726 192 623 q 176 823 184 793 l 173 836 l 172 745 q 171 682 172 707 q 170 654 170 656 l 165 654 q 162 656 164 655 q 160 666 161 657 q 157 707 159 675 l 153 730 q 148 804 148 754 l 146 854 q 138 855 142 854 q 127 857 134 855 q 113 859 120 858 q 99 861 106 860 q 88 863 92 862 q 79 863 84 863 l 81 850 q 84 823 84 840 q 87 779 84 812 q 90 701 90 741 q 88 662 90 668 q 81 659 85 659 q 76 660 78 659 q 71 700 75 661 l 66 724 q 56 812 56 779 q 50 869 56 845 q 44 878 47 874 q 35 902 35 889 q 38 920 35 907 q 62 947 41 932 q 93 962 75 957 q 142 970 111 967 q 170 971 157 971 q 241 956 212 971 q 273 931 261 948 q 296 876 284 913 q 303 854 300 865 q 307 837 306 843 q 319 740 315 802 l 324 674 q 339 546 328 622 q 344 473 342 519 q 348 403 346 421 l 357 314 q 360 278 358 294 q 366 207 364 237 q 369 134 368 177 q 368 63 369 79 q 360 34 366 46 q 308 -8 345 3 q 288 -10 299 -10 z "},"^":{"ha":54,"x_min":0,"x_max":0,"o":""},"_":{"ha":701,"x_min":34,"x_max":662,"o":"m 89 -90 q 86 -89 88 -90 q 71 -56 83 -89 q 68 -18 68 -50 l 68 14 l 56 20 q 34 52 34 33 q 43 73 34 63 q 53 82 47 79 q 73 87 60 85 q 144 94 90 90 l 172 97 q 339 110 254 105 l 382 112 l 387 111 l 458 111 q 554 114 530 111 q 597 117 579 117 q 627 113 617 117 q 662 64 662 98 q 635 20 662 37 q 627 15 630 17 q 619 -12 623 10 q 612 -33 616 -24 q 604 -43 607 -43 q 599 -39 599 -43 q 601 -31 599 -35 q 604 -18 602 -26 q 607 -1 606 -9 l 608 5 q 607 8 608 7 l 585 5 q 548 -1 562 1 q 492 -3 532 -3 l 383 -3 l 383 -2 l 237 -4 q 163 -2 197 -4 q 93 7 126 0 q 93 -3 93 2 q 92 -17 92 -9 q 90 -33 91 -25 q 88 -51 88 -44 q 90 -68 88 -58 q 92 -84 92 -79 q 89 -90 92 -90 z "},"`":{"ha":54,"x_min":0,"x_max":0,"o":""},"a":{"ha":526,"x_min":29,"x_max":498,"o":"m 450 32 q 426 46 436 32 q 414 121 414 65 q 412 145 414 134 q 401 202 412 153 q 393 232 395 228 q 386 239 392 236 q 368 242 378 242 q 359 241 362 242 q 353 237 356 240 q 340 231 347 233 q 320 217 332 229 q 304 206 307 206 q 296 210 300 206 q 292 216 292 213 q 291 219 292 219 l 289 218 q 256 212 274 212 l 238 212 q 227 170 233 191 q 218 115 222 149 l 216 92 q 204 74 213 74 q 197 77 200 74 q 191 83 193 81 l 193 158 q 177 198 180 187 q 174 204 176 203 q 169 207 172 206 q 164 208 165 207 l 161 208 l 156 182 q 141 123 151 155 q 125 77 132 92 q 77 32 106 34 q 66 33 69 32 q 30 82 37 39 q 29 98 29 89 q 39 178 29 125 q 54 259 47 220 q 69 339 60 298 q 83 402 77 380 q 102 457 92 430 q 166 632 130 530 q 199 725 192 707 q 214 760 205 743 q 230 793 223 777 q 328 936 261 872 q 370 968 355 960 q 396 975 387 975 l 403 975 q 424 968 412 973 q 493 872 474 941 q 498 842 498 854 q 497 784 498 795 q 493 759 496 774 q 484 677 484 719 q 487 632 484 655 q 495 506 495 562 q 488 369 495 451 q 484 303 484 330 q 486 269 484 283 q 493 168 493 216 l 490 121 q 463 35 486 44 q 450 32 456 32 m 132 268 q 134 274 134 269 q 134 278 134 278 q 132 276 133 278 q 131 273 132 275 q 131 270 131 271 q 132 268 131 268 l 132 268 m 271 273 q 311 277 300 274 q 335 278 318 278 q 352 281 352 278 q 357 296 353 285 q 365 320 361 308 q 371 337 369 332 q 374 348 373 341 q 380 408 376 359 l 385 465 q 393 579 393 548 q 392 602 393 584 q 386 649 392 619 l 380 678 q 372 619 375 635 q 361 562 363 579 q 356 536 359 551 q 352 506 354 527 q 349 488 351 492 q 341 483 347 483 q 332 487 334 483 q 330 503 330 492 q 333 543 330 530 q 337 567 335 551 q 341 587 337 576 q 349 689 349 608 l 348 704 q 345 729 348 720 q 340 737 342 737 q 332 716 339 737 q 323 677 327 699 q 313 646 316 649 q 305 643 309 643 q 300 644 302 643 q 297 645 298 644 q 296 646 296 646 q 283 617 294 646 l 267 581 q 222 466 239 513 q 193 378 196 394 q 182 363 191 372 q 149 319 153 332 q 142 307 146 311 q 135 298 138 302 q 132 290 132 293 q 133 288 132 288 q 138 294 136 288 q 146 300 144 300 q 160 315 152 304 q 180 333 173 333 q 181 333 180 333 q 182 330 182 332 q 179 313 182 325 q 177 296 177 300 l 177 294 l 180 294 q 188 296 183 294 q 202 297 195 297 q 229 293 212 297 q 258 281 247 290 l 271 273 z "},"b":{"ha":561,"x_min":28,"x_max":534,"o":"m 238 26 l 222 26 q 197 28 220 27 q 153 33 170 30 q 110 43 133 35 l 103 43 q 96 41 100 43 q 77 39 92 39 q 65 43 72 39 q 35 94 39 54 q 31 162 31 141 q 31 172 31 170 q 30 191 31 186 q 28 273 28 208 q 31 306 28 286 q 37 350 36 323 q 42 408 39 376 q 45 440 45 435 q 44 445 45 444 q 41 507 43 449 q 37 589 39 565 q 35 629 35 602 q 52 861 35 777 q 59 888 56 880 q 68 901 62 896 q 88 909 77 909 q 109 903 93 909 l 122 913 q 155 932 135 922 q 190 947 175 943 q 248 951 205 951 q 305 947 290 951 q 373 915 326 941 q 463 789 430 881 q 477 734 477 751 l 477 720 q 469 634 477 665 l 461 602 q 448 564 457 583 q 438 540 438 545 q 435 529 438 537 q 426 504 429 507 q 423 501 423 502 q 429 498 423 499 q 479 459 458 492 l 487 448 q 509 404 500 429 q 534 268 534 336 q 530 239 534 253 q 515 207 526 226 q 459 130 486 151 l 441 115 q 418 99 429 104 q 394 79 408 95 q 358 51 380 64 q 330 36 341 40 q 301 30 319 33 q 238 26 283 28 m 283 803 q 289 806 286 803 q 292 810 292 809 q 291 813 292 812 q 287 817 289 815 q 283 818 285 818 q 279 815 281 818 q 277 810 277 813 q 279 805 277 808 q 283 803 281 803 m 213 515 q 226 517 218 515 q 248 524 234 520 q 264 527 260 525 q 288 545 271 531 q 347 606 332 583 q 360 637 355 618 l 369 665 q 372 684 372 671 q 374 711 372 692 l 374 721 q 372 731 374 725 q 366 751 370 738 q 339 809 352 785 q 319 833 326 832 q 315 829 318 833 q 302 806 304 813 q 300 790 300 800 q 287 767 298 767 q 278 772 281 767 q 274 789 275 777 q 267 816 273 801 q 264 831 264 824 l 264 836 q 264 837 264 837 l 255 823 q 245 804 248 811 q 241 788 243 796 q 224 762 233 762 q 215 765 218 762 q 212 790 212 769 q 206 832 212 812 q 198 852 201 852 q 197 851 197 852 q 194 851 196 851 q 189 850 191 850 q 186 848 186 849 q 185 845 185 847 l 186 838 q 185 833 186 836 q 184 828 184 830 q 183 824 183 826 q 186 814 183 820 q 189 796 189 806 q 189 787 189 789 q 184 783 188 785 q 178 781 181 781 q 165 809 166 781 q 163 819 165 818 q 161 820 162 820 q 156 817 159 820 q 154 814 155 817 q 153 796 153 812 l 155 740 q 156 711 156 723 q 155 666 156 691 q 151 607 151 627 l 151 585 l 157 582 q 170 556 166 577 q 177 543 172 549 q 198 522 183 536 q 213 515 207 515 m 161 104 l 172 105 q 234 120 219 113 q 278 137 256 131 q 299 146 289 140 q 325 165 309 152 q 355 189 345 182 q 388 220 372 201 q 412 256 404 239 q 416 277 416 266 q 416 309 416 288 q 404 388 416 363 q 394 402 399 399 q 382 406 390 406 q 372 406 378 406 q 360 408 366 407 q 348 409 354 409 q 336 408 342 409 q 323 405 330 406 l 319 391 q 289 340 312 365 q 267 298 274 322 q 257 285 263 292 q 248 278 251 278 q 240 280 244 278 q 233 287 235 283 q 229 309 231 292 q 222 336 227 326 q 214 354 215 349 q 210 361 212 361 q 208 357 208 361 q 195 343 204 343 q 186 354 186 343 l 186 368 l 178 365 q 160 360 170 361 q 152 358 154 359 q 150 355 150 357 q 144 345 148 348 q 140 333 140 338 q 134 304 140 321 q 115 258 127 281 q 121 176 117 241 l 125 115 q 148 107 136 112 q 161 104 155 104 z "},"c":{"ha":530,"x_min":29,"x_max":499,"o":"m 265 463 q 255 467 258 463 q 252 476 252 471 q 256 487 252 483 q 265 490 261 490 q 278 477 278 490 q 265 463 278 463 m 356 501 q 353 516 355 501 q 351 547 351 541 q 356 577 351 558 q 361 585 359 585 q 369 580 364 585 q 374 564 374 574 q 372 545 374 555 q 360 512 364 517 q 357 504 357 506 q 356 501 357 501 m 277 40 q 186 77 237 40 q 156 106 173 88 q 130 137 138 124 q 114 170 123 148 q 99 213 104 193 l 87 256 q 73 301 81 279 q 58 331 65 323 q 46 355 52 338 q 38 393 40 372 q 32 426 35 417 q 29 446 29 435 q 39 492 29 465 l 39 494 q 45 511 43 505 q 47 522 47 517 q 45 536 47 527 l 45 545 q 62 608 45 574 q 72 633 69 622 q 77 670 75 645 q 82 694 78 685 q 130 774 101 732 l 144 794 q 215 870 170 832 q 304 930 260 909 q 398 952 351 952 l 427 952 q 478 926 453 951 q 499 871 499 906 q 475 836 499 839 q 465 836 468 836 q 458 840 463 837 q 450 846 454 844 q 439 849 441 849 q 431 844 435 849 q 410 793 418 828 q 396 752 405 770 q 389 743 394 746 q 381 741 385 741 q 378 741 379 741 q 367 751 371 742 q 359 798 363 761 l 355 787 q 326 736 344 758 q 306 710 311 722 q 296 656 300 696 l 294 644 q 286 631 292 635 q 281 630 283 630 q 273 633 277 630 q 269 667 269 637 l 268 692 q 269 713 268 705 q 270 729 270 722 q 267 746 270 746 q 252 722 264 746 q 225 663 239 698 q 214 631 220 652 q 201 589 207 610 q 192 558 195 568 q 190 476 190 548 q 193 385 190 416 q 204 335 196 354 l 209 321 q 228 253 214 304 q 246 210 235 226 q 276 179 256 193 q 285 173 281 175 q 308 170 289 171 l 340 167 q 346 170 344 167 q 353 180 349 173 l 355 182 q 364 202 359 190 q 375 230 368 214 q 384 267 382 245 q 392 311 387 293 q 396 332 396 328 q 398 336 396 334 q 401 341 399 339 q 414 347 408 347 q 433 329 424 347 q 442 226 442 312 q 436 201 441 215 q 430 183 433 194 q 424 164 427 173 q 418 149 420 156 q 415 141 416 142 q 408 120 414 139 q 404 108 406 113 q 380 73 398 90 q 352 54 367 60 q 309 43 337 47 q 277 40 291 40 z "},"d":{"ha":559,"x_min":29,"x_max":530,"o":"m 106 19 l 98 19 q 56 38 74 19 q 41 60 45 48 q 35 89 36 71 q 29 275 31 155 q 31 478 29 412 q 52 715 37 608 q 56 751 55 730 q 58 806 57 771 q 62 879 59 854 q 73 934 64 905 q 79 956 76 948 q 93 975 83 968 q 100 980 97 977 q 122 988 106 988 q 146 981 134 988 l 153 976 l 160 967 l 163 961 q 175 901 172 943 l 176 883 q 191 898 184 890 q 208 913 198 905 q 227 927 218 921 q 250 940 235 932 q 277 955 264 948 q 299 966 290 962 q 309 971 308 970 q 327 976 317 975 l 403 976 q 418 974 417 975 q 416 972 418 973 q 410 972 414 972 q 405 971 406 972 q 411 967 405 970 q 432 957 417 964 q 454 945 446 949 q 467 937 462 941 q 499 901 487 920 q 515 865 507 888 q 527 828 524 847 q 530 774 530 809 q 526 552 530 680 q 521 469 524 509 q 516 400 517 429 q 511 345 515 375 q 500 277 505 300 l 487 229 q 481 205 483 215 q 473 174 477 186 q 460 137 469 161 q 385 39 429 64 q 306 21 347 21 q 250 31 275 21 q 214 52 233 37 q 182 83 196 66 l 171 96 l 169 81 q 106 19 159 25 m 304 145 q 330 158 321 145 q 347 192 338 170 q 361 235 355 214 q 367 260 363 245 q 374 289 371 275 q 393 421 389 340 q 396 478 394 451 q 398 506 398 498 q 397 511 398 511 l 397 511 q 396 507 397 511 q 395 497 395 503 q 380 476 393 476 q 370 494 370 476 l 370 503 q 372 526 372 516 l 372 536 q 368 581 372 540 l 372 594 q 379 629 378 605 q 384 665 380 654 q 399 690 388 677 q 404 699 404 698 q 402 709 404 703 q 400 728 400 719 q 406 757 400 743 q 411 778 411 770 l 411 808 q 416 826 411 816 q 420 842 420 836 q 419 854 420 846 q 412 880 417 869 q 397 900 408 890 q 385 909 387 909 q 377 904 381 909 q 359 894 367 894 q 353 898 357 894 q 348 901 350 901 q 337 899 343 901 q 317 891 327 897 q 237 814 273 867 q 226 774 226 796 q 227 762 226 768 q 227 747 227 757 q 223 661 227 709 q 222 645 222 652 q 223 631 222 639 q 224 616 224 624 q 222 595 224 607 q 208 578 218 578 q 200 581 204 578 q 195 591 195 583 l 196 612 q 198 662 197 628 q 197 729 198 695 q 193 796 196 763 l 191 810 l 191 810 q 189 807 190 809 q 187 784 187 806 l 187 768 q 182 675 187 728 q 165 411 165 513 q 178 278 165 319 q 199 233 184 258 q 228 196 210 214 q 304 145 279 145 z "},"e":{"ha":547,"x_min":28,"x_max":518,"o":"m 82 -16 l 81 -16 q 57 23 63 -16 q 54 38 56 33 q 48 49 52 44 q 28 155 32 72 l 28 172 q 34 233 28 208 q 39 268 36 239 q 44 311 41 292 q 46 330 46 325 q 43 352 46 335 q 38 429 38 374 q 39 516 38 460 q 47 668 42 635 l 48 685 q 52 755 48 731 q 55 820 54 776 q 57 866 55 859 q 81 903 59 878 q 105 926 95 919 q 128 936 111 930 q 191 954 166 946 l 216 961 q 254 963 229 963 q 305 961 279 963 l 327 960 q 341 961 336 960 q 356 962 347 962 q 380 961 366 962 q 430 959 398 959 q 466 956 454 959 q 488 951 478 952 q 502 946 497 949 q 512 934 507 943 q 518 919 518 926 q 515 909 518 913 q 511 896 511 905 q 502 879 511 884 q 467 869 493 873 q 444 866 454 866 l 425 867 q 420 866 422 867 q 416 863 418 865 q 404 854 409 856 q 391 838 396 849 q 389 810 389 829 q 388 804 388 808 q 386 771 387 784 q 385 751 385 758 q 382 735 384 737 q 380 732 381 733 l 380 732 q 373 729 376 729 q 366 732 370 729 q 362 740 363 735 q 362 769 362 744 l 363 792 q 361 805 362 800 q 358 816 361 810 q 355 834 355 826 q 357 848 355 838 l 347 848 q 330 847 333 848 q 311 819 324 841 q 300 802 304 808 q 290 796 296 796 q 284 798 287 796 q 279 801 281 800 q 277 804 277 803 q 281 844 277 832 l 282 845 q 282 846 282 846 q 280 847 281 846 q 277 847 279 847 l 272 846 l 261 846 q 224 838 236 846 q 197 801 212 829 l 185 780 l 185 762 q 187 725 185 747 q 189 711 189 717 q 187 695 189 702 q 184 658 184 683 q 188 600 184 615 q 204 557 193 580 q 215 543 208 547 q 256 505 226 534 l 281 504 q 321 499 309 502 q 348 496 334 496 q 367 502 353 496 q 404 509 390 509 q 468 484 444 509 q 481 458 481 470 q 479 448 481 454 q 437 426 475 436 q 424 422 427 422 q 421 417 421 422 q 403 400 421 400 q 372 407 391 400 q 352 411 361 411 q 330 408 341 411 l 325 408 q 312 404 316 406 q 306 400 307 402 q 300 384 304 397 q 291 342 291 357 q 292 332 291 337 q 293 320 293 326 q 292 310 293 315 q 290 294 291 304 q 289 254 289 273 q 284 240 288 243 q 277 237 281 237 q 267 243 270 237 q 264 282 264 250 l 265 315 l 258 335 q 251 377 252 355 q 248 400 250 400 q 237 393 246 400 q 205 362 214 374 q 197 333 203 356 q 189 283 192 309 q 182 250 186 265 q 176 220 179 237 q 168 173 168 180 q 187 142 168 153 q 213 124 199 136 q 245 98 228 113 l 271 98 q 296 99 281 99 q 306 97 300 99 q 315 95 311 95 q 325 97 318 95 q 350 100 332 98 q 410 103 384 103 l 430 103 q 442 107 436 103 q 454 112 448 112 q 462 110 458 112 q 470 95 470 106 l 470 88 q 475 80 470 83 q 480 74 479 77 q 481 68 481 72 q 478 58 481 62 q 466 49 475 54 l 448 40 q 377 24 427 28 q 336 18 345 22 q 267 7 303 7 q 248 8 256 7 q 235 9 240 9 q 221 7 229 9 q 191 4 208 4 q 165 7 174 4 q 145 14 156 9 q 125 23 134 19 q 114 30 116 28 q 111 32 113 31 q 109 33 110 33 q 100 1 108 33 l 97 -8 q 82 -16 92 -16 z "},"f":{"ha":502,"x_min":29,"x_max":467,"o":"m 95 -6 q 81 -4 88 -6 q 56 17 65 2 q 52 39 53 24 l 47 116 q 40 145 44 134 q 29 218 29 174 q 31 273 29 240 q 32 294 32 280 q 35 353 33 308 q 38 397 35 371 q 45 469 41 451 q 48 508 48 485 q 50 532 48 525 q 61 573 51 539 q 51 640 54 607 q 47 689 47 669 l 49 772 q 56 857 52 838 q 68 895 58 865 l 73 907 q 96 939 79 929 q 111 945 106 944 q 138 944 133 945 q 150 940 144 943 q 169 936 159 936 q 199 937 180 936 q 241 948 217 938 q 262 957 251 952 q 283 964 274 961 l 292 967 l 302 970 q 335 975 315 975 l 336 975 q 367 975 364 975 q 372 973 372 975 q 374 970 372 971 q 386 963 380 964 q 410 960 390 961 q 458 948 450 958 q 467 929 467 939 q 440 900 467 913 q 367 880 397 880 q 345 883 355 880 q 325 886 335 886 q 319 885 321 886 q 308 871 316 884 q 299 860 303 865 q 293 852 295 854 l 285 836 q 277 817 281 825 q 272 800 273 810 q 258 780 269 780 l 257 780 q 249 784 253 780 q 245 792 245 787 l 245 810 q 247 833 247 825 q 246 844 247 840 q 242 853 245 848 q 239 863 240 858 q 239 891 239 869 l 191 891 l 189 884 q 186 848 186 876 q 176 792 186 810 q 161 768 167 775 l 165 750 q 171 710 170 732 q 173 614 173 688 q 222 618 197 616 q 237 620 231 620 q 253 618 245 620 q 274 607 261 616 q 288 600 281 602 q 325 591 296 595 q 345 589 336 589 q 358 592 351 589 q 391 601 365 595 q 425 609 418 606 q 444 613 436 613 q 458 608 453 613 q 464 599 464 604 q 462 592 464 597 q 450 584 460 587 l 443 581 q 444 579 443 581 q 448 576 445 578 q 450 568 450 574 q 448 560 450 563 q 432 554 445 557 q 420 549 420 551 l 420 548 q 422 535 422 542 q 419 516 422 526 q 416 502 416 506 q 417 497 416 500 q 418 492 418 495 q 406 481 418 483 q 393 488 397 482 q 388 504 388 494 q 388 510 388 509 q 387 511 387 511 l 385 511 q 370 506 380 509 q 349 501 359 503 q 333 499 338 499 q 324 500 330 499 q 313 503 318 501 q 302 506 307 505 q 289 508 297 507 q 267 509 281 508 q 239 508 249 509 q 220 503 229 507 q 193 490 203 496 q 180 482 184 486 q 174 438 174 476 q 173 385 174 400 q 169 359 172 369 q 159 341 165 350 l 151 330 l 151 290 q 161 208 151 248 q 168 168 168 185 q 167 137 168 144 q 152 98 165 122 q 141 81 144 84 q 137 68 137 77 l 138 36 q 136 22 138 27 q 95 -6 122 -6 z "},"g":{"ha":608,"x_min":28,"x_max":581,"o":"m 287 9 l 279 9 q 245 12 258 9 q 219 19 232 14 q 186 35 205 24 q 127 75 152 52 q 76 138 102 99 q 55 175 66 153 q 40 208 43 197 q 34 232 36 219 q 31 274 32 245 q 28 345 28 307 q 31 440 28 412 q 35 479 35 473 l 39 509 q 52 586 46 566 q 76 671 68 638 q 83 713 81 691 q 87 747 85 743 q 89 760 87 748 q 90 789 90 772 q 91 820 90 809 q 96 844 92 831 q 106 879 99 856 l 106 880 q 122 918 114 905 q 160 938 136 938 l 163 938 q 176 939 172 938 q 188 945 180 941 q 221 960 208 956 q 242 968 235 965 l 246 970 l 260 977 l 269 981 q 347 995 295 992 q 376 996 363 996 q 408 994 392 996 q 444 981 425 991 q 446 980 446 980 l 455 976 l 463 970 l 471 960 q 490 911 490 938 q 479 866 490 890 q 464 848 473 854 q 449 836 455 842 q 416 820 425 820 q 404 827 409 820 q 401 838 401 832 q 402 844 401 840 q 403 853 403 848 q 398 871 403 862 q 392 880 394 880 q 379 881 390 881 l 370 859 q 336 806 355 820 q 326 797 326 800 q 326 789 326 793 q 323 765 326 779 q 316 744 320 751 q 298 724 313 736 q 287 718 292 718 q 271 731 277 718 q 267 742 267 737 q 266 759 266 747 q 266 776 266 766 q 268 794 267 786 q 270 810 269 802 q 263 821 267 816 q 258 832 260 826 q 256 841 256 838 q 254 848 255 845 l 254 850 q 233 831 252 850 q 224 824 227 827 q 218 818 220 821 q 212 797 216 815 q 202 756 206 768 q 193 713 197 737 l 190 688 l 178 642 l 182 621 q 189 598 185 600 q 198 574 198 591 q 199 565 198 570 q 200 558 199 561 q 201 554 201 556 q 200 549 201 551 q 199 544 199 546 q 203 534 199 541 q 230 453 226 503 l 231 437 q 222 389 231 416 q 215 358 216 370 l 213 334 q 210 294 212 301 q 202 262 202 269 q 212 236 202 256 q 233 172 228 204 q 239 149 235 158 q 258 123 245 127 q 281 120 266 120 q 327 128 300 121 q 376 146 355 136 q 397 157 389 151 q 417 176 404 163 q 434 193 426 184 q 456 222 442 203 l 467 238 q 480 260 476 250 q 490 326 487 275 q 489 335 490 330 q 486 349 488 340 q 481 375 481 368 q 479 392 481 379 q 472 433 477 406 q 463 445 470 443 q 458 444 460 445 q 451 439 456 442 q 377 415 414 415 q 353 418 365 415 q 332 421 340 421 q 315 402 315 421 q 322 368 315 397 q 326 343 326 358 l 325 329 q 324 310 324 317 q 323 300 323 302 q 322 297 323 299 q 318 295 320 296 q 314 294 315 294 q 302 314 303 294 q 289 357 302 345 q 274 378 281 364 q 264 408 264 395 q 328 486 264 473 q 344 488 338 487 q 363 502 351 490 q 424 552 406 545 q 454 557 439 557 q 474 555 465 557 q 544 513 492 549 q 579 435 574 493 q 581 409 581 417 q 579 390 581 400 q 572 333 572 347 q 568 309 572 323 q 559 245 561 281 l 559 241 q 545 195 559 226 q 535 168 536 174 q 524 139 532 153 q 497 103 515 125 q 468 71 479 81 q 438 51 456 61 q 392 29 416 37 q 287 9 336 9 m 296 493 q 285 499 290 493 q 275 537 275 510 q 279 576 275 568 q 283 594 283 585 q 283 604 283 598 q 281 618 282 610 q 280 631 281 626 q 279 643 279 637 q 295 671 279 671 q 304 665 302 671 q 307 642 307 663 q 306 619 306 633 q 314 578 310 587 q 318 566 317 572 q 319 528 319 553 q 316 511 319 521 q 296 493 308 493 z "},"h":{"ha":576,"x_min":27,"x_max":547,"o":"m 484 7 q 476 7 478 7 q 463 22 469 13 q 456 39 460 26 q 448 52 449 52 q 437 60 446 52 q 423 83 428 68 q 415 247 415 107 q 412 377 414 368 q 410 401 410 390 q 417 446 410 420 q 398 427 400 429 q 393 412 394 422 q 380 393 391 393 q 374 394 376 393 q 367 406 372 395 q 342 390 347 393 q 336 386 338 387 q 332 368 334 384 q 326 287 329 345 q 323 273 324 274 q 315 267 321 267 q 304 274 307 267 q 302 309 302 281 q 304 383 302 344 l 297 382 q 275 385 290 382 q 234 341 246 357 q 211 302 216 318 q 205 277 209 296 q 200 252 200 256 q 203 233 200 243 q 210 197 208 218 q 212 176 212 186 q 210 157 212 166 q 209 141 210 151 q 209 108 209 130 q 197 94 207 94 q 188 101 193 94 q 186 125 186 106 q 188 161 186 143 q 189 177 189 170 q 172 231 189 208 q 165 249 166 237 q 161 266 164 262 q 157 278 157 271 q 160 301 157 286 q 163 332 163 317 q 162 344 163 343 q 161 345 161 345 l 159 344 q 152 342 155 342 q 148 336 149 340 q 147 317 147 332 q 140 277 146 293 q 132 251 134 258 q 127 240 131 243 q 123 229 123 236 q 125 177 123 209 q 130 120 129 121 q 130 115 130 118 q 127 84 130 108 q 117 47 123 60 q 106 33 113 40 q 81 20 94 20 q 72 22 77 20 q 39 100 39 30 q 41 146 39 123 q 48 191 43 170 q 49 204 49 196 q 46 264 49 239 q 42 276 45 269 q 37 294 40 282 q 28 334 30 323 q 27 387 27 345 q 36 490 27 453 q 49 591 49 557 q 45 616 49 608 q 31 718 34 642 q 39 822 31 772 l 46 868 q 74 940 51 905 l 93 966 q 96 969 95 968 q 98 972 98 971 q 100 974 98 972 q 107 976 102 975 l 124 978 q 146 974 130 978 q 149 972 149 973 q 155 964 149 970 q 167 933 167 948 q 169 926 167 931 q 173 915 170 921 q 177 904 176 909 q 180 871 179 899 l 184 822 q 185 802 185 811 q 183 779 185 794 q 180 746 180 752 l 179 732 l 173 682 q 170 644 170 651 q 166 609 168 621 q 164 585 165 597 q 159 551 162 573 l 158 547 q 151 485 151 498 q 152 474 151 477 q 153 469 152 470 l 155 469 q 245 488 198 488 q 269 486 258 488 l 273 486 q 282 488 279 486 q 309 511 300 497 q 322 524 313 517 q 339 535 332 532 l 361 562 q 399 608 378 587 q 428 644 425 635 q 430 657 429 649 q 434 692 433 684 q 436 739 436 709 q 433 791 436 768 q 433 802 433 796 q 442 854 433 819 q 475 925 454 904 q 509 944 490 944 q 529 939 519 944 q 545 922 545 932 q 543 917 545 920 q 541 909 541 913 q 544 899 541 905 q 547 866 547 890 q 545 789 547 831 q 530 652 542 699 q 528 617 528 642 q 528 536 528 574 l 529 494 q 527 469 528 479 q 526 448 526 460 q 527 408 526 431 q 529 372 528 389 q 532 348 531 355 q 541 246 541 299 q 538 201 541 219 q 528 117 536 188 q 522 73 525 101 q 484 7 515 13 z "},"i":{"ha":227,"x_min":29,"x_max":199,"o":"m 104 -18 l 102 -18 q 94 -16 98 -18 q 63 16 73 -12 q 56 70 56 35 q 59 105 56 87 q 62 127 60 115 q 64 149 63 140 q 66 169 65 159 q 69 184 68 178 q 75 231 75 210 q 73 250 75 241 l 70 288 q 62 330 69 310 q 56 361 58 346 q 55 407 55 376 q 63 464 55 418 q 66 488 66 475 q 75 529 66 504 q 79 547 79 541 q 78 557 79 551 q 69 606 77 564 q 60 574 65 589 q 55 526 57 566 q 47 458 52 487 q 35 425 40 425 q 31 426 33 425 q 29 431 29 428 q 31 446 29 437 q 35 469 33 455 q 41 524 40 494 q 43 564 41 552 q 47 582 44 575 q 56 628 56 608 l 55 680 q 56 697 55 691 q 56 709 56 703 q 55 727 56 718 q 54 740 54 733 q 66 800 54 773 q 71 819 70 804 l 71 838 q 75 877 71 863 q 87 907 78 891 q 117 940 103 935 q 134 944 126 944 q 170 912 164 944 l 170 907 q 168 887 170 900 q 165 871 165 875 l 165 869 q 171 865 168 869 q 175 857 174 864 q 176 816 176 842 q 182 701 176 756 l 184 683 q 192 616 189 630 q 199 513 199 565 q 192 448 199 487 l 185 412 l 176 355 q 172 332 174 341 q 166 213 166 294 l 166 174 q 161 142 165 153 q 154 125 156 127 q 152 110 152 121 q 149 79 152 99 q 146 43 146 64 q 115 -16 146 -6 q 104 -18 108 -18 m 69 752 q 70 753 70 752 l 68 757 l 68 752 l 69 752 m 83 610 l 85 623 q 79 665 85 635 l 73 697 q 71 704 72 704 q 70 697 70 703 q 69 684 69 690 q 72 651 69 671 q 80 619 75 631 q 83 612 83 614 l 83 610 z "},"j":{"ha":424,"x_min":27,"x_max":397,"o":"m 191 -28 l 180 -28 q 118 -1 157 -28 q 70 41 87 20 q 51 72 60 54 q 38 102 41 90 q 31 135 34 115 q 27 165 27 155 q 30 196 27 174 q 43 278 38 257 q 48 318 46 296 q 54 345 50 340 q 61 367 59 355 q 69 389 66 383 q 73 401 73 397 q 75 411 73 404 q 80 425 77 418 q 86 435 83 432 q 92 438 88 437 q 103 433 98 438 q 104 416 104 431 l 104 399 q 107 387 104 394 q 118 332 118 358 q 119 304 118 311 q 124 288 119 295 q 130 279 130 280 q 132 278 130 278 l 134 278 q 144 274 140 278 q 150 208 149 267 q 155 142 151 161 q 160 112 160 120 q 162 100 160 104 q 170 90 164 96 l 171 102 q 176 117 172 115 q 184 120 179 120 q 189 117 186 120 q 194 110 193 113 q 195 101 195 107 q 195 92 195 96 l 195 87 l 197 87 q 215 98 201 87 q 243 143 236 116 q 248 201 248 163 l 249 233 q 243 235 246 234 q 236 241 239 236 q 235 273 235 245 q 236 307 235 297 q 237 322 237 310 q 235 386 237 342 l 232 403 l 222 436 l 224 448 q 231 490 228 469 q 234 503 233 496 q 235 514 235 510 q 241 535 235 519 q 250 571 250 559 q 248 581 250 576 q 247 590 247 586 q 249 600 247 594 q 272 703 268 671 l 276 730 q 278 749 278 741 q 275 759 278 757 q 273 768 273 761 q 276 774 273 770 q 290 832 281 781 q 293 874 293 852 l 281 882 q 253 894 263 894 q 244 890 247 894 q 239 878 242 886 q 232 863 235 867 q 226 858 229 858 q 224 857 224 858 q 224 854 224 856 l 224 851 q 227 821 225 846 q 230 787 229 795 q 232 766 232 779 q 216 708 232 708 q 205 716 208 708 q 202 779 202 725 l 203 831 q 176 877 179 865 q 172 885 174 882 q 165 890 170 888 q 153 902 158 895 q 149 916 149 909 q 152 927 149 922 q 159 936 155 933 q 178 943 163 939 q 210 953 190 945 q 261 966 237 966 q 298 964 280 966 q 319 958 306 962 q 349 945 337 951 q 394 843 394 918 l 393 758 q 391 690 391 713 q 393 656 391 668 q 397 524 397 627 q 394 448 397 475 q 385 386 392 422 q 376 299 379 361 q 374 244 375 273 q 372 197 372 216 q 366 128 372 157 q 342 57 355 77 q 298 7 321 27 q 268 -11 288 -1 q 234 -25 249 -20 q 216 -27 229 -26 q 191 -28 203 -28 m 264 414 q 271 447 266 414 q 279 533 279 492 q 278 545 279 545 q 275 539 277 545 q 272 525 273 533 q 270 511 270 517 q 267 491 269 504 q 262 467 265 479 l 257 437 q 264 414 263 414 z "},"k":{"ha":537,"x_min":28,"x_max":507,"o":"m 398 -24 q 372 -17 385 -24 q 336 12 359 -9 q 295 57 308 38 q 274 106 283 75 q 267 126 270 119 q 259 138 263 134 q 251 150 255 143 q 243 162 247 156 q 236 173 240 168 q 227 181 232 178 q 214 191 222 184 q 198 204 206 197 q 182 218 191 211 l 179 216 q 168 201 172 211 q 165 155 165 191 q 163 107 165 111 l 163 99 l 163 95 l 163 91 l 162 87 l 161 74 l 159 62 l 157 51 l 155 43 l 154 41 l 154 39 l 152 33 l 146 18 q 145 17 146 18 q 144 16 144 16 q 143 14 144 15 q 143 13 143 14 q 142 12 142 12 q 141 10 142 11 q 140 9 140 9 q 139 7 140 8 q 137 6 139 6 l 137 5 l 136 5 q 135 4 136 4 q 134 3 135 3 q 132 1 134 3 q 130 0 130 0 q 127 -1 129 0 q 116 -7 119 -5 q 100 -12 108 -12 q 77 4 87 -12 q 64 22 72 12 q 42 66 47 40 q 35 172 36 98 l 35 273 q 35 346 35 311 q 35 395 35 379 q 31 429 34 411 q 28 477 28 459 l 28 580 q 40 622 39 614 q 41 643 41 629 q 43 742 41 677 q 54 868 48 848 q 64 895 56 879 q 101 941 81 927 q 123 952 111 947 l 130 954 q 138 954 134 954 l 149 952 q 183 925 172 947 q 186 904 186 908 q 185 890 186 899 q 183 877 183 882 q 184 869 183 872 q 185 857 185 865 l 182 805 l 187 798 q 197 769 197 787 q 190 736 197 755 l 184 717 l 182 617 q 184 579 182 586 q 186 547 186 563 q 184 524 186 536 q 182 470 182 508 l 187 476 q 204 497 193 485 q 241 536 229 524 q 252 547 247 541 q 283 604 260 559 q 295 625 290 617 l 318 665 q 336 699 326 682 q 357 739 347 718 q 393 784 372 770 q 413 792 404 792 q 420 791 417 792 q 431 782 423 790 q 453 734 450 761 q 458 713 453 722 q 462 694 461 707 l 463 659 q 446 584 463 602 q 438 570 441 578 q 433 557 437 566 q 429 549 431 555 q 419 517 427 544 q 414 484 415 501 q 407 447 410 449 q 399 444 404 444 q 391 450 393 444 q 389 469 389 456 l 389 477 q 392 511 391 507 q 393 518 393 515 q 391 521 393 521 q 381 493 388 521 q 375 437 375 460 l 376 429 q 374 412 376 420 q 370 379 372 404 q 367 351 369 354 q 359 349 364 349 q 352 352 355 349 q 347 372 349 355 q 345 407 345 389 l 346 416 q 345 428 346 420 q 343 444 345 435 q 341 460 342 452 l 323 448 q 261 399 281 421 q 235 366 249 387 q 229 355 229 356 q 239 336 229 353 q 269 296 248 319 q 315 235 308 255 q 319 215 319 225 q 321 199 319 201 q 348 183 323 193 q 382 164 375 169 q 415 130 397 152 q 448 81 433 107 q 466 55 456 66 q 494 28 476 43 q 507 8 507 18 q 505 0 507 4 q 498 -10 502 -7 q 488 -12 494 -12 l 477 -11 q 466 -15 471 -11 q 456 -20 460 -20 q 448 -17 452 -20 q 440 -14 445 -14 q 424 -19 435 -15 q 398 -24 410 -23 z "},"l":{"ha":455,"x_min":29,"x_max":428,"o":"m 73 -5 q 38 14 52 -5 q 29 40 29 26 q 35 67 29 52 q 54 96 41 83 q 60 103 58 100 q 63 117 63 107 q 68 147 63 126 q 75 192 73 168 q 92 347 81 300 q 97 388 97 369 l 96 414 l 96 427 q 100 465 96 440 q 104 489 104 484 q 102 498 104 492 q 94 515 99 503 q 77 558 82 541 q 74 600 74 571 q 76 627 74 615 q 98 749 95 713 q 104 788 99 770 q 135 886 107 804 q 130 916 130 907 q 164 958 130 958 q 188 947 177 958 q 196 935 194 941 q 208 924 199 929 q 235 897 226 916 q 239 869 239 885 q 227 793 239 841 q 222 766 223 776 q 220 741 220 755 q 218 699 220 713 l 197 588 l 202 574 q 214 542 205 563 q 224 499 223 521 q 216 446 224 477 q 211 424 212 435 q 210 387 210 412 q 204 331 208 351 q 189 192 197 304 q 180 136 186 158 l 180 134 q 184 130 180 132 q 208 125 197 125 q 221 127 212 125 q 262 132 245 132 q 283 130 274 132 q 363 123 333 123 l 366 123 q 422 94 408 123 q 428 78 428 85 l 427 71 q 406 34 427 46 q 377 26 394 26 q 366 27 371 26 q 343 28 360 28 q 333 26 334 28 q 333 22 333 24 q 332 18 333 19 q 319 15 331 16 l 286 15 l 271 16 q 245 12 262 16 q 206 8 225 8 q 181 10 193 8 q 151 12 169 12 l 115 11 l 100 3 q 73 -5 86 -5 z "},"m":{"ha":696,"x_min":28,"x_max":667,"o":"m 570 -5 l 566 -5 q 558 8 559 -3 l 558 22 q 561 28 559 26 q 562 33 562 31 q 559 37 562 34 q 554 60 554 45 q 555 74 554 67 q 555 86 555 81 q 547 119 555 104 q 540 140 543 128 q 537 159 537 151 q 532 180 537 166 l 528 196 l 528 258 q 527 264 528 262 q 524 267 526 266 q 523 269 523 269 q 517 277 520 272 q 509 293 511 287 q 508 317 508 296 q 515 370 508 339 l 522 398 q 532 452 527 428 q 545 502 534 460 q 543 529 545 516 q 541 554 542 543 q 539 572 540 566 q 538 583 538 578 q 543 628 538 606 q 548 647 545 639 q 552 661 551 654 q 553 678 553 668 q 551 707 553 688 l 551 724 q 552 743 551 736 q 555 797 553 749 q 559 850 556 840 l 561 860 q 560 861 561 861 l 557 860 q 534 823 547 849 q 530 805 530 809 q 526 789 530 798 q 521 764 521 773 q 522 755 521 760 q 524 748 524 751 q 521 743 523 745 q 515 729 516 736 q 519 716 515 721 q 523 705 523 711 q 519 692 523 699 q 513 666 515 683 q 505 640 513 643 q 502 638 504 640 q 500 634 500 636 q 491 627 497 627 q 480 642 480 627 q 481 654 480 647 q 484 699 484 667 q 481 720 484 710 q 479 734 479 727 q 482 759 479 745 q 486 777 486 773 q 485 783 486 780 q 484 795 485 787 q 481 810 482 804 q 480 821 480 817 q 479 825 480 825 q 473 802 477 825 q 468 768 470 787 q 458 730 465 744 q 452 707 452 715 l 452 698 q 455 694 452 696 q 459 684 458 692 q 457 645 459 650 q 454 635 454 640 l 454 625 l 455 617 q 445 605 455 605 q 431 638 431 605 l 431 652 q 435 687 432 678 q 437 704 437 691 q 439 792 439 724 q 429 768 433 779 q 415 732 422 751 q 410 723 412 726 q 395 701 408 720 l 395 564 q 391 514 394 530 q 386 473 387 488 q 388 443 386 455 q 398 375 392 418 q 399 334 399 368 l 397 267 q 392 199 395 219 l 387 177 q 376 103 376 129 q 334 47 376 51 q 306 60 317 47 q 286 110 292 72 q 279 156 280 137 q 282 194 279 178 q 293 273 290 229 q 297 309 296 300 q 300 351 300 329 q 287 448 300 395 q 279 501 279 477 q 282 540 279 517 q 284 610 284 574 q 288 685 284 650 q 292 720 292 708 q 291 740 292 734 q 283 754 289 746 q 270 783 273 773 q 267 814 267 793 q 269 851 267 833 q 270 863 270 859 q 269 867 270 866 l 269 867 q 257 858 266 867 q 245 847 252 852 q 233 836 239 841 q 222 826 227 831 q 212 810 218 820 q 212 809 212 809 q 201 787 204 795 q 197 772 197 780 q 196 751 196 765 q 197 727 196 736 q 202 707 199 718 q 206 685 205 696 q 208 651 208 673 q 210 619 209 635 q 212 594 212 603 q 215 563 215 576 q 213 538 215 550 l 208 507 q 201 483 205 487 q 187 474 195 474 q 173 498 176 474 l 172 503 q 174 516 172 511 q 177 526 176 521 q 179 534 178 530 q 180 541 180 538 q 179 541 180 541 l 178 541 q 174 621 174 541 q 175 657 174 641 l 176 675 q 174 686 175 681 q 170 702 172 692 q 164 723 167 712 q 160 743 162 734 q 157 754 158 751 q 154 583 155 754 q 151 515 154 529 q 146 473 146 494 q 148 444 146 458 q 149 414 149 429 q 138 332 149 372 q 131 296 131 308 q 134 275 131 289 q 136 261 135 269 q 134 102 136 194 q 130 58 132 72 q 86 10 124 12 q 47 32 60 11 q 38 66 43 42 q 28 189 28 106 q 31 232 28 216 q 33 280 33 252 q 39 329 33 309 q 45 363 44 346 l 47 410 q 43 449 47 430 q 39 488 39 468 q 43 534 39 511 q 46 552 45 543 q 47 573 47 560 q 41 687 47 654 q 37 751 37 715 q 39 796 37 783 q 56 870 45 833 q 73 913 65 899 q 104 942 84 937 q 114 943 109 943 q 143 931 129 943 l 153 923 l 168 938 q 217 968 189 960 l 221 969 q 249 972 231 972 l 258 971 q 317 964 306 971 q 327 954 322 959 q 338 944 332 948 l 343 935 q 353 914 347 926 q 366 889 361 899 q 371 869 370 880 l 374 811 q 400 871 389 846 q 418 905 412 895 q 456 945 432 926 q 505 969 471 958 l 513 971 q 551 976 524 975 q 571 974 563 976 q 587 971 578 971 l 604 972 q 617 970 612 972 q 631 964 622 968 q 664 908 657 951 l 667 888 q 663 863 667 883 q 661 827 661 840 l 661 797 q 665 680 661 699 q 667 650 667 668 q 661 621 667 643 q 656 592 656 603 q 658 576 656 585 q 665 496 665 545 q 664 474 665 483 l 652 425 l 645 400 q 633 354 640 373 q 627 330 627 336 q 632 310 627 322 q 639 275 637 297 q 641 235 641 257 q 640 208 640 218 q 641 184 640 197 q 642 176 642 180 l 641 165 q 625 110 636 122 q 621 95 621 104 q 619 74 621 86 q 604 35 614 46 q 589 25 597 27 l 581 23 q 580 8 581 16 q 570 -5 578 -5 z "},"n":{"ha":607,"x_min":29,"x_max":580,"o":"m 507 -25 l 494 -25 q 431 59 455 -19 q 416 110 420 90 q 409 169 412 130 q 401 231 405 210 q 387 274 397 251 q 362 368 379 294 q 351 404 358 388 q 330 438 343 420 l 296 484 q 274 530 288 496 q 258 574 264 555 q 223 641 246 610 q 193 694 214 652 l 191 639 q 194 597 191 618 q 193 591 194 593 q 184 583 191 583 q 175 587 179 583 q 167 642 172 591 q 160 684 164 663 q 151 743 157 692 q 150 706 150 718 q 151 671 150 680 q 153 611 153 645 q 155 528 153 565 q 157 488 157 503 q 156 451 157 471 l 153 358 q 146 269 151 300 q 142 239 142 249 q 144 215 142 229 q 156 31 156 102 q 153 14 155 20 q 146 3 151 9 q 117 -9 137 -9 q 77 43 83 -9 q 73 78 76 57 q 70 136 70 98 q 73 228 70 173 q 74 330 74 273 q 70 406 73 376 q 58 460 66 435 q 41 519 46 498 q 33 562 35 541 q 31 621 31 583 q 29 720 29 663 q 42 808 29 761 q 63 866 54 856 q 95 881 75 881 q 112 877 104 881 l 119 873 l 125 881 q 164 913 140 902 q 214 924 189 924 q 262 905 244 924 q 283 832 283 883 q 285 786 283 810 q 290 752 287 762 q 300 728 292 743 q 317 701 308 713 q 344 654 332 680 q 359 604 355 627 q 386 516 368 551 q 421 387 415 460 q 429 333 424 351 q 446 287 433 314 q 460 254 455 267 q 469 223 465 241 q 473 212 471 212 q 473 216 473 212 l 471 253 q 465 383 465 337 q 468 465 465 408 l 471 515 q 479 610 478 565 q 475 678 479 659 q 467 782 467 725 q 477 888 467 841 q 486 908 481 902 q 490 923 490 914 q 521 960 492 960 q 543 946 535 960 q 547 926 547 941 l 546 918 l 546 902 q 551 890 546 894 q 555 885 553 888 q 558 880 557 882 q 564 826 564 868 q 570 799 564 814 q 579 734 576 784 q 580 726 580 730 q 576 699 580 715 q 573 680 575 689 q 571 667 572 671 q 570 656 571 663 q 568 642 568 649 q 554 562 556 578 q 553 548 554 555 q 551 534 552 540 l 551 534 q 550 526 550 529 q 561 458 550 511 l 561 456 q 566 423 564 439 l 570 357 q 572 344 571 346 q 572 325 572 342 q 573 305 573 316 l 572 231 q 568 159 570 186 q 559 82 565 131 l 554 43 q 528 -20 550 -6 q 507 -25 519 -25 z "},"o":{"ha":538,"x_min":27,"x_max":510,"o":"m 251 -21 l 240 -21 q 136 26 182 -21 q 94 83 111 52 q 66 146 73 118 q 53 222 60 174 q 47 292 47 269 q 37 366 47 326 q 29 415 31 391 q 27 481 27 439 q 28 515 27 503 q 31 555 28 541 q 40 616 35 570 q 50 671 43 644 q 71 755 56 699 q 91 819 83 799 q 146 906 105 859 q 210 956 182 947 q 235 960 220 960 q 256 958 252 960 q 268 952 261 956 q 281 945 274 949 q 301 928 289 940 q 323 939 317 937 q 347 943 338 943 q 408 922 374 943 q 436 897 418 915 q 463 866 454 879 q 477 834 471 854 q 490 793 487 808 q 497 713 497 758 q 496 664 497 699 q 486 586 494 630 q 481 534 481 564 q 486 478 481 505 q 489 454 488 467 q 500 374 494 401 q 508 338 505 351 q 510 313 510 326 q 488 219 510 276 q 435 94 458 130 q 398 51 422 75 q 355 16 374 27 q 288 -16 315 -9 q 251 -21 273 -20 m 252 90 q 275 97 263 90 q 348 169 327 126 q 382 266 360 193 q 398 328 397 313 q 397 351 398 336 q 395 409 395 384 q 392 460 395 444 q 385 563 385 514 q 387 612 385 591 q 394 691 394 656 l 393 711 q 349 831 385 804 q 343 835 346 835 q 334 833 339 835 q 326 828 330 831 q 316 807 322 826 q 305 760 309 788 q 301 735 304 745 q 296 662 298 724 q 293 600 294 618 q 289 580 292 582 q 282 578 286 578 q 275 581 279 578 q 271 591 271 583 l 272 654 q 269 685 271 669 q 267 708 268 695 q 267 730 267 721 q 266 749 267 740 q 265 762 265 758 q 264 769 264 766 q 269 833 264 797 l 269 837 q 264 861 269 850 q 257 864 262 864 q 231 832 242 864 q 223 801 225 817 q 221 756 222 786 q 215 682 220 718 q 211 634 211 650 l 212 585 q 210 536 212 556 l 208 456 q 207 409 208 415 q 204 398 207 404 q 195 395 199 395 q 184 416 184 395 q 180 440 184 424 q 177 453 178 446 q 175 522 175 465 q 172 605 175 591 q 168 630 168 624 l 168 637 q 166 644 168 644 q 158 594 163 644 q 151 540 155 562 q 143 487 145 511 q 141 425 142 463 q 144 354 141 374 l 150 309 q 170 208 152 275 q 221 107 186 146 q 252 90 236 90 z "},"p":{"ha":508,"x_min":27,"x_max":481,"o":"m 102 -23 q 62 3 75 -23 q 38 105 51 24 q 31 181 31 162 l 32 223 q 33 303 33 269 q 29 626 32 606 q 27 654 27 639 q 28 699 27 670 q 36 812 32 774 q 58 905 43 879 q 86 921 66 921 q 100 918 95 921 q 127 871 121 906 l 128 862 q 180 907 168 899 q 208 920 193 916 q 237 927 220 924 q 290 933 271 933 q 332 926 301 933 q 362 917 353 921 q 382 904 372 913 q 408 874 392 895 q 457 794 443 825 q 465 761 463 775 q 471 732 467 747 q 481 664 481 707 q 480 627 481 638 q 475 600 479 616 q 456 530 469 566 q 445 496 448 506 q 433 468 443 486 q 423 451 428 460 q 415 436 418 442 q 396 400 405 413 q 377 375 388 387 q 367 360 368 366 q 361 334 365 354 q 359 323 360 327 q 345 258 353 306 q 339 238 342 241 q 332 234 336 234 q 321 243 323 234 q 318 264 319 248 l 315 321 l 297 311 q 264 294 282 302 q 227 273 246 286 q 219 266 219 267 q 216 238 219 255 q 210 212 213 220 q 207 201 208 206 q 204 160 205 193 q 201 119 203 127 q 193 115 198 115 q 186 116 189 115 q 182 120 183 117 q 181 129 182 123 q 180 140 180 134 q 177 160 179 155 q 171 165 174 165 l 170 165 q 164 166 167 165 q 160 169 161 168 q 158 170 159 170 q 157 170 158 170 q 156 168 157 170 q 156 142 156 165 q 154 98 156 115 q 151 50 152 81 q 147 11 150 22 q 136 -9 144 -1 q 102 -23 122 -23 m 192 395 q 202 397 195 395 q 228 423 208 399 q 266 475 247 447 q 307 524 282 500 q 334 553 325 543 q 348 571 343 564 q 354 587 352 578 q 367 661 367 623 q 366 684 367 676 q 361 704 365 691 q 353 742 354 724 q 351 755 352 750 q 348 767 350 760 q 340 785 345 773 l 336 791 q 323 814 327 813 q 317 797 321 814 q 315 791 315 794 q 306 741 307 764 l 304 707 l 298 644 q 283 627 294 627 q 275 638 275 629 q 276 650 275 643 q 278 680 278 665 q 277 718 278 693 l 276 739 q 283 804 276 774 q 284 806 283 805 q 287 820 287 818 q 286 822 287 821 l 284 822 q 268 795 277 822 q 244 743 256 766 q 235 716 239 734 q 230 687 231 698 q 228 666 230 673 q 225 652 225 659 l 226 639 q 216 621 226 621 q 210 623 214 621 q 205 629 207 625 q 204 639 204 632 q 205 659 204 646 l 205 661 q 207 678 207 672 q 205 695 207 685 q 199 725 203 705 q 198 729 198 726 l 193 752 q 190 756 191 756 q 174 705 185 756 l 167 671 l 167 537 q 168 507 167 518 q 171 478 169 495 q 177 445 174 461 q 182 421 180 429 q 185 406 184 413 q 186 397 186 399 q 192 395 186 395 z "},"q":{"ha":631,"x_min":28,"x_max":601,"o":"m 280 401 q 273 405 277 401 q 270 424 270 408 q 272 442 270 437 q 276 448 273 447 q 280 450 279 450 q 289 446 286 450 q 291 427 291 442 q 291 415 291 419 q 290 409 290 411 q 286 404 289 407 q 280 401 283 401 m 544 -8 q 526 -5 535 -8 q 490 15 507 1 q 472 38 484 21 q 450 72 460 54 q 446 79 448 76 q 444 83 444 83 l 427 63 q 341 5 389 15 q 302 1 325 1 q 278 2 296 1 q 235 9 260 3 q 133 84 185 24 q 92 138 101 121 q 56 273 75 177 q 40 346 52 297 q 30 395 33 372 q 28 425 28 408 q 37 531 28 487 q 60 629 43 568 q 94 738 81 701 q 134 825 113 795 q 159 854 143 837 q 290 928 229 928 q 323 922 302 928 l 339 930 q 398 945 370 945 q 481 907 446 945 q 497 882 488 899 q 511 847 505 865 q 525 819 516 829 q 539 801 536 806 q 557 775 543 795 q 575 745 568 760 q 588 701 581 729 q 595 667 593 680 q 601 555 601 633 q 586 360 601 454 q 554 256 578 314 l 553 230 q 552 195 553 203 l 552 191 q 555 174 552 183 q 557 159 557 164 q 557 155 557 157 q 547 149 554 149 q 532 166 538 149 q 526 199 527 180 q 482 133 491 144 q 477 124 479 127 q 475 119 475 121 l 475 117 q 499 91 478 113 q 536 60 521 69 q 564 38 552 51 q 574 24 572 30 q 577 13 577 19 q 561 -5 577 -1 q 544 -8 553 -8 m 307 124 q 316 126 313 125 q 325 134 319 127 q 338 149 330 140 q 353 168 345 159 q 309 246 309 225 q 300 252 309 249 q 272 286 272 262 q 276 299 272 292 q 318 320 286 320 q 381 292 359 320 q 389 278 386 286 q 402 237 392 270 q 434 297 420 266 q 455 354 448 328 q 470 469 464 387 q 474 563 474 521 q 461 688 474 639 q 446 716 458 696 q 421 749 427 743 q 398 797 404 768 q 390 823 394 814 l 388 820 q 356 796 373 806 q 342 786 345 790 l 338 780 q 311 741 319 758 q 306 727 309 734 q 290 697 302 720 l 291 640 l 293 573 q 293 555 293 568 q 291 520 292 542 q 290 483 290 499 q 288 465 289 467 q 282 463 286 463 q 273 467 276 463 q 270 484 270 470 l 269 532 l 270 576 q 268 673 270 643 q 260 725 266 703 q 255 746 258 734 q 248 789 253 758 l 242 781 q 211 713 220 751 q 205 642 208 700 q 202 578 202 583 q 204 549 202 559 q 207 524 207 538 l 206 513 q 203 469 204 487 q 201 446 203 452 q 193 440 199 440 q 183 445 186 440 q 178 467 180 450 q 175 505 175 490 q 173 522 174 513 q 168 551 172 530 l 165 538 q 155 439 155 497 q 155 412 155 421 q 159 385 155 396 q 180 292 169 353 q 192 233 184 263 q 203 194 199 203 q 214 180 205 191 q 248 144 237 153 q 298 124 271 124 l 307 124 z "},"r":{"ha":513,"x_min":28,"x_max":486,"o":"m 111 4 l 105 4 q 90 5 97 4 q 83 10 87 7 q 75 16 79 13 q 57 39 63 26 q 50 79 52 52 q 47 153 47 105 q 45 270 47 211 q 41 350 43 329 q 38 373 39 358 q 34 402 36 387 q 30 428 31 418 q 29 451 29 439 l 30 486 q 28 566 30 538 q 28 593 28 578 q 38 723 28 682 l 50 766 q 69 829 62 811 q 108 863 83 863 q 114 864 113 863 q 118 871 116 865 q 129 888 121 876 q 161 930 146 914 q 213 953 176 947 q 242 956 229 956 q 286 948 266 956 l 301 943 q 322 938 306 939 q 358 922 338 936 q 378 907 369 916 q 431 844 397 890 l 454 810 q 473 779 467 794 q 482 740 479 764 q 486 656 486 715 q 484 618 485 632 q 468 556 479 589 q 442 500 456 524 q 430 476 437 494 q 421 457 425 462 q 413 452 417 452 q 409 450 412 452 q 405 447 407 449 q 397 437 404 444 q 361 401 383 422 q 361 343 361 346 q 351 336 357 336 q 342 340 345 336 q 336 361 340 343 q 334 378 335 376 l 330 375 q 319 368 325 372 q 308 360 313 364 q 299 354 302 356 q 296 353 297 353 q 319 327 309 340 q 345 299 330 314 q 370 269 366 277 q 377 259 372 265 q 389 249 382 254 q 433 190 416 226 q 451 119 450 155 q 460 59 451 101 q 463 44 463 50 q 453 26 463 37 q 448 21 450 22 q 440 19 446 19 q 417 26 428 19 q 391 40 407 33 q 356 66 371 50 q 328 108 332 90 q 319 134 328 111 q 306 169 315 146 q 288 206 297 193 q 278 221 283 212 q 270 236 273 229 q 258 254 264 249 q 238 265 252 260 q 222 273 232 268 q 203 283 212 278 q 180 296 183 296 q 179 292 180 296 q 179 281 179 288 q 180 271 179 276 q 181 261 180 265 q 182 255 182 258 q 172 243 182 243 q 168 244 170 243 q 164 245 165 245 l 163 244 l 163 239 q 168 147 168 208 q 163 58 168 82 q 111 4 152 4 m 353 109 q 354 112 354 110 q 352 116 354 115 l 351 117 l 350 117 q 351 115 350 116 q 352 112 351 113 q 353 109 352 110 l 353 109 m 151 416 l 159 418 q 248 457 198 424 q 363 607 338 519 q 369 686 369 637 q 363 740 369 722 q 353 755 361 745 q 323 806 342 772 q 309 829 315 819 q 301 840 302 840 q 300 841 300 841 l 300 840 q 299 839 299 840 q 298 832 299 838 q 297 818 298 826 q 291 791 296 799 q 283 772 286 783 q 280 751 280 761 q 269 735 279 735 q 256 745 259 735 q 254 759 255 753 q 251 778 252 764 q 250 818 250 791 q 252 843 250 837 q 255 858 255 853 q 252 862 255 862 q 240 853 249 862 q 222 826 232 844 q 209 794 213 808 q 203 712 203 771 q 205 633 203 678 q 205 606 205 621 q 194 597 203 597 q 185 601 189 597 q 178 656 181 605 q 173 694 176 680 q 153 754 170 708 l 151 727 q 149 666 149 703 q 151 564 149 624 q 153 522 153 536 q 146 452 153 510 l 146 429 q 149 416 148 417 l 151 416 m 195 519 l 195 519 q 182 530 188 519 q 182 543 182 533 q 183 560 182 551 q 185 572 184 569 q 192 577 187 576 q 199 576 197 577 q 205 557 205 571 q 203 530 205 544 q 195 519 201 519 z "},"s":{"ha":627,"x_min":29,"x_max":593,"o":"m 270 8 q 191 18 220 8 q 151 40 174 24 l 111 63 q 71 94 92 73 q 46 124 54 112 q 37 153 39 136 q 32 178 34 171 q 29 192 29 186 q 31 202 29 195 q 41 227 32 208 q 85 283 65 283 q 97 278 91 283 q 103 269 103 273 q 105 265 103 267 q 110 260 106 262 q 121 246 117 256 q 126 232 125 234 q 141 219 129 227 q 169 203 153 211 q 200 182 184 195 q 227 145 220 165 q 231 123 229 139 l 248 121 q 301 119 262 119 q 339 122 330 119 q 361 130 344 123 l 373 134 q 444 214 401 144 q 471 270 466 250 q 473 290 473 279 q 472 308 473 296 q 457 345 471 328 q 429 369 439 363 q 327 387 406 381 l 292 390 q 290 351 290 357 q 291 323 290 337 q 293 305 293 310 q 292 302 293 303 q 283 293 290 293 q 275 296 278 293 q 271 311 272 300 q 269 322 271 316 q 264 360 264 341 l 264 397 q 186 415 199 411 l 178 416 l 177 284 q 181 267 177 277 q 185 256 184 260 q 184 250 185 252 q 176 243 181 243 q 160 257 167 243 q 151 315 151 273 l 152 351 q 149 385 152 367 q 121 435 140 425 q 80 463 99 446 q 53 498 62 480 q 37 554 42 520 q 35 584 35 570 q 50 647 35 605 l 61 687 l 62 697 l 62 705 q 54 743 54 725 q 65 789 54 762 q 123 863 77 815 q 225 943 177 920 q 256 957 249 956 q 273 961 264 959 q 317 967 292 966 q 346 966 340 967 q 359 962 351 965 q 371 958 366 960 q 390 951 380 956 l 391 949 q 406 940 396 947 q 430 926 413 935 q 464 892 447 917 q 488 821 488 856 q 463 764 488 781 q 444 758 452 758 q 432 762 437 758 q 416 789 427 766 q 406 814 412 795 q 392 802 404 810 q 388 797 388 800 q 383 789 388 793 q 374 785 378 785 q 360 802 363 785 q 355 817 359 812 q 352 823 353 819 q 351 846 351 827 q 349 849 351 848 q 338 851 345 851 q 333 835 335 850 q 331 817 332 827 q 328 798 329 807 q 323 758 326 786 q 321 735 323 741 q 312 730 319 730 q 307 731 310 730 q 298 745 300 734 q 291 818 295 755 q 289 819 291 819 q 279 816 287 819 q 242 790 256 804 q 223 776 228 778 q 210 763 216 772 q 201 745 204 755 q 201 734 201 742 q 205 714 201 732 l 205 703 q 205 694 205 696 q 190 685 201 685 q 183 687 186 685 q 180 689 181 689 q 179 688 179 689 q 178 683 178 688 q 156 621 172 654 q 140 585 147 604 l 144 570 q 154 550 147 557 q 177 538 160 543 q 227 526 193 533 q 294 513 263 521 q 317 509 307 511 q 332 507 328 507 q 399 500 351 507 q 482 477 449 493 q 526 446 503 466 q 590 327 582 397 q 593 290 593 308 q 584 231 593 263 q 536 142 574 199 q 514 111 523 122 q 487 81 505 99 q 451 50 465 59 q 417 35 437 41 l 382 22 q 331 12 352 12 q 325 12 327 12 q 319 13 322 13 l 311 12 q 270 8 279 8 m 282 207 q 273 220 273 207 q 277 237 273 233 q 284 241 281 241 q 294 224 294 241 q 282 207 291 207 z "},"t":{"ha":728,"x_min":37,"x_max":701,"o":"m 357 -21 q 327 -17 338 -21 q 310 -14 315 -14 q 301 -10 305 -14 q 296 -1 297 -6 q 304 14 296 6 q 319 21 312 21 q 323 22 323 21 q 324 24 324 23 q 313 56 324 34 q 308 70 309 64 q 307 96 307 77 q 309 124 307 111 q 311 141 311 134 l 307 155 q 297 223 297 189 q 301 258 297 245 q 304 281 304 263 l 302 316 q 304 340 302 330 q 308 374 308 363 q 303 399 308 382 q 296 441 301 408 q 292 490 295 463 q 287 576 288 518 q 283 645 286 636 q 280 711 280 661 q 281 738 280 730 q 282 751 281 746 q 281 761 282 755 q 277 777 280 766 q 272 815 272 798 q 276 846 272 824 q 269 853 273 850 q 263 861 265 857 q 260 867 260 865 q 258 869 259 869 q 256 870 257 870 q 253 869 256 870 q 142 865 251 869 q 120 863 123 864 q 109 831 110 862 q 106 811 108 815 q 99 806 104 806 q 95 806 98 806 q 91 808 93 806 q 87 813 89 810 q 84 821 85 817 q 83 828 83 824 q 83 836 83 833 l 83 868 l 73 871 q 40 901 47 880 q 37 916 37 908 q 45 941 37 928 q 47 942 46 941 l 56 950 q 82 961 64 957 q 109 966 101 964 q 125 970 125 970 q 188 980 168 979 q 237 987 208 982 q 298 991 271 991 q 346 987 324 991 q 379 985 360 985 q 439 989 406 985 q 458 991 450 991 q 473 990 465 991 q 499 981 481 989 q 522 975 515 975 l 583 978 q 656 980 623 980 q 688 968 678 977 l 693 964 q 701 939 701 954 q 680 905 701 913 l 669 901 l 555 902 l 555 901 q 536 883 546 891 q 522 865 530 878 q 504 846 513 846 q 492 855 495 846 q 491 871 491 861 l 492 899 q 463 896 474 899 q 425 880 428 888 q 419 852 425 876 q 407 791 414 828 q 399 673 399 753 q 401 579 399 631 q 404 427 404 526 q 410 235 404 260 q 412 196 412 218 q 407 142 412 165 q 401 86 403 130 l 400 58 q 395 31 399 43 q 391 14 391 18 q 392 12 391 13 q 393 3 393 10 q 357 -21 393 -21 z "},"u":{"ha":598,"x_min":28,"x_max":570,"o":"m 287 -18 l 275 -18 q 191 2 216 -18 q 132 55 163 23 q 90 106 101 87 q 74 155 81 126 q 66 214 67 184 q 61 259 64 235 q 52 303 57 283 q 49 318 50 311 q 47 329 47 326 q 44 336 46 333 q 40 342 43 340 q 37 348 38 344 q 35 363 36 353 q 35 395 35 373 q 35 435 35 407 q 38 505 36 464 q 41 557 39 546 q 43 590 43 564 q 31 747 43 673 q 28 770 28 759 q 37 814 28 792 q 44 850 43 834 q 48 876 45 866 q 56 898 51 886 q 114 941 79 939 q 129 939 123 941 q 142 935 132 937 q 184 895 175 928 q 192 884 186 885 q 197 873 197 882 l 197 866 q 201 849 197 857 q 204 839 203 844 q 206 823 206 833 q 197 807 206 808 l 191 806 q 190 732 191 747 q 186 702 189 718 q 182 670 184 690 q 178 633 180 651 q 174 590 175 593 q 174 587 174 588 l 181 587 q 197 576 197 587 q 195 568 197 572 q 192 555 192 563 q 196 530 192 545 q 203 478 203 503 q 197 437 203 456 q 195 411 195 427 q 203 349 199 355 q 210 319 205 345 l 211 317 q 214 295 214 304 q 209 239 214 278 q 208 231 208 236 q 206 204 206 218 q 208 185 206 193 q 210 168 210 174 l 208 163 q 203 156 205 157 l 203 155 q 222 117 203 146 q 245 85 233 98 l 267 89 q 394 165 328 96 l 425 195 l 424 198 q 420 258 422 228 q 419 281 419 268 q 421 330 419 316 l 422 334 q 421 335 422 335 q 419 334 420 335 q 415 332 418 332 q 406 336 409 332 q 401 357 402 340 q 400 401 400 369 l 401 418 q 399 446 401 435 q 397 471 397 466 q 398 516 397 494 q 400 550 399 538 l 401 562 q 400 569 401 566 q 397 576 399 572 q 393 598 393 588 q 397 618 393 609 q 413 642 401 627 q 430 664 424 657 q 437 681 437 670 q 435 697 437 687 q 434 718 435 703 q 432 752 433 734 q 431 783 432 770 q 430 798 431 796 q 429 819 429 800 q 431 862 429 838 l 432 877 l 433 882 q 432 886 433 884 q 431 889 432 888 q 420 913 420 900 q 427 937 420 928 q 452 962 429 940 l 463 972 q 462 972 462 972 l 464 974 q 481 979 470 976 q 500 981 493 981 q 509 980 503 981 q 521 977 515 979 q 533 972 533 972 l 533 971 q 535 967 533 969 q 549 950 547 954 l 550 948 q 555 933 553 942 l 559 917 q 570 857 570 878 q 569 847 570 851 l 568 830 l 569 814 q 570 805 570 810 l 569 789 q 564 743 567 753 q 553 728 562 736 l 553 673 q 556 593 553 614 q 559 526 559 564 q 556 470 559 487 q 555 463 555 468 q 552 454 554 458 q 549 446 550 450 q 546 436 549 443 q 541 422 543 429 q 534 363 538 404 q 532 297 532 336 q 538 258 532 283 q 545 198 545 224 q 523 124 545 153 q 485 84 512 111 q 421 30 451 50 q 357 -3 392 10 q 321 -15 334 -12 q 287 -18 309 -17 z "},"v":{"ha":671,"x_min":29,"x_max":642,"o":"m 391 -16 q 358 -12 372 -16 q 284 27 311 -1 q 235 124 258 56 q 224 151 230 138 q 216 172 219 165 q 188 245 195 220 q 176 309 180 271 q 167 361 173 341 q 150 401 161 382 q 142 416 146 408 q 136 432 138 425 q 126 463 131 450 q 114 496 122 475 q 104 524 109 509 q 96 551 99 540 q 88 577 92 563 q 79 601 83 591 q 62 679 66 637 q 61 690 62 686 q 60 693 61 693 q 58 694 60 694 l 54 692 q 32 757 40 692 q 29 789 29 775 q 42 839 29 811 q 84 882 58 873 q 108 888 97 888 q 142 871 127 888 q 159 845 150 863 q 169 818 168 827 q 175 797 170 809 q 185 778 180 785 q 192 764 190 771 q 203 747 193 757 q 224 704 224 726 q 219 673 224 691 q 214 635 214 652 q 216 614 214 618 q 224 581 224 605 q 233 535 224 556 q 236 521 236 525 q 241 509 236 517 q 252 468 250 490 q 255 457 253 461 q 262 447 257 453 q 281 410 275 433 q 284 399 282 406 q 289 388 287 393 q 300 352 297 368 q 304 306 304 336 q 306 277 305 289 q 308 262 307 264 q 312 253 308 260 q 320 234 315 245 q 329 218 326 224 q 344 203 334 209 l 357 194 l 358 194 q 369 206 360 194 q 385 230 376 219 q 397 256 397 244 q 395 264 397 260 q 393 273 393 269 q 401 284 393 279 q 407 288 405 286 q 411 298 409 291 q 415 321 412 306 q 425 366 418 342 q 433 437 431 393 q 431 460 433 454 l 429 467 q 425 451 427 459 q 422 437 423 442 q 419 430 420 432 q 414 426 417 427 q 408 424 411 424 q 401 426 405 424 q 398 433 398 429 q 398 437 398 435 q 400 446 399 439 q 403 463 401 453 q 406 481 404 472 q 409 497 408 491 q 411 508 411 504 l 408 519 q 406 541 406 530 q 422 602 406 577 l 428 611 l 424 621 q 420 646 420 631 q 423 661 420 654 q 431 677 425 667 q 437 689 435 684 q 440 703 439 695 q 468 791 445 743 q 494 829 481 815 q 515 856 512 850 q 526 874 519 866 q 538 887 532 882 q 560 892 543 891 l 587 896 q 597 897 593 897 q 620 890 609 897 q 642 843 640 875 q 639 781 642 820 q 631 705 635 741 l 622 642 q 595 503 610 559 q 574 362 575 431 q 532 163 574 287 q 515 119 522 134 q 500 95 508 105 q 494 87 496 90 q 486 60 490 79 q 477 27 481 37 q 391 -16 453 -16 m 66 495 l 65 495 q 59 498 61 495 q 52 522 54 501 q 50 549 50 536 q 50 561 50 552 q 53 574 50 570 q 61 578 56 578 q 66 577 64 578 q 71 566 69 575 q 73 542 73 556 q 75 515 73 528 l 77 504 q 76 502 77 503 q 73 498 75 500 q 66 495 71 495 z "},"w":{"ha":1011,"x_min":30,"x_max":984,"o":"m 397 -77 q 345 -64 369 -77 l 332 -58 l 328 -54 q 243 56 262 0 q 230 84 240 68 q 208 136 214 108 q 184 214 193 193 q 165 274 174 235 q 162 295 163 285 q 161 354 161 306 l 152 376 q 134 444 138 408 q 127 478 132 460 q 119 536 120 501 l 118 554 q 115 589 115 574 q 112 605 115 600 l 111 606 l 109 606 q 103 570 106 600 l 93 502 l 87 457 q 84 430 85 439 q 81 410 83 414 q 71 402 78 402 q 62 407 66 402 l 56 412 l 56 451 q 57 488 56 467 q 58 522 58 508 q 59 543 59 535 q 56 564 59 555 q 50 605 52 575 q 45 644 48 635 q 39 704 40 659 q 33 745 35 737 q 30 768 30 755 q 31 782 30 771 q 39 819 31 793 q 54 866 47 850 q 71 891 61 882 q 80 905 80 901 q 85 918 81 910 q 131 948 101 948 q 168 931 152 948 q 175 921 175 924 l 176 921 q 181 924 178 921 q 189 926 184 926 q 203 920 199 926 q 203 913 203 918 l 203 903 q 201 876 201 888 q 207 832 201 854 q 215 800 214 810 q 221 728 218 787 q 223 684 223 693 q 221 679 222 681 q 218 675 220 677 q 214 669 214 671 l 214 668 q 217 664 214 666 q 231 638 228 656 q 237 605 233 624 q 241 580 239 594 q 244 551 243 566 q 250 510 245 521 q 264 459 258 492 q 271 428 267 444 q 279 404 275 411 q 305 362 281 399 q 337 307 328 328 q 349 262 346 286 q 370 214 352 243 q 396 183 382 195 q 436 153 435 153 l 452 163 q 483 179 469 174 q 500 186 493 182 q 505 195 500 187 q 515 214 509 203 q 536 248 526 237 l 546 256 q 560 331 549 274 q 570 411 570 376 q 571 454 570 447 q 572 465 572 460 q 571 469 572 469 q 566 452 570 469 q 558 427 562 435 l 551 406 q 537 391 545 391 q 530 394 534 391 q 526 403 526 398 l 526 412 q 531 437 528 425 q 534 457 534 449 q 535 469 534 461 q 538 484 536 477 q 546 568 546 520 q 549 605 546 593 q 562 631 552 617 q 572 652 570 644 l 574 665 q 578 703 575 684 q 586 731 582 722 q 618 768 591 740 q 643 791 635 784 q 673 801 655 801 q 711 786 692 801 q 739 732 731 770 q 742 622 742 714 q 740 574 741 588 q 736 545 738 560 q 734 506 734 533 q 739 388 734 452 q 741 347 740 368 q 742 315 741 326 l 742 289 q 752 283 748 286 q 758 273 755 279 l 765 254 q 773 236 767 248 q 787 215 780 225 q 798 201 794 204 q 804 195 802 197 l 807 201 q 817 208 811 208 q 829 202 823 208 q 831 196 830 201 q 833 187 832 192 q 838 174 834 176 q 840 175 839 174 q 842 184 841 175 l 843 198 q 846 317 843 230 q 851 391 846 368 q 861 425 854 405 q 880 505 873 467 l 883 523 q 881 532 883 528 q 876 574 876 549 q 882 637 876 591 q 887 673 885 661 q 890 697 890 686 q 886 723 890 708 q 881 751 884 732 q 878 764 881 762 q 872 756 877 764 q 861 679 863 739 q 851 595 859 629 q 845 566 847 576 q 843 535 843 555 l 843 500 q 833 483 843 483 q 825 486 829 483 q 823 490 824 488 q 822 500 822 492 q 826 584 822 570 q 831 613 829 597 l 835 642 q 839 854 838 655 l 845 870 q 850 897 850 885 l 850 930 q 854 947 850 939 l 859 958 l 869 968 q 895 978 882 978 q 922 968 908 978 l 932 961 l 934 958 q 940 951 935 956 l 947 935 q 952 883 951 922 q 958 818 953 844 l 962 791 q 968 727 966 734 q 972 673 970 720 q 979 599 973 627 q 982 577 981 586 q 984 557 983 568 q 981 455 984 484 q 972 394 979 427 q 968 373 969 382 q 965 309 966 358 l 962 235 q 960 189 960 214 q 954 136 959 165 q 930 55 942 78 q 908 26 923 40 q 857 -5 884 4 q 833 -7 850 -7 q 796 1 812 -7 q 786 4 789 3 q 775 3 781 4 q 765 1 770 1 q 703 41 732 1 q 694 52 701 45 q 680 66 688 59 q 665 83 670 76 q 656 122 658 94 q 653 149 656 141 q 651 157 652 153 l 651 164 l 652 170 q 650 166 651 170 q 646 155 648 161 l 640 132 q 624 98 637 119 q 598 60 612 77 q 591 52 595 57 q 586 45 588 47 q 567 30 576 30 q 542 10 562 30 q 509 -20 526 -5 q 473 -49 492 -35 l 462 -58 l 446 -65 q 397 -77 423 -77 m 195 715 l 196 718 l 195 721 q 195 719 195 720 q 195 715 195 715 z "},"x":{"ha":655,"x_min":27,"x_max":623,"o":"m 594 361 q 581 382 581 361 q 591 397 581 397 q 602 380 600 397 l 603 375 q 594 361 603 361 m 568 -10 q 518 9 545 -10 q 441 102 476 39 q 398 170 433 118 q 375 208 387 187 q 359 229 363 229 q 355 230 357 229 q 350 231 352 230 q 347 231 348 231 q 343 231 345 231 q 338 225 342 230 q 331 207 335 221 q 328 182 328 192 q 321 165 328 170 q 315 163 318 163 q 307 167 311 163 q 303 186 303 171 l 302 201 q 276 172 290 187 q 256 147 263 156 q 246 133 248 138 q 244 124 244 128 l 244 123 q 235 85 244 106 q 169 26 218 54 q 138 8 151 17 q 113 -4 125 -1 q 87 -8 102 -8 q 72 -7 77 -8 q 60 -2 67 -6 q 50 4 55 0 q 41 12 45 8 q 31 28 35 18 q 27 47 27 39 q 31 68 28 56 q 37 86 33 81 q 48 96 41 92 q 60 100 56 100 q 71 106 62 100 q 98 125 90 117 q 102 132 98 127 q 119 153 116 147 q 125 169 122 158 q 145 214 132 189 q 155 236 151 225 q 161 251 159 246 q 187 293 168 271 q 229 330 206 316 l 243 338 q 244 368 243 364 q 249 378 245 372 q 253 386 252 383 q 252 392 253 388 q 240 427 244 410 q 233 475 237 444 q 228 511 229 501 q 222 528 226 521 q 210 546 218 534 q 171 621 184 581 q 154 659 161 646 q 140 690 144 675 q 134 725 136 705 q 131 746 132 745 l 130 722 q 130 690 130 712 q 131 664 130 680 l 132 652 q 131 646 132 648 q 128 641 130 644 q 121 638 125 638 q 114 641 117 638 q 101 714 106 648 l 98 749 q 100 766 98 759 q 101 782 101 772 q 100 810 101 791 q 98 838 98 828 q 99 849 98 846 q 100 857 100 853 l 98 865 q 92 888 92 877 q 129 937 92 923 q 132 938 130 937 q 138 939 134 939 q 159 937 146 939 q 186 920 174 930 q 201 909 194 911 q 217 898 208 907 q 232 878 226 889 q 245 846 235 873 q 267 794 254 823 q 279 770 275 780 q 301 709 283 760 q 317 670 310 684 l 330 641 q 342 623 336 624 q 357 609 351 619 q 363 589 363 595 q 367 583 363 587 l 386 562 q 406 566 402 564 q 417 581 410 568 l 422 591 q 437 652 437 622 q 434 687 437 667 q 431 724 431 707 q 519 890 431 827 q 581 913 555 913 q 611 903 602 913 q 623 876 623 891 q 610 844 623 861 l 601 831 l 604 802 q 607 755 607 775 q 605 705 607 735 q 602 678 604 687 q 599 667 601 669 q 594 665 597 665 q 582 671 585 665 q 580 696 580 678 q 578 721 580 721 q 572 676 576 721 q 567 660 570 663 q 562 638 564 656 q 535 536 558 584 q 508 493 526 518 q 474 448 491 467 q 449 416 456 428 q 442 388 442 405 q 448 369 442 381 q 456 349 454 356 q 476 304 458 338 l 487 283 q 506 240 502 253 q 515 221 509 232 q 557 148 520 214 q 584 106 569 125 q 616 39 616 64 q 614 30 616 35 q 568 -10 606 -10 m 591 427 q 584 430 589 427 q 580 457 580 433 q 581 495 580 471 q 582 532 581 520 q 586 547 583 543 q 593 550 589 550 q 601 548 597 550 q 604 522 604 545 l 603 486 q 602 440 603 456 q 591 427 601 427 z "},"y":{"ha":568,"x_min":29,"x_max":540,"o":"m 294 -12 q 237 7 260 -12 q 219 14 232 13 q 189 21 206 16 q 161 32 172 26 q 136 50 150 37 q 124 60 131 55 q 113 69 117 66 q 83 151 83 92 l 83 154 q 81 184 83 168 q 79 199 79 191 l 80 208 q 78 232 80 216 q 75 261 75 248 q 76 274 75 264 q 81 288 77 283 q 89 292 85 292 q 96 288 92 292 q 100 285 98 287 q 104 263 102 279 q 128 187 107 235 q 164 134 146 147 q 174 126 168 132 q 184 117 180 121 q 203 106 193 109 q 233 101 212 102 l 245 100 q 254 103 251 100 q 262 106 257 106 q 269 103 267 106 q 277 100 272 100 q 310 111 288 100 q 338 123 326 120 q 347 125 343 123 q 354 133 350 127 q 385 179 374 157 l 391 193 l 391 231 q 396 288 391 268 q 400 321 400 304 q 397 355 400 327 q 395 348 396 351 q 392 340 393 345 q 389 330 391 334 q 376 312 385 312 q 365 324 365 312 l 366 330 q 367 348 367 336 q 374 376 367 359 q 378 392 378 389 q 378 393 378 393 q 323 370 342 377 q 276 361 298 361 q 233 363 250 361 q 144 396 182 371 q 93 447 121 412 l 94 431 q 79 401 94 401 q 66 422 68 401 q 53 471 65 437 q 45 516 47 487 l 43 538 q 46 562 43 553 l 47 567 q 34 659 47 590 q 29 709 29 684 q 44 813 29 747 q 71 911 62 897 q 107 933 85 933 q 128 927 115 933 l 129 926 q 138 921 135 924 q 144 913 142 919 q 153 890 153 893 q 165 871 158 878 q 176 856 174 861 q 183 802 183 844 q 187 755 183 771 q 200 682 196 717 l 205 640 q 207 617 207 624 q 205 611 207 613 q 197 606 202 606 q 192 606 196 606 q 185 613 189 606 q 182 623 184 616 q 179 637 180 629 q 175 652 177 644 q 172 663 173 659 q 169 673 171 666 q 166 688 168 680 q 162 705 164 696 q 158 720 159 713 q 153 733 156 726 l 153 719 q 157 680 153 705 q 167 623 163 652 q 190 530 178 557 q 206 508 196 519 q 227 492 216 498 q 273 481 255 481 q 299 487 282 481 q 328 498 317 492 q 352 523 340 504 q 372 564 365 542 q 381 600 377 580 q 385 633 385 619 q 386 660 385 643 q 389 693 387 677 q 391 712 390 708 l 392 714 q 389 717 392 716 q 376 756 376 720 q 379 781 376 768 q 394 817 382 793 q 412 849 408 845 q 423 873 416 854 q 443 905 433 896 q 465 914 452 914 q 496 895 486 914 q 503 861 500 884 q 505 838 503 852 q 513 755 512 775 q 523 680 517 710 q 529 643 527 659 q 535 586 531 627 l 538 559 q 540 515 540 536 q 538 480 540 497 q 537 463 538 473 q 535 442 536 452 q 532 417 534 432 q 527 390 530 403 q 523 361 525 378 q 519 331 520 345 q 517 302 518 317 q 514 278 515 288 q 512 255 513 269 q 511 227 511 241 l 511 215 q 453 64 511 136 q 369 6 407 6 q 354 2 364 6 q 294 -12 325 -12 z "},"z":{"ha":667,"x_min":32,"x_max":636,"o":"m 130 -59 q 91 -52 110 -59 q 34 13 45 -36 q 32 29 32 21 q 74 119 32 67 q 98 153 89 136 q 109 172 103 163 q 114 188 112 174 q 129 218 117 202 q 160 268 154 249 q 165 280 162 273 q 171 292 168 287 q 197 350 192 327 q 210 382 199 362 q 223 416 221 408 q 243 456 230 439 q 263 484 254 469 q 289 515 281 508 q 325 563 305 533 q 357 620 344 592 q 394 664 369 644 q 448 753 430 694 q 456 779 456 774 q 445 783 456 782 q 419 781 431 783 q 380 778 401 778 q 340 781 361 778 q 276 785 319 784 l 232 786 l 228 781 q 213 703 214 766 q 211 676 212 685 q 208 665 210 667 q 202 662 206 662 q 193 667 195 662 q 191 687 191 672 q 191 702 191 696 q 178 738 189 711 q 171 755 173 750 q 169 766 170 761 q 168 775 169 770 l 123 775 q 127 738 124 751 q 132 671 132 705 q 129 664 131 666 q 122 662 127 662 q 114 669 117 662 q 102 715 111 676 q 92 729 102 718 q 80 748 82 741 q 71 772 77 758 q 64 798 64 789 q 59 817 64 807 q 54 837 54 827 q 60 859 54 848 q 110 886 71 886 l 115 886 q 155 891 136 886 l 165 893 q 214 904 180 899 q 307 907 238 907 q 342 905 332 907 q 372 903 356 903 q 421 907 395 903 q 449 910 436 909 q 479 911 462 911 q 513 910 508 911 q 547 892 536 903 q 553 888 550 890 q 572 886 555 887 q 621 867 604 885 q 636 824 636 852 q 631 789 636 809 q 621 754 627 769 q 600 710 615 739 q 568 656 584 680 q 526 596 552 631 q 500 562 509 574 q 474 510 485 538 q 456 469 465 486 q 433 428 448 452 q 399 376 411 393 q 372 345 387 359 q 341 312 360 334 q 320 288 325 293 q 312 279 315 283 q 309 274 309 275 q 302 264 309 272 q 284 236 295 256 q 245 151 257 186 q 241 128 241 136 l 242 94 q 237 75 241 87 l 252 75 l 256 74 l 261 75 q 304 82 277 78 q 341 87 331 85 q 397 91 357 91 l 423 91 q 448 87 441 90 q 462 84 457 84 q 494 88 479 84 q 504 91 501 90 q 509 93 507 92 l 517 92 l 560 86 q 578 87 572 86 l 582 88 q 590 84 585 88 q 594 74 594 80 q 591 63 594 68 q 587 58 587 59 q 591 58 587 58 q 600 52 595 58 q 609 31 609 43 q 600 1 609 15 q 586 -10 595 -5 q 565 -15 577 -15 q 511 -16 556 -16 l 496 -17 q 475 -22 487 -19 q 449 -26 463 -26 q 360 -26 439 -26 q 338 -26 349 -26 q 233 -27 247 -26 q 218 -30 224 -28 q 200 -39 211 -33 q 130 -59 163 -59 m 192 77 q 194 78 193 77 q 195 80 195 79 l 193 81 q 191 79 191 80 q 192 77 191 77 m 218 312 q 231 328 220 312 q 251 362 236 335 q 277 404 262 385 q 338 515 300 437 q 358 564 349 538 l 367 590 l 365 586 q 359 576 362 582 q 304 495 336 532 q 290 473 298 488 q 273 447 281 458 q 260 433 264 435 q 253 423 257 432 q 241 392 249 414 q 232 363 237 380 q 218 313 222 330 l 218 312 z "},"{":{"ha":499,"x_min":27,"x_max":472,"o":"m 379 -1 q 352 3 363 -1 q 287 27 312 14 q 260 47 272 35 q 224 118 237 68 q 216 177 217 143 q 212 220 214 207 q 210 285 210 228 l 191 289 q 180 290 185 290 q 160 291 174 290 q 131 293 146 292 q 81 298 97 294 q 27 359 29 310 q 36 391 27 376 q 106 457 51 418 q 237 585 185 510 q 258 679 254 608 q 265 755 260 714 q 276 815 271 795 q 323 902 290 867 q 346 922 332 913 q 369 935 359 932 q 372 937 372 936 q 379 940 373 938 q 391 941 385 941 q 422 937 417 941 q 434 928 426 935 q 452 903 452 911 q 448 893 452 897 q 436 889 444 889 q 422 892 429 889 q 408 895 415 895 q 377 876 382 895 q 376 847 376 872 q 376 759 376 808 q 376 703 376 709 q 377 695 377 696 q 374 694 376 694 l 370 694 q 368 704 369 695 q 367 726 368 713 q 366 751 366 739 q 365 772 366 764 q 365 797 365 781 q 363 830 364 814 q 361 865 363 847 q 338 810 339 833 q 343 766 338 798 q 355 712 349 735 q 368 640 368 675 l 367 623 q 356 556 367 587 q 339 523 346 532 q 336 498 336 517 q 333 448 336 474 l 332 421 q 333 403 332 411 q 334 389 334 395 q 330 380 334 380 q 312 453 318 380 l 310 484 q 222 395 258 422 l 218 391 q 232 385 223 388 q 251 380 241 381 q 296 359 280 373 q 310 334 305 350 q 317 281 314 317 q 319 256 317 269 q 321 235 320 243 q 324 215 323 228 q 326 190 325 202 q 328 168 327 178 q 330 154 329 157 q 332 144 330 151 q 334 130 333 137 q 336 116 334 122 q 338 107 337 109 q 345 101 340 105 q 357 94 350 98 q 371 85 363 90 q 382 77 378 81 q 408 66 391 72 q 441 57 425 60 q 456 55 452 56 q 463 52 461 54 q 469 47 465 51 q 472 36 472 44 q 445 10 472 19 q 379 -1 410 0 z "},"|":{"ha":215,"x_min":27,"x_max":187,"o":"m 100 5 l 94 5 q 71 37 76 7 q 61 72 69 46 q 47 127 50 105 q 43 191 44 149 q 47 292 43 245 q 50 338 49 313 q 53 408 53 382 q 50 496 53 449 q 45 534 48 534 l 45 529 q 39 439 43 459 q 34 431 37 431 l 27 432 l 27 517 q 31 630 27 604 q 36 759 34 656 q 38 853 37 819 q 50 932 40 910 q 101 973 69 973 q 150 932 132 972 q 161 877 157 915 q 165 760 164 840 q 178 584 168 669 q 187 422 187 503 q 184 301 187 336 q 168 160 173 197 q 156 105 163 127 q 139 59 150 83 q 123 23 129 35 q 111 8 117 12 q 100 5 106 5 z "},"}":{"ha":500,"x_min":27,"x_max":472,"o":"m 121 -1 q 55 10 90 0 q 27 36 27 19 q 37 52 27 47 q 59 57 41 55 q 91 66 74 60 q 117 77 108 72 q 129 85 121 81 q 161 107 158 102 q 166 131 165 112 q 170 154 168 149 q 174 191 172 163 q 178 235 175 218 q 183 281 182 253 q 190 334 186 317 q 204 359 195 350 q 249 380 220 373 q 282 391 266 382 l 278 395 q 242 427 264 406 q 204 467 220 448 l 189 484 l 187 453 q 170 380 181 380 q 165 391 165 380 q 166 403 165 395 q 168 421 168 411 q 166 448 168 432 q 164 498 164 487 q 160 523 164 517 q 152 538 157 528 q 136 587 139 562 q 132 633 132 606 q 135 671 132 653 q 144 712 137 690 q 157 766 151 735 q 162 810 162 798 q 156 833 161 820 q 142 858 151 846 l 138 865 q 137 830 138 847 q 135 797 136 814 q 134 772 134 781 q 134 751 134 764 q 132 726 133 739 q 131 704 132 713 q 130 695 130 695 q 129 694 130 694 q 126 694 127 694 q 123 696 123 694 q 123 702 123 698 q 124 789 124 706 q 123 876 124 868 q 105 892 119 888 q 92 895 98 895 q 78 892 85 895 q 64 889 71 889 q 52 893 56 889 q 47 902 47 897 q 56 918 47 907 q 66 928 60 924 q 78 938 74 935 q 103 941 81 940 l 109 941 q 121 940 115 941 q 127 937 126 938 q 131 935 128 936 q 153 922 140 932 q 224 815 205 886 q 234 755 229 795 q 242 679 239 714 q 262 585 246 608 q 290 550 272 571 q 319 517 307 528 q 393 457 351 485 l 414 442 q 464 391 454 410 q 472 362 472 378 q 419 298 472 310 q 368 293 403 294 l 340 292 q 309 289 312 290 q 290 285 306 289 l 290 258 q 288 221 290 235 q 284 177 286 207 q 275 118 282 143 q 240 47 263 68 q 213 27 228 35 q 149 3 195 17 q 121 -1 136 -1 z "},"~":{"ha":454,"x_min":28,"x_max":427,"o":"m 318 376 q 293 380 305 376 l 283 383 l 274 386 q 252 395 265 388 q 226 414 239 401 q 216 426 223 417 q 198 444 208 435 l 196 446 q 188 454 189 453 q 186 456 188 454 q 182 461 184 458 q 177 465 179 463 q 172 468 175 467 q 175 433 175 440 q 170 417 175 417 q 165 422 165 417 q 159 458 165 427 l 155 475 q 139 481 146 479 l 141 456 q 138 447 141 447 q 135 449 135 447 q 134 458 135 452 q 131 472 132 465 q 128 484 130 479 l 117 486 l 111 485 q 99 483 104 485 l 97 483 q 92 481 94 482 q 89 480 90 480 q 88 478 88 479 q 85 472 85 476 q 90 461 85 468 q 102 430 102 439 q 93 420 102 420 q 50 446 75 420 q 28 488 28 467 q 34 508 28 500 q 59 530 41 515 q 84 542 68 536 q 115 549 100 547 q 173 539 145 549 q 207 525 195 531 q 239 498 222 515 q 257 480 252 485 q 265 471 262 475 l 276 460 q 298 450 281 457 q 319 444 312 444 q 341 450 327 444 q 356 457 352 454 q 363 468 359 460 q 367 487 367 480 l 366 492 l 359 507 q 354 515 358 511 l 354 509 q 351 499 354 499 q 348 502 348 499 q 347 511 348 504 q 344 526 345 518 q 332 532 340 528 l 334 513 q 330 503 334 503 q 328 507 328 503 q 324 526 328 510 l 322 538 q 311 548 311 542 q 335 560 313 557 l 343 561 q 386 547 366 561 q 412 520 401 536 q 427 483 427 499 q 422 452 427 469 q 421 446 422 449 q 390 401 412 416 q 370 390 383 396 q 318 376 342 376 z "},"¡":{"ha":228,"x_min":28,"x_max":197,"o":"m 142 840 q 124 844 133 840 q 111 857 116 849 q 99 869 109 861 q 72 916 72 888 q 75 930 72 922 q 114 970 83 961 q 138 973 124 973 q 161 969 152 972 q 180 956 170 966 q 197 918 197 941 q 193 894 197 907 q 142 840 178 840 m 115 92 q 55 161 64 92 q 50 244 52 187 q 37 371 48 309 q 28 476 28 427 q 29 545 28 520 q 37 612 31 570 q 53 697 45 671 q 76 748 60 723 q 93 774 86 766 q 115 787 103 787 l 121 787 q 132 783 126 787 q 144 763 141 778 q 154 739 147 755 q 169 699 165 715 q 172 633 172 682 q 168 581 172 608 q 163 498 163 525 q 165 434 163 467 q 170 407 168 407 q 170 411 170 407 q 172 436 171 422 q 174 461 173 450 q 176 475 175 472 q 179 480 178 479 q 183 481 180 481 l 189 480 q 184 338 189 361 q 180 245 181 319 q 178 178 179 202 q 165 121 176 138 q 115 92 146 92 z "},"¢":{"ha":700,"x_min":33,"x_max":671,"o":"m 406 28 q 361 68 387 28 q 339 105 349 85 q 326 136 329 125 l 324 146 l 315 148 q 203 191 274 153 q 151 221 172 206 q 109 256 130 236 q 74 298 87 275 q 51 357 61 321 q 33 477 33 422 q 38 550 33 511 q 52 615 44 589 q 76 672 60 640 q 123 751 103 726 q 169 800 138 769 q 220 846 200 830 q 245 864 230 852 q 274 885 260 875 q 299 905 288 896 q 316 917 311 913 q 323 921 320 920 q 326 923 326 923 q 326 925 326 924 q 326 929 326 926 q 324 940 325 932 q 323 953 323 947 q 333 986 323 974 l 340 995 l 345 998 q 361 1002 349 1000 l 369 1003 q 380 1001 376 1003 l 373 1002 q 380 1001 374 1001 q 399 988 390 998 q 419 968 409 978 l 456 967 q 562 959 530 966 q 671 851 659 936 l 671 845 q 658 759 671 806 q 644 718 648 725 q 621 706 637 706 q 609 710 614 706 q 601 721 604 713 q 596 734 597 728 q 595 738 596 738 l 594 733 q 585 682 590 722 q 581 648 581 656 l 578 623 q 575 597 576 609 q 573 590 574 590 q 570 589 572 589 q 566 609 566 589 l 566 652 q 569 694 568 692 q 572 723 570 696 q 578 770 573 750 l 582 790 q 585 819 585 808 q 582 835 585 829 q 570 846 579 842 q 551 851 562 850 l 534 852 q 496 851 503 852 q 484 848 486 850 q 468 693 473 840 q 467 672 468 674 q 464 670 465 670 q 458 680 460 670 q 455 543 456 680 q 451 377 454 400 q 445 305 449 362 q 441 250 441 265 q 473 248 444 248 q 502 252 488 248 q 539 266 516 255 q 582 285 563 277 q 611 300 604 294 q 631 308 623 308 q 639 307 635 308 q 654 285 654 302 l 654 274 q 625 233 652 264 q 557 168 579 182 q 503 143 532 152 q 451 138 484 138 l 413 137 l 414 116 q 426 60 416 87 q 428 50 428 54 q 421 35 428 41 q 406 28 414 28 m 317 271 q 319 314 319 271 q 321 379 319 349 q 323 581 323 401 l 323 761 q 317 746 322 761 q 309 714 311 729 l 297 641 q 287 556 288 589 q 285 529 286 534 q 281 524 283 524 q 278 525 280 524 q 276 552 276 526 q 277 610 276 574 q 282 718 281 708 q 284 730 284 727 q 275 722 283 730 q 234 677 258 705 q 198 620 216 658 q 180 579 185 594 q 170 527 174 562 q 165 479 165 498 q 181 370 165 419 q 187 356 184 361 q 199 342 190 351 q 222 322 212 330 q 253 303 233 314 q 279 289 265 296 q 317 271 315 271 z "},"£":{"ha":54,"x_min":0,"x_max":0,"o":""},"¤":{"ha":54,"x_min":0,"x_max":0,"o":""},"¥":{"ha":744,"x_min":28,"x_max":717,"o":"m 415 102 q 397 103 404 102 q 387 104 390 103 q 319 117 352 109 q 267 136 286 125 q 225 174 238 151 q 218 197 218 186 q 224 215 218 207 q 245 227 233 227 q 268 217 255 227 q 328 199 284 203 q 350 198 340 198 q 397 208 379 198 q 440 254 431 225 l 441 256 q 438 257 440 257 l 431 256 q 407 255 420 255 q 370 257 382 255 q 331 296 331 266 q 380 337 331 324 q 400 341 387 339 q 427 346 414 344 q 446 347 439 347 q 447 384 447 348 q 446 409 446 397 q 445 421 446 420 l 427 420 q 328 412 364 412 q 319 364 326 366 l 317 363 q 307 374 312 363 q 302 401 302 384 l 302 414 l 294 418 q 278 446 279 427 q 291 477 278 465 q 309 490 298 484 q 365 509 336 504 q 414 513 391 512 q 438 517 437 513 q 439 531 439 521 q 439 562 439 548 q 438 587 438 575 q 437 610 437 598 l 428 599 q 385 555 411 576 q 302 509 340 518 q 266 507 290 507 q 143 541 191 507 q 135 547 138 545 l 131 549 q 128 503 130 547 q 120 390 123 399 q 115 385 119 385 q 112 387 113 385 q 111 398 111 388 q 109 444 111 409 q 101 553 104 536 l 98 575 q 90 596 97 585 q 75 622 83 606 q 56 669 68 638 l 54 627 q 53 552 53 600 q 54 490 53 503 q 52 485 54 486 l 52 485 q 41 547 44 485 q 35 591 37 584 q 31 709 33 603 l 28 846 l 28 879 q 30 894 28 887 q 33 911 31 901 q 37 930 35 921 q 106 1018 51 1018 q 134 1010 121 1018 q 145 1002 139 1007 q 162 964 162 986 l 161 956 q 159 851 159 919 q 160 810 159 824 q 195 661 168 715 q 256 608 211 626 q 286 601 273 601 q 307 606 297 601 q 376 669 349 629 q 418 757 398 705 q 442 854 436 804 q 448 889 445 878 q 460 908 452 900 q 507 930 479 930 q 562 898 543 930 l 563 897 q 569 884 566 890 q 572 863 571 878 q 573 818 573 848 q 574 734 573 787 q 574 611 574 659 q 575 552 574 563 q 577 529 576 541 l 600 530 q 641 525 628 530 q 659 506 653 520 q 664 491 664 497 l 663 486 q 635 458 659 458 q 623 460 627 458 l 618 463 q 588 456 612 463 q 582 454 583 454 q 581 438 581 453 q 583 351 581 402 l 599 351 q 684 343 651 351 q 717 312 717 336 l 717 311 q 682 283 717 285 l 666 282 l 666 275 q 654 236 666 258 q 646 222 648 224 q 641 223 643 222 q 636 236 636 224 q 638 258 636 245 l 640 280 q 638 281 640 281 l 615 279 q 581 275 583 277 q 575 256 578 273 q 524 150 564 189 q 415 102 476 102 z "},"¦":{"ha":54,"x_min":0,"x_max":0,"o":""},"§":{"ha":559,"x_min":28,"x_max":529,"o":"m 285 25 l 269 25 q 224 28 247 25 q 149 49 198 33 l 125 56 l 101 64 q 48 96 62 76 q 37 116 41 104 q 31 148 33 127 q 28 169 28 161 q 31 178 28 172 q 53 193 39 193 q 70 188 64 193 q 81 171 75 183 q 89 160 85 163 q 98 155 92 156 q 120 154 103 154 q 126 153 125 153 q 128 153 126 153 q 182 144 130 153 q 251 136 236 136 q 321 148 301 136 q 341 162 341 159 q 338 172 341 163 q 320 219 326 206 q 270 261 304 250 q 220 287 248 269 q 210 294 215 291 q 205 297 205 296 l 204 298 q 202 275 202 298 q 203 250 203 265 q 197 247 201 247 q 193 249 195 247 q 187 286 187 258 l 187 306 q 155 321 163 317 q 117 351 135 334 l 117 331 q 117 314 117 322 q 119 301 118 306 q 119 294 119 297 q 115 289 119 289 q 109 299 111 289 q 93 362 94 352 l 92 371 q 78 388 90 377 q 46 440 54 413 q 43 456 43 448 q 42 479 42 464 q 102 606 42 564 l 108 611 l 96 627 q 58 722 62 667 q 57 748 57 733 q 62 812 57 788 q 126 905 75 865 q 140 913 134 909 q 193 938 174 933 q 221 941 206 941 q 323 909 275 941 q 382 830 368 880 q 387 802 387 813 q 377 779 387 785 q 372 778 375 778 q 366 780 370 778 q 334 805 361 783 l 334 779 q 325 740 334 740 q 322 740 324 740 q 320 741 321 740 q 319 745 319 743 l 320 751 l 318 784 q 314 815 315 815 q 313 819 313 815 q 302 827 313 823 q 273 834 282 834 q 269 833 270 834 q 266 828 267 832 q 264 814 265 823 q 263 787 264 804 q 259 747 261 749 q 254 745 256 745 q 247 759 250 745 q 244 770 245 763 q 240 782 242 777 q 236 812 236 798 q 237 827 236 821 q 238 833 238 832 q 234 834 237 834 q 220 827 230 834 q 201 812 210 821 q 186 792 188 800 q 184 762 184 783 q 187 728 184 739 q 214 687 190 713 q 249 655 239 661 q 260 650 252 654 q 276 644 268 647 q 319 626 300 635 l 359 609 q 411 579 389 596 q 432 559 418 574 q 480 505 470 520 q 502 469 490 490 q 519 433 514 447 q 529 358 529 399 q 525 322 529 337 q 505 264 511 274 q 455 233 489 237 q 443 231 446 232 q 441 229 441 230 l 441 229 q 452 196 449 209 q 455 146 455 180 q 450 123 455 135 q 434 92 445 104 q 398 62 422 79 q 345 34 368 42 q 285 25 321 26 m 385 330 q 395 332 388 330 q 408 335 402 334 q 414 337 413 336 q 416 342 416 338 q 410 378 416 354 q 357 456 402 411 l 340 473 q 317 489 332 481 l 300 496 q 299 460 299 496 q 297 420 299 423 q 292 416 295 416 q 286 429 286 416 q 285 438 286 432 q 279 467 279 460 q 275 507 277 477 l 221 528 q 195 535 201 535 q 174 526 186 535 q 164 512 167 519 q 162 491 162 503 q 164 474 162 479 l 174 466 q 213 431 203 437 q 238 417 222 425 q 281 392 267 402 q 311 374 296 382 q 378 332 370 346 q 381 330 379 330 l 385 330 z "},"¨":{"ha":481,"x_min":34,"x_max":452,"o":"m 99 782 q 79 785 89 782 q 42 814 54 791 q 34 846 34 829 q 54 907 34 870 q 81 944 66 930 q 132 965 102 965 q 205 909 197 965 l 205 904 q 160 811 205 858 q 99 782 130 782 m 345 782 q 325 785 335 782 q 288 814 300 791 q 280 846 280 829 q 300 907 280 870 q 327 944 313 930 q 378 965 349 965 q 452 909 444 965 l 452 904 q 406 811 452 858 q 345 782 376 782 z "},"©":{"ha":699,"x_min":29,"x_max":671,"o":"m 369 295 q 333 296 353 295 q 222 372 254 298 q 217 384 218 379 q 214 410 214 392 q 238 523 214 477 q 323 606 269 576 l 340 614 q 385 614 378 614 q 399 610 392 613 q 446 586 426 600 q 471 559 465 572 q 473 550 473 551 q 471 534 473 545 q 466 510 469 515 q 455 504 463 504 q 439 528 439 504 q 435 537 439 534 q 415 543 430 540 q 386 545 400 545 q 364 542 372 545 q 336 518 351 534 q 314 486 321 502 q 306 457 309 475 q 302 427 302 439 q 302 413 302 417 q 321 386 309 393 q 370 375 333 380 q 387 372 380 373 q 404 369 393 370 q 440 364 427 364 q 450 367 444 364 q 463 370 456 370 q 475 365 470 370 q 481 351 481 359 q 447 307 481 326 q 369 295 422 295 m 368 106 q 334 109 352 106 q 165 178 248 115 q 107 226 126 204 q 67 288 87 248 q 35 363 44 330 q 29 426 29 382 q 31 483 29 453 q 56 591 37 557 q 92 642 66 612 q 144 692 118 671 q 254 753 180 723 q 364 783 323 783 l 372 783 q 511 739 440 783 q 543 722 528 728 q 565 711 551 719 q 607 680 593 694 q 623 657 615 670 q 639 630 634 636 q 652 604 647 618 q 671 538 660 585 l 671 503 q 659 402 669 461 q 614 275 650 348 q 580 221 598 242 q 531 177 562 200 q 476 140 500 154 q 422 115 452 127 q 368 106 400 106 m 373 212 q 467 252 403 212 q 511 283 498 271 q 547 345 525 301 q 571 405 567 384 q 578 454 575 422 q 582 504 582 486 q 581 527 582 519 q 575 549 579 534 q 562 581 568 571 l 547 604 q 531 620 541 613 q 501 637 522 627 q 471 681 471 653 q 472 691 471 686 q 473 698 473 696 q 452 703 473 701 q 391 707 422 707 q 376 704 379 707 q 356 699 373 701 q 330 691 342 697 l 271 662 l 258 644 q 229 589 237 616 q 216 509 220 561 q 214 488 215 495 q 205 475 212 475 q 201 477 202 475 q 199 488 199 480 q 195 553 195 511 q 197 581 195 566 q 205 611 198 597 l 210 622 q 195 609 199 614 q 146 546 155 570 q 135 471 138 522 q 134 433 134 450 q 138 389 134 403 q 162 341 146 370 q 189 300 178 313 q 210 281 191 296 q 243 257 218 276 q 338 216 289 224 q 373 212 362 212 z "},"ª":{"ha":54,"x_min":0,"x_max":0,"o":""},"«":{"ha":1073,"x_min":31,"x_max":1044,"o":"m 517 162 q 502 163 509 162 q 433 212 476 168 q 395 241 412 231 q 376 253 387 245 q 356 266 366 260 q 339 278 347 273 q 316 292 330 284 q 280 312 302 300 q 236 339 257 324 q 178 380 214 353 l 106 433 q 54 476 68 461 q 35 507 39 491 q 31 532 31 519 q 47 583 31 558 q 182 692 88 642 q 227 717 213 708 q 258 740 241 726 q 324 791 275 753 q 410 863 378 832 q 442 893 431 884 q 463 907 453 902 q 480 912 473 911 q 498 912 487 912 q 521 907 509 912 q 548 878 539 897 q 553 854 553 867 q 542 818 553 833 q 517 789 534 808 l 515 769 q 507 709 514 745 q 478 601 489 616 q 470 596 473 596 q 465 602 465 596 l 465 607 q 469 637 467 613 q 481 724 472 682 q 486 751 486 746 q 485 754 486 754 q 467 740 482 754 q 405 687 452 726 q 402 608 402 625 q 397 589 402 589 q 394 589 395 589 q 392 590 393 590 q 391 591 391 591 q 390 603 391 591 q 389 633 389 615 l 388 673 q 303 607 324 621 q 238 570 279 591 q 220 559 229 565 q 195 541 195 544 q 216 525 195 539 l 241 507 q 317 452 300 463 q 365 424 336 440 q 408 400 392 410 q 441 378 423 391 q 477 354 458 365 q 498 341 490 347 q 519 321 507 334 q 553 290 541 300 q 586 229 586 265 q 580 202 586 216 q 562 178 574 188 q 517 162 540 162 m 975 162 q 960 163 967 162 q 890 212 934 168 q 852 241 870 231 q 834 253 844 245 q 814 266 823 260 q 797 278 805 273 q 774 292 788 284 q 738 312 760 300 q 693 339 715 324 q 635 380 672 353 l 564 433 q 512 476 526 461 q 493 507 497 491 q 489 532 489 519 q 505 583 489 558 q 640 692 546 642 q 685 717 671 708 q 716 740 699 726 q 782 791 733 753 q 867 863 836 832 q 900 893 889 884 q 921 907 911 902 q 938 912 930 911 q 956 912 945 912 q 979 907 967 912 q 1006 878 997 897 q 1011 854 1011 867 q 1000 818 1011 833 q 975 789 992 808 l 973 769 q 965 709 972 745 q 936 601 947 616 q 928 596 931 596 q 922 602 922 596 l 923 607 q 926 637 925 613 q 939 724 930 682 q 944 751 944 746 q 943 754 944 754 q 925 740 940 754 q 863 687 910 726 q 860 608 860 625 q 854 589 860 589 q 852 589 853 589 q 849 590 850 590 q 848 591 848 591 q 848 603 848 591 q 847 633 847 615 l 846 673 q 761 607 782 621 q 696 570 736 591 q 677 559 687 565 q 653 541 653 544 q 674 525 653 539 l 699 507 q 774 452 758 463 q 823 424 793 440 q 865 400 850 410 q 899 378 881 391 q 935 354 916 365 q 956 341 947 347 q 977 321 964 334 q 1010 290 998 300 q 1044 229 1044 265 q 1038 202 1044 216 q 1019 178 1031 188 q 975 162 998 162 z "},"¬":{"ha":54,"x_min":0,"x_max":0,"o":""},"®":{"ha":833,"x_min":28,"x_max":804,"o":"m 386 75 q 350 77 363 75 q 320 81 337 78 q 276 91 304 84 q 215 109 240 99 q 163 134 190 119 q 97 183 121 157 q 58 247 73 209 q 31 328 40 288 q 28 374 28 344 q 31 430 28 404 q 40 491 34 456 q 52 547 47 527 q 119 663 68 613 q 199 727 148 691 q 288 783 250 764 q 323 797 308 793 q 357 801 338 801 q 426 795 374 801 q 506 779 477 789 q 552 750 534 768 l 560 742 q 582 751 578 751 q 595 752 586 752 q 618 747 608 752 q 643 731 629 743 q 675 707 656 719 q 719 668 699 691 q 763 606 739 646 q 802 513 793 556 q 804 485 804 503 q 804 448 804 466 q 801 419 803 429 q 768 323 789 362 q 576 135 723 242 q 460 79 517 92 q 386 75 441 75 m 429 178 q 453 179 445 178 q 468 183 460 180 q 508 202 488 190 q 571 248 528 215 q 667 335 634 294 q 718 425 701 375 q 727 479 727 453 q 726 498 727 489 q 681 590 721 534 q 655 621 669 608 q 620 648 641 634 q 602 659 604 659 l 602 656 q 604 646 604 651 q 591 629 604 634 l 587 629 q 569 643 576 629 q 547 679 560 660 q 527 705 534 699 q 507 717 516 714 q 452 724 488 724 q 425 722 444 724 l 426 691 q 422 671 426 679 q 406 650 414 650 q 399 659 399 650 l 400 665 q 399 696 400 680 q 395 720 396 718 q 392 721 394 721 q 332 705 360 721 q 271 663 310 692 q 182 581 206 612 q 153 503 159 549 q 139 378 139 422 q 140 357 139 367 q 154 310 144 337 q 175 267 164 283 q 208 240 184 256 q 255 214 231 224 q 289 203 266 210 q 373 182 342 187 q 388 180 381 181 q 397 178 395 178 q 429 178 399 178 m 483 269 q 408 278 462 269 q 301 313 336 290 q 292 318 293 318 q 291 317 291 318 q 294 313 291 317 q 296 301 296 309 q 294 288 296 293 q 273 271 287 275 q 260 269 267 269 q 245 271 253 269 q 198 356 198 290 q 203 404 198 372 q 225 522 207 430 l 233 566 q 245 618 239 605 q 275 635 254 635 q 295 629 284 635 q 309 608 306 622 l 311 603 l 331 609 q 385 619 362 619 q 399 618 393 619 q 474 547 455 606 q 478 490 478 526 l 478 470 q 448 395 478 428 q 437 382 437 384 l 437 381 q 454 378 437 381 l 486 369 q 537 345 515 359 q 550 333 548 337 q 553 313 553 326 q 550 300 553 304 q 492 269 535 275 l 483 269 m 304 427 l 330 433 q 384 458 370 442 q 391 476 389 465 q 393 511 393 488 q 392 536 393 532 q 382 549 391 540 q 339 548 349 549 l 313 544 q 312 508 313 527 q 302 432 307 454 l 302 429 q 304 427 302 427 z "},"¯":{"ha":701,"x_min":34,"x_max":662,"o":"m 89 717 q 86 717 88 717 q 71 751 83 718 q 68 789 68 756 l 68 821 l 56 827 q 34 859 34 839 q 43 880 34 869 q 53 889 47 886 q 73 894 60 892 q 144 901 90 897 l 172 903 q 339 916 254 911 l 382 918 l 387 918 l 458 918 q 554 920 530 918 q 597 923 579 923 q 627 920 617 923 q 662 870 662 904 q 635 826 662 844 q 627 821 630 823 q 619 795 623 817 q 612 773 616 783 q 604 764 607 764 q 599 768 599 764 q 601 775 599 771 q 604 789 602 780 q 607 806 606 798 l 608 812 q 607 814 608 814 l 585 812 q 548 806 562 807 q 492 804 532 804 l 383 804 l 383 804 l 237 802 q 163 804 197 802 q 93 814 126 806 q 93 803 93 808 q 92 789 92 798 q 90 773 91 781 q 88 755 88 762 q 90 738 88 749 q 92 722 92 728 q 89 717 92 717 z "},"°":{"ha":54,"x_min":0,"x_max":0,"o":""},"±":{"ha":701,"x_min":31,"x_max":665,"o":"m 296 486 l 294 486 q 172 487 214 485 q 99 496 130 489 l 93 497 l 92 486 q 92 473 92 481 q 90 456 91 465 q 88 439 88 446 q 90 421 88 432 q 92 403 92 408 q 87 401 91 399 q 71 434 83 400 q 68 472 68 439 l 68 504 l 56 510 q 35 534 39 519 q 43 563 31 549 q 53 572 47 569 q 73 577 60 575 q 111 581 86 579 q 144 584 126 583 q 172 587 161 585 q 254 594 206 590 q 293 597 275 595 l 293 639 q 290 734 293 711 q 291 808 284 789 q 335 843 305 840 q 385 817 366 846 q 391 804 388 810 q 395 793 393 798 q 395 790 395 791 q 396 789 396 789 l 396 788 q 397 781 396 787 q 399 766 397 774 q 406 729 404 743 q 408 696 408 715 q 408 641 408 677 l 407 601 l 458 601 q 553 604 530 601 q 627 603 608 610 q 662 558 659 589 q 635 509 665 528 q 627 504 630 507 q 623 496 625 502 q 619 478 621 490 q 612 456 616 466 q 604 447 607 447 q 601 459 595 447 q 604 472 602 463 q 607 489 606 481 q 607 498 608 496 q 600 497 606 498 q 585 495 593 496 q 548 489 562 490 q 515 487 534 487 q 460 487 496 486 l 408 487 l 408 475 q 407 353 409 395 q 398 280 405 311 l 397 273 l 390 249 l 384 237 q 360 216 374 220 q 331 224 345 212 q 322 234 326 228 q 317 254 319 241 q 313 292 315 267 q 310 325 312 307 q 307 353 309 342 q 300 435 304 387 q 296 486 298 463 m 89 -78 q 86 -78 88 -78 q 71 -44 83 -77 q 68 -6 68 -39 l 68 26 l 56 32 q 34 64 34 44 q 43 85 34 75 q 53 94 47 91 q 73 99 60 97 q 144 106 90 102 l 172 109 q 339 121 254 117 l 382 123 l 387 123 l 458 123 q 554 125 530 123 q 597 128 579 128 q 627 125 617 128 q 662 75 662 109 q 635 31 662 49 q 627 26 630 28 q 619 0 623 22 q 612 -22 616 -12 q 604 -31 607 -31 q 599 -27 599 -31 q 601 -19 599 -24 q 604 -6 602 -15 q 607 11 606 3 l 608 17 q 607 20 608 19 l 585 17 q 548 11 562 12 q 492 9 532 9 l 383 9 l 383 9 l 237 7 q 163 9 197 7 q 93 19 126 12 q 93 8 93 14 q 92 -5 92 3 q 90 -22 91 -14 q 88 -39 88 -33 q 90 -57 88 -46 q 92 -73 92 -67 q 89 -78 92 -78 z "}}}
